<svg width="624" height="613" viewBox="0 0 624 613" fill="none" xmlns="http://www.w3.org/2000/svg">
<g filter="url(#filter0_d_112_8)">
<ellipse cx="300.092" cy="311.794" rx="248.092" ry="249.418" fill="#FFFFC0"/>
</g>
<g filter="url(#filter1_d_112_8)">
<ellipse cx="323.908" cy="301.418" rx="248.092" ry="249.418" fill="#283D3E"/>
</g>
<g clip-path="url(#clip0_112_8)">
<mask id="mask0_112_8" style="mask-type:luminance" maskUnits="userSpaceOnUse" x="117" y="111" width="343" height="326">
<path d="M117.283 146.919L149.591 436.021L459.775 400.836L440.224 225.883C439.846 226.161 439.468 226.439 439.094 226.721C438.64 227.027 438.187 227.335 437.734 227.641C437.331 227.989 437.966 227.441 436.915 228.347C436.89 228.364 436.864 228.381 436.839 228.398C436.973 228.711 437.124 229.14 437.285 229.631C441.22 231.364 439.654 231.57 438.234 232.609C438.245 232.645 438.249 232.659 438.261 232.695C438.323 232.887 438.225 233.048 438.07 233.2C439.151 233.313 440.215 233.611 440.526 234.452C442.084 238.675 439.611 239.009 437.325 240.004C436.987 240.093 436.686 240.175 436.363 240.261C436.753 241.594 436.822 243.046 437.139 244.406C436.619 244.667 436.137 245.021 435.581 245.189C434.484 245.52 433.309 245.595 432.158 245.541C431.19 246.946 430.227 248.356 429.273 249.772C429.239 249.966 429.191 250.171 429.118 250.394C428.912 251.025 428.722 252.011 428.064 252.083C424.043 252.517 423.089 252.269 423.015 251.101C422.796 251.125 422.564 251.142 422.409 251.199C422.451 251.961 422.218 252.631 421.984 253.301C422.091 253.548 422.186 253.799 422.266 254.051C422.382 254.417 422.439 254.827 422.357 255.203C422.181 256.01 421.791 256.754 421.509 257.53C421.357 257.574 421.205 257.631 421.054 257.693C421.121 258.154 421.168 258.615 421.107 259.073C421.096 259.16 421.066 259.259 421.027 259.364C421.213 260.731 421.43 262.091 421.714 263.451C422.094 263.624 422.502 263.781 422.643 264.146C423.802 267.157 423.638 267.42 422.293 269.051C421.589 269.018 420.87 269.069 420.155 269.092C420.135 269.159 420.112 269.227 420.094 269.294C419.166 269.613 418.276 270.22 417.336 270.45C417.394 271.162 417.162 271.916 416.358 272.743C415.49 273.635 413.937 273.315 412.727 273.6C411.78 273.051 407.354 270.59 406.253 269.59C404.116 267.648 402.555 265.655 401.113 263.223C400.885 262.838 400.33 262.372 400.39 261.987C400.089 261.816 399.808 261.649 399.581 261.496C398.283 260.621 397.036 259.672 395.791 258.724C394.903 258.048 394 257.385 393.182 256.625C392.808 256.277 392.455 255.909 392.105 255.536C391.835 255.535 391.576 255.411 390.271 255.186C388.607 253.927 389.595 254.888 388.786 252.932C388.692 252.865 388.6 252.796 388.51 252.724C388.579 252.885 388.748 253.15 388.715 253.109C388.623 252.994 388.516 252.88 388.472 252.739C388.467 252.725 388.463 252.696 388.457 252.678C387.298 251.737 386.5 250.484 385.762 249.162C385.199 248.005 384.655 246.821 384.618 245.516C384.585 245.24 384.553 244.963 384.521 244.686C384.494 244.605 384.465 244.523 384.43 244.449C384.085 243.495 384.109 242.501 384.109 241.51C383.987 240.786 383.937 240.429 384.059 240.171C384.041 240.005 384.018 239.841 383.986 239.676C384.335 239.7 383.732 239.216 383.896 239.14C384.299 238.955 384.7 238.76 385.101 238.564C384.878 238.481 384.649 238.39 384.407 238.294C384.169 238.2 383.839 238.056 383.819 237.8C383.803 237.59 384.497 237.586 384.342 237.443C384.143 237.261 383.808 237.51 383.54 237.544C382.348 236.529 380.946 235.719 379.962 234.5C379.734 234.217 380.05 233.757 380.23 233.441C381.227 231.699 381.25 232.478 382.749 230.824C384.526 229.425 386.263 228.187 388.212 227.131C388.343 226.824 388.46 226.501 388.619 226.143C388.926 225.729 389.23 225.312 389.534 224.896C389.655 224.521 389.794 224.065 389.954 223.432C390.172 222.57 390.334 221.683 390.694 220.87C391.245 219.628 391.686 218.785 392.137 218.044C392.268 217.33 392.414 216.619 392.536 215.904C392.549 215.848 392.578 215.718 392.596 215.634C392.488 215.159 392.382 214.683 392.274 214.207L392.271 214.208C391.924 212.668 392.644 211.831 393.738 211.439C394.418 209.492 395.353 207.7 396.487 207.843C398.14 208.052 399.157 208.915 399.735 209.574C400.163 208.262 400.661 206.977 401.502 205.102C401.801 204.433 401.866 203.011 402.576 203.184C403.989 203.53 405.08 204.594 406.205 205.578C406.647 205.689 407.078 205.833 407.492 206.029C407.695 206.126 407.575 206.31 407.377 206.521C407.391 206.531 407.403 206.542 407.417 206.551C407.172 207.368 406.942 208.188 406.716 209.009C407.199 208.479 407.68 207.947 408.161 207.415C408.336 207.137 408.816 206.374 408.853 206.316C410.673 203.116 411.882 201.609 415.75 205.256C416.094 204.948 416.445 204.652 416.817 204.379C417.201 204.097 417.724 203.412 418.087 203.72C418.853 204.369 419.429 204.857 419.924 205.285C423.788 201.533 426.051 199.588 431.74 195.661C433.058 194.752 434.52 194.072 435.91 193.278C436.133 193.547 436.394 193.801 436.666 194.05L427.467 111.735L336.832 122.015C336.825 122.898 336.801 123.781 336.75 124.666C336.571 125.892 336.878 130.055 334.868 130.417C334.323 130.515 333.792 130.404 333.266 130.212C333.24 131.065 333.134 131.913 333.093 132.765C333.54 132.477 333.883 132.275 333.987 132.226C335.403 133.604 337.482 134.532 338.237 136.36C338.425 136.816 338.017 137.175 337.511 137.5C337.539 137.869 337.49 138.225 337.346 138.545C336.823 139.711 336.107 140.789 335.346 141.816C334.623 142.79 333.875 143.343 333.004 143.932C333.237 144.915 333.505 145.893 333.663 146.89C333.938 148.606 333.987 149.393 334.134 151.015C334.243 152.039 334.3 153.069 334.396 154.095C334.439 154.539 334.583 154.978 334.548 155.423C334.423 156.984 334.422 156.958 334.125 157.84C334.132 157.659 334.124 157.491 334.095 157.572C333.816 158.343 333.692 159.164 333.417 159.936C333.304 160.255 333.085 160.527 332.934 160.829C332.689 161.32 332.603 161.556 332.422 162.017C329.567 164.131 330.39 163.947 329.664 163.782C329.698 164.077 329.728 164.366 329.769 164.673C329.753 164.665 329.733 164.666 329.707 164.675C327.933 165.363 326.411 166.617 324.629 167.286C324.416 167.366 324.378 166.907 324.233 166.732C324.162 166.648 324.07 166.583 323.986 166.511C323.681 166.248 323.551 166.207 323.501 166.221C323.505 166.174 323.453 165.953 323.417 165.782C322.658 165.674 321.906 165.518 321.15 165.393C320.684 165.216 320.191 165.103 319.754 164.863C318.871 165.025 317.976 165.155 317.117 165.375C316.892 164.957 316.612 164.565 316.442 164.122C316.363 163.915 316.358 163.806 316.296 163.627C316.052 163.971 315.713 164.231 315.341 164.463C314.626 165.287 313.849 166.058 313.123 166.872C312.915 166.916 312.712 166.942 312.513 166.956C312.282 167.237 312.045 167.513 311.794 167.775C311.668 167.905 311.443 167.858 311.266 167.894C310.553 168.039 309.983 168.068 309.378 167.978C308.969 168.209 308.555 168.436 307.863 168.822C307.725 168.72 307.59 168.616 307.454 168.513C307.401 168.588 307.349 168.663 307.294 168.737C307.139 168.944 306.881 169.552 306.778 169.315C306.518 168.721 306.311 168.106 306.127 167.483C305.8 167.227 305.473 166.971 305.144 166.719C304.58 167.246 304.025 167.785 303.477 168.329C303.248 168.642 302.962 168.971 302.612 169.326C302.612 169.327 302.613 169.329 302.612 169.33C302.819 169.66 302.825 169.94 302.519 170.084C302.546 170.158 302.573 170.233 302.585 170.283C303.03 172.074 302.892 171.502 302.362 173.531C300.797 175.702 297.821 177.031 296.106 173.661C295.984 173.241 295.794 172.835 295.729 172.404C295.396 172.37 295.096 172.327 294.824 172.277C293.575 172.262 294.901 172.305 293.055 171.865C292.949 171.839 293.224 172.001 293.309 172.069C292.843 171.914 292.372 171.776 291.903 171.63C291.771 171.679 291.632 171.713 291.486 171.727C290.447 171.833 289.45 171.165 288.595 170.51C288.243 170.611 287.934 170.37 287.129 169.675C286.969 169.536 286.824 169.381 286.671 169.235C286.565 169.133 286.492 168.978 286.353 168.931C286.268 168.902 286.496 169.082 286.478 169.17C286.466 169.227 286.363 169.154 286.306 169.146C286.042 168.943 285.896 168.839 285.702 168.694C284.6 169.183 283.332 169.311 281.533 168.718C280.867 168.499 280.79 167.529 280.418 166.934C280.368 166.704 280.336 166.561 280.294 166.37C280.208 166.263 280.123 166.154 280.041 166.044C280.015 166.056 279.978 166.075 279.953 166.086C277.365 166.585 277.499 166.901 274.517 165.383C274.102 165.171 273.882 164.696 273.631 164.303C272.673 162.81 272.373 162.07 272.198 160.755C272.167 160.706 272.137 160.655 272.109 160.604C271.425 160.678 270.398 160.773 268.601 161.079C268.466 161.103 268.427 160.866 268.347 160.754C267.999 160.267 267.594 159.815 267.319 159.284C266.947 158.562 266.696 158.01 266.501 157.515C266.038 157.601 265.527 157.643 264.919 157.699C264.331 157.666 264.114 157.68 263.493 157.497C263.363 157.459 263.765 157.563 263.898 157.536C264.253 157.464 265.293 157.245 264.933 157.204C260.555 156.714 263.146 158.791 260.243 154.903C260.116 153.463 260.077 152.016 259.739 150.603C259.722 150.549 259.713 150.52 259.697 150.469C259.64 150.391 259.607 150.322 259.636 150.274C259.126 148.657 259.148 148.751 261.241 148.358C261.139 148.106 261.123 147.873 261.304 147.686C262.965 145.977 263.957 145.231 264.73 145.089C264.764 144.599 264.799 144.109 264.816 143.618C264.855 142.442 264.733 141.452 264.985 140.024C265.465 139.35 265.723 138.438 266.427 138.002C268.392 136.785 269.46 137.607 270.911 138.799C271.167 139.01 271.393 139.288 271.504 139.602C271.99 140.976 272.122 141.66 272.194 142.515C273.103 142.379 272.165 142.722 272.284 143.84C272.522 144.248 272.698 144.702 272.839 145.177C273.076 145.526 273.404 145.913 273.851 146.342C274.585 145.861 275.302 145.477 276.048 145.243C275.909 144.325 274.842 143.775 274.512 142.902C274.392 142.586 275.078 143.266 275.362 143.448C275.613 143.689 276.272 144.365 276.871 145.052C277.486 144.958 278.13 144.966 278.83 145.106C279.023 145.145 279.206 145.22 279.389 145.298C279.373 145.279 279.357 145.262 279.342 145.243C279.548 145.295 280.13 145.553 279.925 145.498C279.741 145.449 279.565 145.373 279.389 145.298C280.424 146.554 281.594 147.714 282.573 149.01C283.195 148.813 283.728 148.432 284.395 148.165C285.077 147.893 285.778 147.672 286.476 147.446C286.798 147.137 287.166 146.874 287.675 146.613C287.868 146.515 288.273 146.147 288.306 146.291C288.422 145.621 288.433 145.35 288.439 144.566C287.979 143.535 287.916 142.719 287.782 141.517C287.707 141.562 287.632 141.607 287.558 141.655C286.508 141.339 285.283 141.366 284.407 140.705C283.363 139.918 283.545 137.484 283.638 136.484C283.904 133.642 284.483 130.732 285.036 127.891L117.283 146.919ZM302.612 169.33L302.61 169.328C302.568 169.371 302.529 169.414 302.485 169.458C302.482 169.545 302.401 169.939 302.425 169.85C302.472 169.676 302.556 169.504 302.612 169.33ZM302.61 169.328L302.612 169.326C302.63 169.269 302.647 169.211 302.657 169.153C302.625 169.186 302.592 169.218 302.559 169.251C302.578 169.277 302.594 169.303 302.61 169.328ZM388.457 252.678C388.476 252.693 388.492 252.709 388.51 252.724C388.454 252.592 388.465 252.53 388.718 252.771C388.625 252.554 388.519 252.315 388.38 252.027C388.283 251.825 388.386 252.413 388.457 252.678ZM296.497 126.591C296.549 127.402 296.611 128.214 296.652 129.026C297.226 128.192 297.758 127.33 298.197 126.407C298.2 126.404 298.201 126.401 298.203 126.397L296.497 126.591ZM303.788 125.764C304.031 126.709 303.889 127.924 303.089 129.286C302.543 130.217 302.208 130.803 301.916 131.295C302.181 131.167 302.339 131.251 302.558 131.569C302.56 131.568 302.561 131.568 302.563 131.567C302.749 131.474 302.803 131.815 302.873 132.078C302.94 132.192 302.992 132.281 303.075 132.421C303.169 132.642 303.434 133.208 303.607 133.699C304.688 136.039 305.693 138.413 306.597 140.827C306.687 140.895 306.775 140.967 306.861 141.038C307.666 141.708 308.538 144.358 308.792 145.231C308.987 145.204 309.247 145.183 309.501 145.161C309.535 144.94 309.574 144.689 309.58 144.658C309.597 144.567 309.619 144.477 309.639 144.387C309.639 144.386 309.639 144.384 309.638 144.383C309.385 140.944 309.187 137.483 308.87 134.044C308.869 134.031 308.866 134.016 308.863 134.003C307.5 133.93 306.935 133.72 308.641 133.302C308.508 132.938 308.418 132.609 308.703 132.567C309.426 132.462 310.151 132.504 310.877 132.609C311.165 132.511 311.453 132.419 311.742 132.332C311.744 132.249 311.72 132.108 311.724 132.032C311.755 131.413 311.801 130.798 311.852 130.182C311.689 129.949 311.536 129.708 311.399 129.457C311.362 129.39 311.371 129.164 311.398 128.886C311.287 128.749 311.174 128.607 311.072 128.489C310.617 127.963 310.988 127.082 311.12 126.397C311.226 125.846 311.34 125.358 311.458 124.894L303.788 125.764ZM298.438 136.244C298.435 136.243 298.431 136.244 298.425 136.247C298.422 136.248 298.421 136.248 298.418 136.249C298.394 136.288 298.382 136.308 298.352 136.356C298.353 136.371 298.354 136.386 298.354 136.401C298.41 136.326 298.46 136.248 298.438 136.244ZM298.354 136.401C298.331 136.432 298.312 136.454 298.292 136.479C298.314 136.507 298.335 136.536 298.356 136.565C298.356 136.51 298.356 136.456 298.354 136.401ZM298.292 136.479C298.288 136.475 298.284 136.471 298.281 136.466C298.257 136.504 298.265 136.492 298.238 136.534C298.217 136.567 298.25 136.53 298.292 136.479ZM298.281 136.466C298.32 136.404 298.32 136.406 298.352 136.356C298.351 136.331 298.348 136.307 298.347 136.282C298.294 136.306 298.243 136.332 298.19 136.355C298.221 136.391 298.251 136.428 298.281 136.466ZM270.349 141.493C270.346 141.495 270.344 141.5 270.344 141.505C270.343 141.517 270.346 141.529 270.346 141.541C270.353 141.526 270.362 141.508 270.369 141.493C270.362 141.491 270.353 141.491 270.349 141.493ZM288.267 146.508C288.252 146.557 288.235 146.606 288.222 146.655C288.2 146.81 288.127 147.271 288.156 147.118C288.209 146.84 288.233 146.698 288.267 146.508ZM293.955 146.947C293.906 147.297 293.845 147.646 293.76 147.991C293.646 148.461 293.402 148.887 293.222 149.336C293.061 149.615 292.877 149.851 292.679 150.059C293.871 151.855 294.279 154.507 294.258 156.636C294.906 156.373 295.551 156.086 296.239 156.01C298.416 155.768 299.537 156.453 300.01 158.287C300.382 158.34 300.721 158.442 301.036 158.585C300.373 157.215 299.678 155.86 299.053 154.475C299.037 154.474 299.019 154.473 299.003 154.472C298.683 154.246 296.67 152.992 296.299 152.284C295.908 151.536 295.589 150.769 295.321 149.988C294.983 149.396 294.708 148.766 294.445 148.137C294.262 147.7 294.104 147.315 293.955 146.947ZM309.055 146.516C309.11 146.867 309.168 147.216 309.225 147.566C309.246 147.26 309.273 146.951 309.306 146.645C309.215 146.602 309.148 146.56 309.055 146.516ZM290.278 151.615C290.113 151.708 289.948 151.805 289.786 151.909C289.681 151.976 290.031 151.84 290.129 151.763C290.184 151.72 290.232 151.669 290.278 151.615ZM287.827 152.738C287.78 152.747 287.729 152.758 287.672 152.773C287.717 152.773 287.777 152.781 287.855 152.796C287.846 152.777 287.835 152.754 287.827 152.738ZM287.965 153.047C286.954 153.757 287.583 153.414 287.976 153.075C287.973 153.067 287.968 153.054 287.965 153.047ZM288.432 154.172C288.322 154.51 288.426 154.184 288.255 154.713C288.136 154.973 287.947 155.21 287.881 155.485C288.203 155.526 288.505 155.705 288.781 155.93C288.796 155.828 288.805 155.725 288.809 155.622C288.829 155.121 288.637 154.642 288.432 154.172ZM309.58 166.55C309.567 166.553 309.784 166.615 309.972 166.669C309.986 166.661 309.998 166.651 310.012 166.643C309.88 166.613 309.751 166.585 309.617 166.557C309.594 166.552 309.582 166.549 309.58 166.55ZM300.096 171.165C300.05 171.19 300.005 171.22 299.959 171.248C299.95 171.263 299.939 171.277 299.929 171.291C299.893 171.348 300.085 171.21 300.127 171.162C300.117 171.163 300.106 171.164 300.096 171.165ZM301.355 172.216C301.139 172.308 300.882 172.393 300.961 172.527C301.023 172.634 301.155 172.326 301.278 172.332C301.304 172.333 301.298 172.373 301.286 172.416C301.315 172.34 301.34 172.273 301.355 172.216ZM298.973 172.905C299.004 172.941 299.034 172.977 299.064 173.013C299.357 173.003 300.235 173.029 299.945 172.981C299.625 172.928 299.299 172.917 298.973 172.905ZM411.245 203.909C411.225 203.906 410.827 204.248 410.682 204.525C410.853 204.329 411.026 204.136 411.209 203.952C411.239 203.923 411.249 203.909 411.245 203.909ZM400.131 209.58C400.18 209.708 400.234 209.834 400.287 209.961C400.273 209.897 400.27 209.875 400.251 209.791C400.211 209.721 400.102 209.504 400.131 209.58ZM387.849 233.378C387.785 233.454 387.702 233.55 387.608 233.655C387.628 233.666 387.648 233.676 387.668 233.687C387.759 233.578 387.851 233.47 387.947 233.367C387.914 233.373 387.881 233.377 387.849 233.378ZM437.262 234.027C437.224 234.613 436.986 235.165 436.719 235.714C437.264 235.766 437.807 235.81 438.347 235.819C437.97 235.233 437.637 234.615 437.262 234.027ZM423.93 236.547C423.907 236.561 423.884 236.575 423.861 236.588C423.866 236.64 423.874 236.681 423.886 236.704C423.899 236.699 423.914 236.692 423.927 236.688C423.934 236.662 423.935 236.615 423.93 236.547ZM404.685 241.86C404.584 242.44 404.421 243.002 404.172 243.531C404.17 243.536 404.167 243.539 404.164 243.543C404.612 244.445 405.033 245.361 405.543 246.229C405.583 246.199 405.626 246.173 405.667 246.144C405.599 246.098 405.541 246.039 405.5 245.956C404.88 244.708 404.829 243.269 404.685 241.86ZM416.043 244.827C415.922 244.854 415.886 244.864 415.761 244.893C414.172 245.261 412.573 245.598 410.96 245.838C409.735 246.02 408.496 246.133 407.258 246.16C407.253 246.16 407.249 246.162 407.244 246.162C407.426 246.415 407.593 246.708 407.746 246.913C407.95 247.184 408.135 247.47 408.313 247.761C408.537 247.837 408.725 248.058 408.951 248.155C409.697 248.472 410.457 248.755 411.217 249.036C411.857 249.273 412.61 249.292 413.149 249.71C414.266 250.578 415.026 251.244 415.616 251.867C415.898 251.538 416.186 251.214 416.48 250.895C416.591 250.871 416.701 250.839 416.811 250.805C417.074 250.218 417.391 249.667 417.753 249.13C416.514 248.987 415.295 248.802 414.331 248.077C413.684 247.59 414.731 246.469 415.186 245.798C415.429 245.44 415.725 245.124 416.043 244.827ZM425.487 245.242C425.295 245.377 425.102 245.51 424.909 245.643C424.979 245.665 425.085 245.696 425.159 245.719C425.268 245.56 425.378 245.402 425.487 245.242ZM421.677 248.418C421.613 248.427 421.692 248.963 421.827 249.099C421.94 249.213 422.068 249.316 422.202 249.416C422.058 249.082 421.913 248.747 421.714 248.449C421.698 248.426 421.686 248.417 421.677 248.418ZM421.563 254.91C421.548 255.056 421.54 255.205 421.544 255.358C421.547 255.452 421.722 255.188 421.673 255.107C421.635 255.044 421.599 254.977 421.563 254.91ZM422.25 265.737C422.259 265.766 422.266 265.794 422.275 265.823C422.291 265.873 422.475 265.78 422.423 265.77C422.365 265.758 422.307 265.748 422.25 265.737ZM417.976 268.935C417.972 268.935 417.969 268.937 417.965 268.937C417.996 269.026 418.029 269.114 418.059 269.202C418.089 269.291 418.067 268.915 417.976 268.935Z" fill="white"/>
</mask>
<g mask="url(#mask0_112_8)">
<path d="M291.471 127.124C290.03 127.287 288.617 127.791 287.807 128.571C287.12 129.233 286.5 130.791 286.429 132.034C286.315 134.003 287.482 136.174 295.508 148.908C300.574 156.946 305.22 163.943 305.834 164.458C306.629 165.126 307.915 165.284 310.324 165.011C314.255 164.566 315.546 163.137 315.157 159.66C314.874 157.131 297.432 129.079 295.299 127.723C294.381 127.139 292.912 126.961 291.471 127.124ZM266.52 146.304C262.71 146.735 261.507 148.205 261.923 151.923C262.197 154.367 262.61 155.314 263.728 156.065C264.525 156.601 271.721 160.458 279.718 164.635C294.226 172.212 294.267 172.228 297.806 171.858C299.757 171.654 301.662 171.126 302.039 170.682C302.416 170.239 302.551 168.32 302.338 166.418L301.95 162.959L288.057 155.8C268.502 145.723 269.144 146.006 266.52 146.304ZM234.288 156.628L195.135 202.781C173.601 228.166 154.861 250.7 153.493 252.857C141.876 271.176 136.386 289.401 136.104 310.575C136.001 318.315 138.795 338.338 140.895 344.917C147.784 366.496 160.195 384.391 177.9 398.276C189.362 407.264 199.856 412.934 213.789 417.667C225.347 421.593 238.962 423.823 253.288 424.136C254.357 424.16 262.12 423.333 270.538 422.298C283.446 420.712 286.919 420.082 292.715 418.281C302.829 415.138 313.311 410.286 322.526 404.48C337.567 395.003 337.951 394.606 381.755 343.294C410.174 310.004 421.656 296.126 421.803 294.89C422.239 291.223 420.705 289.768 400.586 274.777L380.987 260.173L377.846 260.529L374.705 260.885L336.391 305.786C304.436 343.236 297.325 351.242 293.542 354.031C273.035 369.144 247.587 370.881 225.748 358.657C214.514 352.37 205.232 341.944 200.312 330.086C197.772 323.965 196.137 311.224 197.15 305.451C199.562 291.705 203.613 284.035 216.863 268.112C226.329 256.737 226.444 256.561 226.144 253.968C225.776 250.786 225.295 250.163 222.745 249.566C218.62 248.599 217.536 249.481 206.076 263.145C194.259 277.235 191.493 281.715 188.323 291.899C181.365 314.253 187.973 341.149 204.38 357.271L206.904 359.751L195.001 373.727L183.1 387.704L177.859 382.622C154.108 359.597 143.551 328.915 148.74 297.997C149.957 290.75 153.267 279.844 156.152 273.576L158.322 268.865L158.818 271.559C159.091 273.04 159.74 274.511 160.261 274.83C160.801 275.161 162.794 275.152 164.895 274.81C168.463 274.228 168.621 274.126 169.758 271.648C171.182 268.544 170.901 264.234 169.181 262.81C168.344 262.117 167.094 261.937 164.867 262.189L161.73 262.544L164.368 258.452C165.819 256.201 177.798 241.597 190.987 225.998L214.968 197.635L229.264 208.303L243.56 218.973L239.855 223.361C236.36 227.501 236.166 227.91 236.46 230.54C236.912 234.568 239.775 236.199 243.884 234.766C245.011 234.373 251.786 226.906 263.738 212.885L281.883 191.602L281.548 188.613L281.214 185.626L261.269 170.729L241.325 155.832L237.806 156.23L234.288 156.628ZM382.095 141.186C379.63 141.407 377.049 142.234 375.974 143.367C375.293 144.084 368.92 153.796 361.811 164.947C354.701 176.099 348.681 185.486 348.433 185.807C348.185 186.128 343.075 183.678 337.078 180.362C331.081 177.046 325.511 174.09 324.701 173.795C323.892 173.5 321.56 173.45 319.518 173.682C315.155 174.179 312.392 175.892 311.593 178.601C310.152 183.482 297.643 257.297 297.888 259.468C298.262 262.777 300.5 265.438 303.264 265.861C306.184 266.307 307.582 266.161 310.256 265.131C312.279 264.352 313.975 261.984 326.124 242.974C333.606 231.268 340.062 221.773 340.471 221.874C340.88 221.975 346.457 224.938 352.864 228.458L364.511 234.856L368.862 234.129C376.339 232.879 375.467 235.473 383.546 190.494C391.742 144.869 391.809 143.54 386.055 141.509C385.011 141.14 383.574 141.054 382.095 141.186ZM239.289 169.119L253.568 179.784L267.85 190.451L259.564 200.19L251.278 209.93L236.993 199.251L222.709 188.571L230.998 178.845L239.289 169.119ZM376.299 165.08C376.325 165.067 376.334 165.081 376.326 165.124C376.192 165.806 373.84 178.881 371.1 194.179C368.359 209.476 366.046 222.074 365.961 222.174C365.876 222.274 361.309 219.845 355.812 216.775C350.315 213.705 344.899 210.791 343.777 210.297C341.287 209.202 335.703 209.696 333.285 211.227C332.32 211.838 327.655 218.526 322.367 226.877C317.288 234.897 312.824 241.855 312.447 242.341C312.071 242.826 314.04 230.359 316.824 214.638C319.607 198.916 321.979 185.94 322.096 185.803C322.213 185.666 327.43 188.374 333.688 191.82C346.479 198.863 348.665 199.414 353.751 196.882C356.063 195.731 357.482 193.816 366.462 179.734C371.673 171.56 375.901 165.271 376.299 165.08ZM431.422 204.184C427.609 204.622 421.592 205.856 412.052 207.833C399.524 210.43 395.4 211.493 394.615 212.328C393.875 213.115 393.685 214.313 393.94 216.591C394.23 219.187 394.572 219.901 395.819 220.533C396.657 220.958 397.925 221.24 398.637 221.161C402.9 220.69 435.592 213.674 436.849 212.961C438.153 212.221 438.347 211.639 438.207 208.869C438.007 204.936 437.777 203.455 431.422 204.184ZM392.95 223.614C391.693 223.745 390.924 224.204 390.238 224.934C388.833 226.428 389.361 231.989 391.005 233.023C391.622 233.411 399.398 235.955 408.285 238.675C421.455 242.707 425.013 243.566 427.523 243.324C432.335 242.86 433.005 242.14 432.535 237.945C432.195 234.907 431.912 234.283 430.604 233.687C429.761 233.303 421.681 230.797 412.647 228.119C400.844 224.621 395.715 223.324 392.95 223.614ZM389.754 236.292C387.9 236.552 385.995 237.386 385.246 238.48C384.696 239.285 384.38 240.907 384.524 242.191C384.746 244.179 386.336 246.106 396.958 257.253C403.658 264.283 409.484 270.195 409.906 270.393C410.327 270.59 412.016 270.604 413.659 270.423C417.624 269.987 418.54 268.843 418.096 264.879C417.755 261.83 417.539 261.555 406.019 249.45C399.568 242.672 393.606 236.85 392.771 236.515C391.958 236.188 390.866 236.136 389.754 236.292ZM159.069 279.893C158.629 279.945 158.115 280.044 157.479 280.185C153.916 280.975 153.395 281.748 152.067 288.214C149.421 301.107 149.154 314.362 151.271 327.75C153.47 341.651 158.823 357.546 162.141 360.024C164.068 361.463 167.955 361.243 169.951 359.583C171.738 358.096 171.25 354.065 168.524 347.803C160.981 330.472 159.177 312.218 163.092 292.824C164.717 284.772 164.573 282.665 162.274 280.949C161.037 280.025 160.39 279.74 159.069 279.893ZM379.333 273.709L393.434 284.251L407.536 294.794L399.252 304.532L390.969 314.269L376.866 303.726L362.764 293.183L371.048 283.445L379.333 273.709ZM355.066 302.279L369.166 312.8L383.266 323.322L359.703 351.081C346.744 366.349 333.772 381.025 330.876 383.693C317.432 396.083 300.288 405.351 282.251 409.979C274.163 412.054 260.091 413.628 251.908 413.373C233.833 412.811 215.039 407.511 199.093 398.482L192.638 394.827L204.506 380.866L216.374 366.905L220.084 368.902C228.461 373.412 239.858 376.635 249.623 377.256C256.648 377.703 271.568 376.032 278.228 374.052C287.714 371.233 297.081 366.239 304.614 359.981C306.728 358.224 318.945 344.522 331.762 329.533L355.066 302.279Z" fill="url(#paint0_linear_112_8)"/>
</g>
<path d="M233.501 388.443C233.387 388.615 233.237 388.915 233.052 389.345C232.88 389.76 232.695 390.246 232.495 390.804C232.31 391.348 232.117 391.928 231.917 392.543C231.732 393.159 231.554 393.738 231.382 394.282C231.225 394.812 231.09 395.284 230.976 395.699C230.862 396.1 230.79 396.365 230.762 396.493C230.733 396.651 230.676 396.887 230.591 397.202C230.519 397.517 230.455 397.789 230.398 398.018C231.996 397.474 233.572 397.023 235.128 396.665C236.697 396.307 238.266 396.128 239.836 396.128C240.078 396.128 240.399 396.136 240.799 396.15C241.198 396.164 241.591 396.222 241.976 396.322C242.361 396.408 242.689 396.551 242.96 396.751C243.246 396.951 243.388 397.238 243.388 397.61C243.388 397.624 243.381 397.717 243.367 397.889C243.352 398.046 243.31 398.232 243.238 398.447C243.167 398.662 243.053 398.876 242.896 399.091C242.753 399.306 242.554 399.463 242.297 399.563C242.14 399.549 241.983 399.542 241.826 399.542C241.683 399.542 241.533 399.542 241.376 399.542C240.364 399.542 239.343 399.635 238.316 399.821C237.303 399.993 236.276 400.236 235.234 400.551C234.207 400.851 233.18 401.216 232.153 401.646C231.125 402.061 230.098 402.504 229.071 402.977L226.91 412.358C226.881 412.602 226.76 412.816 226.546 413.002C226.346 413.203 226.146 413.303 225.947 413.303H225.433C224.891 413.303 224.513 413.081 224.299 412.637C224.099 412.193 223.999 411.621 223.999 410.92C223.999 410.333 224.049 409.696 224.149 409.009C224.249 408.308 224.363 407.628 224.491 406.97C224.62 406.311 224.734 405.71 224.834 405.166C224.934 404.622 224.983 404.207 224.983 403.921C224.812 403.678 224.641 403.42 224.47 403.148C224.299 402.876 224.213 402.54 224.213 402.139C224.213 401.51 224.377 401.009 224.705 400.637C225.033 400.264 225.469 399.9 226.011 399.542C226.068 399.499 226.125 399.42 226.182 399.306C226.253 399.191 226.31 399.063 226.353 398.919C226.41 398.776 226.453 398.633 226.481 398.49C226.524 398.347 226.56 398.225 226.588 398.125L227.466 394.948C227.808 393.703 228.115 392.615 228.386 391.685C228.657 390.74 228.907 389.896 229.135 389.151C229.363 388.407 229.57 387.742 229.756 387.155C229.956 386.554 230.148 385.974 230.334 385.416C230.391 385.23 230.483 384.965 230.612 384.622C230.755 384.278 230.919 383.942 231.104 383.613C231.304 383.284 231.525 382.997 231.767 382.754C232.01 382.511 232.274 382.389 232.559 382.389C233.201 382.389 233.636 382.446 233.865 382.561C234.107 382.661 234.264 382.797 234.336 382.969L234.528 383.441C234.756 383.412 235.078 383.362 235.491 383.29C235.919 383.205 236.354 383.112 236.797 383.011C237.253 382.911 237.674 382.818 238.059 382.732C238.445 382.632 238.723 382.553 238.894 382.496C239.85 382.239 240.727 382.017 241.526 381.831C242.325 381.644 243.081 381.494 243.795 381.38C244.508 381.251 245.193 381.158 245.849 381.101C246.506 381.043 247.169 381.015 247.84 381.015C248.153 381.015 248.446 381.029 248.717 381.057C248.988 381.086 249.216 381.143 249.402 381.229C249.602 381.301 249.758 381.415 249.873 381.573C249.987 381.716 250.044 381.909 250.044 382.152C250.044 382.281 250.015 382.446 249.958 382.646C249.901 382.832 249.808 383.025 249.68 383.226C249.552 383.412 249.373 383.591 249.145 383.762C248.931 383.934 248.66 384.063 248.332 384.149C248.232 384.177 248.054 384.22 247.797 384.278C247.54 384.32 247.24 384.371 246.898 384.428C246.57 384.485 246.213 384.55 245.828 384.621C245.457 384.678 245.1 384.736 244.758 384.793C244.216 384.922 243.602 385.065 242.917 385.222C242.247 385.365 241.541 385.53 240.799 385.716C240.071 385.902 239.336 386.102 238.594 386.317C237.852 386.532 237.153 386.753 236.497 386.982C235.841 387.211 235.249 387.448 234.721 387.691C234.207 387.934 233.801 388.185 233.501 388.443Z" fill="white"/>
<path d="M250.386 399.305C250.515 398.747 250.664 398.132 250.836 397.459C251.021 396.772 251.214 396.064 251.413 395.334C251.627 394.604 251.841 393.867 252.055 393.123C252.269 392.378 252.476 391.663 252.676 390.976C252.89 390.289 253.083 389.652 253.254 389.065C253.425 388.464 253.575 387.956 253.703 387.541C253.974 386.611 254.231 385.68 254.474 384.75C254.716 383.806 254.952 382.818 255.18 381.787C255.465 381.229 255.851 380.836 256.336 380.607C256.821 380.363 257.349 380.242 257.919 380.242C258.376 380.485 258.733 380.821 258.989 381.251C259.26 381.666 259.396 382.138 259.396 382.668C259.396 383.04 259.332 383.469 259.203 383.956C259.089 384.428 258.939 384.943 258.754 385.501C258.568 386.045 258.362 386.625 258.133 387.24C257.905 387.841 257.684 388.464 257.47 389.108C257.07 390.282 256.671 391.455 256.271 392.629C255.872 393.802 255.48 395.04 255.094 396.343C254.995 396.686 254.888 397.03 254.773 397.373C254.659 397.717 254.538 398.089 254.41 398.49C254.295 398.89 254.167 399.341 254.024 399.842C253.882 400.329 253.739 400.894 253.596 401.538C253.425 402.297 253.275 403.062 253.147 403.835C253.019 404.594 252.897 405.359 252.783 406.132C252.669 406.905 252.541 407.685 252.398 408.472C252.255 409.259 252.084 410.054 251.884 410.855C251.813 411.141 251.685 411.399 251.499 411.628C251.328 411.843 251.128 412.029 250.9 412.186C250.672 412.343 250.429 412.465 250.172 412.551C249.915 412.637 249.673 412.68 249.445 412.68C249.216 412.68 248.995 412.658 248.781 412.615C248.581 412.587 248.424 412.508 248.31 412.379C248.139 412.193 248.004 411.986 247.904 411.757C247.804 411.528 247.754 411.285 247.754 411.027C247.754 410.955 247.754 410.891 247.754 410.834C247.768 410.762 247.783 410.691 247.797 410.619L250.386 399.305ZM267.164 371.139C267.008 371.769 266.736 372.277 266.351 372.664C265.98 373.05 265.517 373.386 264.96 373.673L258.24 377.022C257.983 377.165 257.641 377.236 257.213 377.236C256.885 377.236 256.649 377.165 256.507 377.022C256.364 376.864 256.293 376.664 256.293 376.421C256.293 376.12 256.35 375.848 256.464 375.605C256.592 375.361 256.749 375.14 256.935 374.939C257.12 374.739 257.32 374.567 257.534 374.424C257.748 374.267 257.941 374.131 258.112 374.016L259.738 373.05C260.423 372.649 261.094 372.249 261.75 371.848C262.406 371.433 263.02 371.068 263.59 370.753C264.161 370.424 264.675 370.159 265.131 369.959C265.588 369.744 265.945 369.637 266.201 369.637C266.487 369.637 266.722 369.737 266.908 369.937C267.107 370.138 267.207 370.403 267.207 370.732C267.207 370.803 267.207 370.875 267.207 370.947C267.207 371.004 267.193 371.068 267.164 371.139Z" fill="white"/>
<path d="M260.252 406.669C260.737 406.84 261.229 407.041 261.729 407.27C262.242 407.499 262.77 407.721 263.312 407.935C263.855 408.135 264.418 408.307 265.003 408.45C265.602 408.594 266.237 408.665 266.908 408.665C267.692 408.665 268.484 408.572 269.283 408.386C270.082 408.2 270.86 407.928 271.616 407.57C272.386 407.198 273.121 406.754 273.82 406.239C274.519 405.71 275.161 405.101 275.746 404.414C276.388 403.685 276.923 403.026 277.351 402.439C277.779 401.838 278.122 401.309 278.379 400.851C278.65 400.378 278.842 399.978 278.956 399.649C279.071 399.305 279.128 399.012 279.128 398.768C279.128 398.411 279.006 398.103 278.764 397.845C278.521 397.573 278.193 397.351 277.779 397.18C277.38 397.008 276.923 396.886 276.41 396.815C275.896 396.729 275.361 396.686 274.805 396.686C274.477 396.686 274.091 396.7 273.649 396.729C273.207 396.743 272.757 396.765 272.301 396.793C271.844 396.808 271.402 396.822 270.974 396.836C270.546 396.85 270.175 396.858 269.861 396.858C269.39 396.858 268.898 396.807 268.384 396.707C267.885 396.593 267.393 396.414 266.908 396.17C266.423 395.927 265.973 395.598 265.56 395.183C265.146 394.768 264.803 394.253 264.532 393.637C264.447 393.437 264.368 393.201 264.297 392.929C264.226 392.657 264.19 392.364 264.19 392.049C264.19 391.705 264.211 391.383 264.254 391.083C264.311 390.768 264.375 390.467 264.447 390.181C264.646 389.465 264.975 388.743 265.431 388.013C265.902 387.268 266.458 386.546 267.1 385.844C267.757 385.143 268.463 384.463 269.219 383.805C269.989 383.147 270.774 382.531 271.573 381.959C272.386 381.372 273.178 380.85 273.949 380.392C274.733 379.919 275.461 379.519 276.132 379.189C277.073 378.731 278.029 378.402 278.999 378.202C279.984 377.987 280.954 377.88 281.91 377.88C282.48 377.88 283.023 377.959 283.536 378.116C284.05 378.259 284.499 378.474 284.884 378.76C285.284 379.046 285.598 379.404 285.826 379.833C286.054 380.248 286.169 380.728 286.169 381.272C286.169 381.587 286.133 381.851 286.061 382.066C285.99 382.281 285.897 382.46 285.783 382.603C285.669 382.731 285.541 382.824 285.398 382.882C285.27 382.939 285.134 382.968 284.991 382.968C284.606 382.968 284.25 382.925 283.921 382.839C283.608 382.753 283.301 382.66 283.001 382.56C282.702 382.445 282.402 382.345 282.102 382.259C281.803 382.159 281.475 382.109 281.118 382.109C280.062 382.109 278.985 382.323 277.886 382.753C276.802 383.168 275.739 383.704 274.698 384.363C273.67 385.007 272.693 385.73 271.766 386.531C270.853 387.333 270.032 388.113 269.305 388.871C268.919 389.272 268.634 389.673 268.449 390.073C268.277 390.474 268.192 390.853 268.192 391.211C268.192 391.741 268.42 392.156 268.877 392.456C269.333 392.757 269.89 392.907 270.546 392.907C270.931 392.907 271.366 392.9 271.851 392.885C272.336 392.871 272.829 392.857 273.328 392.843C273.842 392.814 274.334 392.793 274.805 392.778C275.29 392.75 275.718 392.735 276.089 392.735C276.973 392.735 277.822 392.864 278.635 393.122C279.449 393.365 280.169 393.73 280.797 394.217C281.425 394.703 281.924 395.312 282.295 396.042C282.68 396.757 282.873 397.58 282.873 398.51C282.873 399.083 282.787 399.662 282.616 400.249C282.445 400.836 282.209 401.43 281.91 402.031C281.61 402.618 281.268 403.205 280.882 403.791C280.497 404.364 280.091 404.929 279.663 405.487C278.892 406.489 278.029 407.434 277.073 408.321C276.132 409.209 275.126 409.981 274.056 410.64C272.986 411.298 271.851 411.82 270.653 412.207C269.469 412.593 268.249 412.787 266.993 412.787C266.451 412.787 265.895 412.736 265.324 412.636C264.753 412.536 264.19 412.386 263.633 412.185C263.077 411.999 262.549 411.763 262.05 411.477C261.565 411.176 261.137 410.84 260.766 410.468C260.395 410.096 260.095 409.688 259.867 409.244C259.653 408.786 259.546 408.292 259.546 407.763C259.546 407.505 259.582 407.262 259.653 407.033C259.738 406.79 259.938 406.669 260.252 406.669Z" fill="white"/>
<path d="M290.021 399.306C290.149 398.748 290.299 398.132 290.47 397.459C290.656 396.772 290.848 396.064 291.048 395.334C291.262 394.604 291.476 393.867 291.69 393.123C291.904 392.379 292.111 391.663 292.311 390.976C292.525 390.289 292.717 389.652 292.889 389.065C293.06 388.464 293.21 387.956 293.338 387.541C293.609 386.611 293.866 385.681 294.109 384.75C294.351 383.806 294.586 382.818 294.815 381.788C295.1 381.23 295.485 380.836 295.97 380.607C296.455 380.364 296.983 380.242 297.554 380.242C298.011 380.485 298.367 380.822 298.624 381.251C298.895 381.666 299.031 382.139 299.031 382.668C299.031 383.04 298.966 383.47 298.838 383.956C298.724 384.428 298.574 384.944 298.389 385.502C298.203 386.046 297.996 386.625 297.768 387.241C297.54 387.842 297.319 388.464 297.105 389.108C296.705 390.282 296.306 391.456 295.906 392.629C295.507 393.803 295.114 395.041 294.729 396.343C294.629 396.687 294.522 397.03 294.408 397.374C294.294 397.717 294.173 398.089 294.044 398.49C293.93 398.891 293.802 399.341 293.659 399.842C293.516 400.329 293.374 400.894 293.231 401.538C293.06 402.297 292.91 403.063 292.782 403.835C292.653 404.594 292.532 405.36 292.418 406.132C292.304 406.905 292.175 407.685 292.033 408.472C291.89 409.26 291.719 410.054 291.519 410.855C291.448 411.142 291.319 411.399 291.134 411.628C290.963 411.843 290.763 412.029 290.535 412.186C290.306 412.344 290.064 412.465 289.807 412.551C289.55 412.637 289.308 412.68 289.079 412.68C288.851 412.68 288.63 412.659 288.416 412.616C288.216 412.587 288.059 412.509 287.945 412.38C287.774 412.194 287.638 411.986 287.538 411.757C287.439 411.528 287.389 411.285 287.389 411.027C287.389 410.956 287.389 410.891 287.389 410.834C287.403 410.763 287.417 410.691 287.431 410.619L290.021 399.306Z" fill="white"/>
<path d="M300.55 402.483C300.55 401.653 300.65 400.715 300.85 399.67C301.049 398.611 301.399 397.588 301.898 396.601C302.583 395.227 303.346 393.903 304.188 392.629C305.03 391.341 305.893 390.16 306.778 389.087C307.662 387.999 308.547 387.04 309.431 386.21C310.316 385.366 311.158 384.707 311.957 384.235L311.935 384.257C312.434 383.942 312.962 383.613 313.519 383.269C314.075 382.926 314.646 382.611 315.231 382.325C315.816 382.038 316.408 381.802 317.007 381.616C317.606 381.43 318.198 381.337 318.783 381.337C319.383 381.337 319.953 381.459 320.495 381.702C321.038 381.945 321.508 382.282 321.908 382.711C322.322 383.126 322.643 383.613 322.871 384.171C323.113 384.729 323.235 385.323 323.235 385.953C323.235 386.396 323.206 386.747 323.149 387.004C323.106 387.248 323.028 387.434 322.914 387.563C322.814 387.691 322.678 387.77 322.507 387.799C322.35 387.827 322.165 387.841 321.951 387.841C321.637 387.841 321.387 387.777 321.202 387.648C321.031 387.505 320.888 387.34 320.774 387.154C320.674 386.954 320.595 386.739 320.538 386.51C320.481 386.267 320.41 386.052 320.324 385.866C320.253 385.666 320.153 385.502 320.024 385.373C319.91 385.229 319.746 385.158 319.532 385.158C318.962 385.158 318.341 385.287 317.67 385.544C317.014 385.802 316.336 386.145 315.637 386.575C314.953 387.004 314.261 387.498 313.561 388.056C312.877 388.6 312.22 389.158 311.593 389.731C310.965 390.303 310.38 390.868 309.838 391.427C309.31 391.985 308.853 392.486 308.468 392.929C307.897 393.659 307.377 394.403 306.906 395.162C306.435 395.906 306.028 396.672 305.686 397.459C305.344 398.232 305.08 399.033 304.894 399.863C304.709 400.679 304.616 401.531 304.616 402.418C304.616 403.105 304.709 403.706 304.894 404.221C305.094 404.737 305.308 405.18 305.536 405.552C305.807 405.982 306.143 406.282 306.542 406.454C306.941 406.612 307.419 406.69 307.976 406.69C309.189 406.69 310.309 406.576 311.336 406.347C312.363 406.118 313.347 405.81 314.289 405.424C315.231 405.037 316.151 404.579 317.05 404.05C317.949 403.52 318.876 402.955 319.832 402.354H320.388C320.574 402.354 320.759 402.404 320.945 402.504C321.145 402.604 321.316 402.733 321.458 402.891C321.615 403.048 321.736 403.227 321.822 403.427C321.922 403.628 321.972 403.835 321.972 404.05C321.972 404.522 321.787 404.994 321.416 405.467C321.045 405.925 320.567 406.368 319.982 406.798C319.411 407.213 318.762 407.606 318.034 407.978C317.307 408.351 316.586 408.68 315.873 408.966C315.174 409.252 314.517 409.496 313.904 409.696C313.291 409.896 312.798 410.032 312.427 410.104C312.113 410.175 311.807 410.247 311.507 410.319C311.222 410.376 310.879 410.44 310.48 410.512C310.08 410.569 309.602 410.619 309.046 410.662C308.49 410.691 307.79 410.705 306.949 410.705C306.435 410.705 305.964 410.626 305.536 410.469C305.108 410.297 304.723 410.104 304.381 409.889C304.052 409.66 303.767 409.424 303.525 409.181C303.296 408.938 303.111 408.73 302.968 408.558C302.126 407.571 301.513 406.598 301.128 405.639C300.742 404.68 300.55 403.628 300.55 402.483Z" fill="white"/>
<path d="M344.978 411.864C344.678 411.864 344.414 411.807 344.186 411.692C343.958 411.578 343.765 411.428 343.608 411.241C343.465 411.055 343.351 410.841 343.266 410.597C343.194 410.354 343.159 410.111 343.159 409.868C343.159 409.653 343.216 409.36 343.33 408.987C343.444 408.601 343.586 408.172 343.758 407.699C343.943 407.227 344.143 406.733 344.357 406.218C344.571 405.703 344.778 405.209 344.978 404.737C345.177 404.264 345.349 403.828 345.491 403.427C345.634 403.026 345.734 402.712 345.791 402.483C345.848 402.225 345.919 401.917 346.005 401.559C346.091 401.202 346.183 400.815 346.283 400.4C346.397 399.971 346.504 399.527 346.604 399.069C346.718 398.597 346.833 398.125 346.947 397.652C346.747 397.695 346.498 397.738 346.198 397.781C345.912 397.81 345.606 397.838 345.278 397.867C344.807 397.91 344.343 397.974 343.887 398.06C343.43 398.146 342.959 398.246 342.474 398.361C342.003 398.461 341.511 398.575 340.997 398.704C340.484 398.819 339.935 398.94 339.35 399.069C338.494 399.255 337.637 399.463 336.781 399.692C335.925 399.921 335.034 400.035 334.106 400.035C333.821 400.035 333.557 399.964 333.315 399.821C333.072 399.663 332.801 399.549 332.501 399.477C332.216 399.935 331.945 400.429 331.688 400.958C331.431 401.474 331.196 402.01 330.982 402.568C330.768 403.112 330.575 403.656 330.404 404.2C330.233 404.729 330.083 405.23 329.955 405.703C329.883 405.96 329.819 406.297 329.762 406.712C329.719 407.112 329.676 407.527 329.634 407.957C329.591 408.372 329.548 408.773 329.505 409.159C329.462 409.545 329.42 409.853 329.377 410.082C329.334 410.297 329.248 410.511 329.12 410.726C328.992 410.926 328.835 411.112 328.649 411.284C328.464 411.456 328.257 411.592 328.029 411.692C327.8 411.807 327.572 411.864 327.344 411.864C326.944 411.864 326.616 411.749 326.359 411.52C326.117 411.277 325.917 410.984 325.76 410.64C325.617 410.282 325.518 409.896 325.461 409.481C325.404 409.066 325.375 408.687 325.375 408.343C325.375 407.47 325.482 406.568 325.696 405.638C325.91 404.693 326.195 403.742 326.552 402.783C326.923 401.81 327.351 400.836 327.836 399.863C328.335 398.876 328.87 397.895 329.441 396.922C329.912 396.049 330.497 395.04 331.196 393.895C331.895 392.75 332.673 391.577 333.529 390.374C334.399 389.158 335.333 387.97 336.332 386.811C337.345 385.651 338.394 384.621 339.478 383.719C340.562 382.803 341.675 382.066 342.817 381.508C343.958 380.95 345.092 380.671 346.219 380.671C347.404 380.671 348.388 380.886 349.173 381.315C349.972 381.744 350.607 382.324 351.077 383.054C351.548 383.784 351.876 384.635 352.062 385.609C352.261 386.582 352.361 387.612 352.361 388.7C352.361 389.659 352.297 390.646 352.169 391.662C352.055 392.679 351.905 393.673 351.719 394.647C351.548 395.62 351.355 396.557 351.141 397.459C350.942 398.36 350.756 399.176 350.585 399.906L349.836 402.826C349.807 402.912 349.75 403.083 349.665 403.341C349.594 403.599 349.494 403.913 349.365 404.286C349.251 404.643 349.116 405.037 348.959 405.466C348.816 405.881 348.666 406.296 348.509 406.711C348.367 407.112 348.224 407.484 348.081 407.828C347.953 408.171 347.839 408.45 347.739 408.665L347.76 408.643C347.66 409.016 347.553 409.395 347.439 409.781C347.325 410.168 347.168 410.518 346.969 410.833C346.769 411.134 346.512 411.384 346.198 411.585C345.884 411.771 345.477 411.864 344.978 411.864ZM346.069 384.986C345.427 384.986 344.785 385.122 344.143 385.394C343.515 385.652 342.895 385.995 342.281 386.424C341.668 386.854 341.068 387.355 340.484 387.927C339.913 388.5 339.364 389.086 338.836 389.688C338.322 390.289 337.837 390.897 337.38 391.512C336.924 392.113 336.51 392.672 336.139 393.187C336.082 393.273 336.004 393.387 335.904 393.53C335.818 393.659 335.726 393.809 335.626 393.981C335.54 394.139 335.454 394.31 335.369 394.496C335.283 394.668 335.212 394.826 335.155 394.969H337.359C338.158 394.969 339.071 394.912 340.098 394.797C341.126 394.683 342.139 394.547 343.137 394.389C344.15 394.232 345.078 394.075 345.919 393.917C346.761 393.745 347.396 393.616 347.824 393.531C347.881 393.344 347.931 393.094 347.974 392.779C348.031 392.464 348.081 392.114 348.124 391.727C348.167 391.341 348.195 390.933 348.21 390.504C348.238 390.06 348.252 389.609 348.252 389.151C348.252 388.779 348.238 388.357 348.21 387.884C348.181 387.398 348.095 386.94 347.953 386.511C347.81 386.081 347.589 385.723 347.289 385.437C347.004 385.137 346.597 384.986 346.069 384.986Z" fill="white"/>
<path d="M365.949 405.381C366.166 404.499 366.485 403.577 366.908 402.616C367.341 401.654 367.861 400.726 368.466 399.833C369.071 398.929 369.755 398.099 370.52 397.343C371.296 396.576 372.141 395.952 373.054 395.471C373.351 395.311 373.676 395.191 374.03 395.11C374.384 395.03 374.743 394.99 375.108 394.99C375.485 394.99 375.833 395.025 376.153 395.093C376.484 395.162 376.763 395.276 376.992 395.437C377.231 395.597 377.42 395.803 377.557 396.055C377.694 396.307 377.762 396.616 377.762 396.982C377.762 397.257 377.722 397.538 377.642 397.824C377.563 398.099 377.443 398.351 377.283 398.58C377.123 398.797 376.923 398.975 376.684 399.112C376.444 399.249 376.164 399.318 375.845 399.318C375.594 399.318 375.36 399.272 375.143 399.181C374.937 399.089 374.738 398.986 374.544 398.872C374.441 398.803 374.344 398.746 374.252 398.7C374.161 398.643 374.053 398.591 373.927 398.545C373.471 398.751 373.037 399.026 372.626 399.37C372.226 399.702 371.85 400.074 371.496 400.486C371.154 400.898 370.834 401.339 370.537 401.809C370.252 402.278 369.989 402.747 369.75 403.217C369.521 403.686 369.322 404.15 369.15 404.608C368.991 405.055 368.859 405.467 368.757 405.845C368.677 406.119 368.603 406.434 368.534 406.789C368.477 407.133 368.448 407.47 368.448 407.802C368.448 408.031 368.465 408.249 368.499 408.455C368.545 408.661 368.619 408.844 368.722 409.005C368.825 409.165 368.962 409.291 369.133 409.382C369.304 409.474 369.515 409.52 369.767 409.52C370.166 409.52 370.56 409.468 370.948 409.365C371.347 409.262 371.735 409.13 372.112 408.97C372.489 408.81 372.854 408.627 373.208 408.421C373.573 408.203 373.927 407.986 374.269 407.768C374.486 407.631 374.703 407.487 374.92 407.339C375.137 407.19 375.342 407.058 375.536 406.944C375.73 406.829 375.907 406.738 376.067 406.669C376.238 406.589 376.387 406.549 376.512 406.549C376.683 406.549 376.843 406.594 376.992 406.686C377.14 406.766 377.214 406.909 377.214 407.115C377.214 407.264 377.18 407.43 377.112 407.613C376.952 408.06 376.735 408.461 376.461 408.816C376.187 409.171 375.879 409.491 375.537 409.777C375.206 410.052 374.846 410.298 374.458 410.516C374.081 410.733 373.705 410.934 373.328 411.117C372.62 411.495 371.901 411.781 371.171 411.976C370.452 412.159 369.847 412.251 369.356 412.251C369.196 412.251 369.008 412.233 368.791 412.199C368.574 412.165 368.386 412.113 368.226 412.044C367.301 411.644 366.628 411.106 366.206 410.43C365.783 409.755 365.572 408.953 365.572 408.026C365.572 407.625 365.601 407.207 365.658 406.772C365.726 406.325 365.823 405.862 365.949 405.381Z" fill="white"/>
<path d="M380.964 405.519C381.135 404.821 381.398 404.082 381.752 403.303C382.117 402.513 382.591 401.718 383.173 400.916C383.755 400.115 384.451 399.33 385.262 398.563C386.083 397.796 387.031 397.081 388.104 396.417C388.275 396.313 388.537 396.205 388.891 396.09C389.245 395.964 389.61 395.89 389.987 395.867C390.432 395.386 391.031 395.146 391.785 395.146C392.675 395.146 393.422 395.375 394.027 395.832C394.644 396.279 395.152 396.892 395.551 397.67C395.677 397.922 395.791 398.168 395.894 398.409C396.008 398.649 396.099 398.907 396.168 399.182C396.247 399.445 396.31 399.731 396.356 400.04C396.402 400.349 396.424 400.699 396.424 401.088C396.424 401.992 396.282 402.914 395.996 403.853C395.711 404.792 395.306 405.708 394.781 406.601C394.256 407.494 393.617 408.353 392.863 409.177C392.121 409.99 391.294 410.723 390.381 411.375C389.764 411.822 389.08 412.165 388.326 412.406C387.584 412.658 386.751 412.784 385.827 412.784C384.948 412.784 384.183 412.663 383.532 412.423C382.893 412.194 382.357 411.862 381.923 411.427C381.501 410.992 381.181 410.471 380.964 409.864C380.759 409.257 380.656 408.582 380.656 407.837C380.656 407.116 380.759 406.343 380.964 405.519ZM383.806 405.742C383.738 406.006 383.686 406.258 383.652 406.498C383.628 406.727 383.616 406.95 383.616 407.168C383.616 407.546 383.662 407.901 383.753 408.233C383.856 408.553 384.016 408.834 384.233 409.074C384.449 409.303 384.718 409.486 385.037 409.624C385.368 409.75 385.768 409.813 386.236 409.813C387.103 409.813 387.908 409.595 388.65 409.16C389.403 408.714 390.071 408.158 390.653 407.494C391.235 406.83 391.72 406.12 392.108 405.365C392.508 404.597 392.787 403.893 392.947 403.252C393.05 402.851 393.135 402.474 393.204 402.119C393.284 401.764 393.324 401.437 393.324 401.14C393.324 400.842 393.267 400.567 393.153 400.315C393.05 400.052 392.913 399.76 392.742 399.439C392.639 399.245 392.536 399.044 392.434 398.838C392.331 398.621 392.239 398.409 392.16 398.203C392.068 398.363 391.971 398.506 391.868 398.632C391.766 398.747 391.611 398.855 391.406 398.958C391.201 399.05 390.921 399.136 390.567 399.216C390.213 399.296 389.751 399.365 389.18 399.422C388.804 399.548 388.421 399.743 388.033 400.006C387.645 400.269 387.263 400.579 386.886 400.934C386.521 401.288 386.167 401.672 385.825 402.084C385.494 402.496 385.191 402.92 384.917 403.355C384.655 403.779 384.421 404.197 384.215 404.609C384.021 405.021 383.886 405.399 383.806 405.742Z" fill="white"/>
<path d="M399.352 410.963C399.694 409.623 400.025 408.375 400.345 407.219C400.664 406.062 400.972 404.957 401.269 403.904C401.577 402.839 401.874 401.809 402.159 400.813C402.445 399.817 402.719 398.803 402.981 397.773C403.084 397.372 403.141 396.989 403.152 396.622C403.176 396.244 403.233 395.855 403.323 395.454C403.369 395.317 403.449 395.197 403.563 395.094C403.688 394.979 403.825 394.882 403.974 394.802C404.122 394.721 404.276 394.658 404.436 394.613C404.607 394.567 404.767 394.544 404.915 394.544C405.235 394.544 405.497 394.584 405.703 394.664C405.92 394.733 406.091 394.83 406.217 394.956C406.354 395.082 406.445 395.237 406.491 395.42C406.548 395.592 406.576 395.786 406.576 396.004C406.576 396.393 406.513 396.788 406.388 397.189C406.262 397.578 406.108 398.008 405.926 398.477C406.462 398.053 407.01 397.653 407.569 397.275C408.14 396.897 408.722 396.565 409.316 396.279C409.921 395.992 410.537 395.763 411.165 395.592C411.792 395.42 412.443 395.334 413.116 395.334C413.425 395.334 413.733 395.386 414.041 395.489C414.349 395.58 414.623 395.729 414.863 395.935C415.114 396.141 415.319 396.41 415.479 396.743C415.65 397.075 415.747 397.481 415.77 397.962C416.261 397.63 416.769 397.298 417.294 396.966C417.819 396.622 418.35 396.319 418.886 396.056C419.434 395.781 419.976 395.563 420.513 395.403C421.061 395.231 421.591 395.145 422.105 395.145C422.87 395.145 423.498 395.248 423.988 395.454C424.491 395.649 424.884 395.918 425.17 396.262C425.466 396.594 425.672 396.983 425.786 397.429C425.912 397.876 425.974 398.351 425.974 398.855C425.974 399.404 425.923 399.971 425.82 400.555C425.717 401.139 425.603 401.694 425.478 402.221C425.147 403.549 424.776 404.809 424.365 405.999C423.954 407.179 423.509 408.375 423.029 409.589C422.915 409.875 422.795 410.179 422.67 410.499C422.544 410.82 422.396 411.117 422.225 411.392C422.065 411.656 421.871 411.879 421.643 412.062C421.426 412.234 421.169 412.32 420.872 412.32C420.199 412.32 419.736 412.205 419.485 411.976C419.234 411.747 419.109 411.421 419.109 410.997C419.109 410.883 419.115 410.751 419.127 410.602C419.139 410.453 419.167 410.31 419.212 410.173C419.258 410.001 419.361 409.755 419.52 409.434C419.68 409.102 419.851 408.747 420.034 408.369C420.228 407.992 420.416 407.614 420.599 407.236C420.782 406.847 420.919 406.509 421.01 406.223C421.158 405.73 421.33 405.164 421.523 404.522C421.729 403.87 421.923 403.217 422.106 402.564C422.288 401.9 422.437 401.276 422.551 400.692C422.676 400.097 422.739 399.616 422.739 399.25C422.739 399.078 422.722 398.906 422.688 398.735C422.654 398.563 422.591 398.414 422.499 398.288C422.42 398.162 422.3 398.059 422.14 397.979C421.991 397.899 421.797 397.859 421.558 397.859C421.215 397.859 420.804 397.956 420.325 398.151C419.857 398.346 419.366 398.603 418.853 398.924C418.35 399.233 417.86 399.588 417.38 399.989C416.901 400.378 416.49 400.767 416.148 401.157C415.908 401.431 415.68 401.655 415.463 401.826C415.246 401.998 415.029 402.13 414.812 402.221C414.788 402.267 414.731 402.422 414.641 402.685C414.55 402.937 414.441 403.246 414.316 403.612C414.19 403.967 414.059 404.357 413.922 404.78C413.785 405.193 413.654 405.582 413.528 405.948C413.414 406.303 413.317 406.607 413.237 406.858C413.157 407.099 413.117 407.231 413.117 407.253C413.037 407.574 412.969 407.906 412.912 408.25C412.855 408.582 412.803 408.902 412.758 409.211C412.712 409.52 412.666 409.853 412.621 410.207C412.586 410.551 412.507 410.877 412.381 411.186C412.267 411.484 412.084 411.73 411.833 411.925C411.594 412.12 411.251 412.217 410.806 412.217C410.578 412.217 410.367 412.16 410.173 412.045C409.99 411.931 409.83 411.788 409.693 411.616C409.556 411.433 409.448 411.232 409.368 411.015C409.288 410.786 409.242 410.557 409.231 410.328C409.493 409.298 409.75 408.37 410.001 407.546C410.252 406.721 410.503 405.931 410.755 405.176C411.006 404.42 411.245 403.664 411.474 402.909C411.713 402.142 411.947 401.3 412.176 400.384C412.233 400.166 412.278 399.955 412.313 399.749C412.347 399.531 412.364 399.342 412.364 399.182C412.364 398.907 412.307 398.684 412.193 398.512C412.079 398.329 411.879 398.237 411.594 398.237C411.126 398.237 410.658 398.334 410.19 398.529C409.733 398.712 409.237 399.004 408.7 399.405C408.164 399.806 407.565 400.315 406.903 400.934C406.252 401.552 405.499 402.29 404.643 403.149C404.551 403.321 404.431 403.641 404.283 404.111C404.135 404.58 403.98 405.078 403.821 405.605C403.672 406.132 403.535 406.624 403.41 407.082C403.284 407.529 403.204 407.826 403.17 407.975C403.045 408.456 402.959 408.863 402.914 409.195C402.868 409.515 402.828 409.807 402.794 410.07C402.77 410.208 402.736 410.437 402.691 410.757C402.646 411.067 402.56 411.381 402.434 411.702C402.32 412.023 402.155 412.303 401.938 412.544C401.721 412.795 401.436 412.921 401.082 412.921C400.557 412.921 400.123 412.778 399.781 412.492C399.45 412.206 399.284 411.845 399.284 411.41C399.284 411.33 399.29 411.255 399.302 411.187C399.314 411.118 399.329 411.043 399.352 410.963Z" fill="white"/>
<path d="M222.846 457.211C223.388 454.835 223.995 452.438 224.665 450.019C225.35 447.6 226.014 445.203 226.656 442.827C226.927 441.84 227.162 440.945 227.362 440.144C227.576 439.328 227.754 438.591 227.897 437.932C228.039 437.274 228.146 436.68 228.218 436.151C228.289 435.607 228.325 435.106 228.325 434.648C228.325 434.562 228.325 434.469 228.325 434.369C228.325 434.254 228.318 434.118 228.303 433.961C228.161 433.961 227.84 434.039 227.34 434.197C226.855 434.354 226.277 434.562 225.607 434.819C224.951 435.077 224.251 435.37 223.51 435.699C222.782 436.014 222.104 436.336 221.476 436.666C220.977 436.923 220.556 437.138 220.214 437.31C219.886 437.481 219.6 437.617 219.358 437.717C219.115 437.803 218.894 437.868 218.694 437.911C218.495 437.939 218.288 437.953 218.074 437.953C217.631 437.953 217.246 437.782 216.918 437.438C216.604 437.095 216.447 436.651 216.447 436.107C216.447 435.792 216.476 435.52 216.533 435.291C216.604 435.048 216.704 434.833 216.833 434.647C216.975 434.461 217.161 434.289 217.389 434.132C217.617 433.96 217.895 433.789 218.224 433.617C221.833 431.728 225.486 430.347 229.181 429.474C232.876 428.586 236.585 428.143 240.309 428.143C240.609 428.143 240.965 428.15 241.379 428.164C241.793 428.179 242.214 428.207 242.642 428.25C243.084 428.279 243.512 428.329 243.926 428.401C244.34 428.458 244.703 428.529 245.017 428.615C245.345 428.716 245.631 428.923 245.873 429.238C246.116 429.553 246.237 429.889 246.237 430.247C246.237 430.533 246.209 430.812 246.152 431.084C246.109 431.356 246.023 431.592 245.895 431.793C245.766 431.993 245.595 432.157 245.381 432.286C245.181 432.401 244.932 432.458 244.632 432.458C244.119 432.401 243.526 432.329 242.856 432.243C242.2 432.157 241.536 432.114 240.866 432.114C239.524 432.114 238.183 432.15 236.842 432.222C235.515 432.279 234.153 432.465 232.755 432.78C232.683 432.808 232.633 432.887 232.605 433.016C232.591 433.13 232.576 433.28 232.562 433.467C232.519 434.239 232.455 434.919 232.369 435.506C232.284 436.093 232.163 436.68 232.006 437.266C231.863 437.853 231.685 438.49 231.471 439.177C231.257 439.85 231.007 440.665 230.722 441.624C230.436 442.569 230.101 443.707 229.716 445.038C229.345 446.354 228.931 447.95 228.475 449.825L227.447 453.99C227.205 454.949 227.012 455.815 226.869 456.587C226.741 457.346 226.627 458.097 226.527 458.842C226.47 459.085 226.249 459.314 225.864 459.529C225.493 459.743 225.05 459.85 224.537 459.85C224.237 459.85 223.966 459.772 223.724 459.614C223.481 459.442 223.281 459.228 223.124 458.97C222.967 458.713 222.86 458.433 222.803 458.133C222.746 457.818 222.761 457.511 222.846 457.211Z" fill="white"/>
<path d="M240.716 460.023C240.716 459.866 240.737 459.658 240.78 459.401C240.837 459.129 240.901 458.857 240.973 458.585C241.044 458.299 241.115 458.027 241.187 457.769C241.272 457.512 241.336 457.304 241.379 457.147L250.047 428.616C250.118 428.515 250.196 428.43 250.282 428.358C250.353 428.287 250.446 428.23 250.56 428.187C250.689 428.129 250.838 428.101 251.01 428.101H251.373C251.687 428.101 251.951 428.158 252.165 428.272C252.379 428.372 252.55 428.516 252.679 428.702C252.807 428.873 252.893 429.081 252.936 429.324C252.993 429.553 253.021 429.804 253.021 430.076C253.021 430.305 253 430.548 252.957 430.805C252.929 431.049 252.893 431.292 252.85 431.535C252.807 431.764 252.757 431.979 252.7 432.179C252.658 432.38 252.622 432.537 252.593 432.652L248.142 447.894L250.175 447.701C252.443 447.2 254.755 446.685 257.109 446.155C259.477 445.611 261.796 445.089 264.064 444.588C264.321 444.459 264.549 444.194 264.749 443.794C264.949 443.393 265.141 442.87 265.327 442.226C265.527 441.582 265.741 440.831 265.969 439.972C266.197 439.099 266.475 438.133 266.803 437.074L267.253 435.593C267.438 434.877 267.602 434.147 267.745 433.403C267.902 432.645 268.087 431.958 268.301 431.342C268.515 430.727 268.787 430.226 269.115 429.839C269.443 429.439 269.864 429.238 270.377 429.238C271.105 429.238 271.669 429.474 272.068 429.947C272.467 430.405 272.667 430.984 272.667 431.686C272.667 432.129 272.496 432.873 272.154 433.918C271.825 434.963 271.412 436.237 270.912 437.74C270.727 438.298 270.527 438.87 270.313 439.457C270.099 440.044 269.899 440.609 269.714 441.153C269.543 441.683 269.4 442.176 269.286 442.634C269.172 443.078 269.115 443.436 269.115 443.708C269.115 443.965 269.15 444.223 269.222 444.48C269.293 444.724 269.329 444.989 269.329 445.275C269.329 445.919 269.158 446.456 268.815 446.885C268.473 447.314 268.002 447.751 267.403 448.194C267.374 448.309 267.331 448.488 267.274 448.731C267.231 448.974 267.174 449.225 267.103 449.483L266.825 450.577C266.625 451.365 266.454 452.152 266.311 452.939C266.183 453.726 266.062 454.506 265.947 455.279C265.848 456.052 265.733 456.825 265.605 457.597C265.491 458.37 265.341 459.136 265.156 459.894C265.084 460.181 264.956 460.438 264.77 460.667C264.599 460.882 264.392 461.068 264.15 461.225C263.921 461.383 263.679 461.504 263.422 461.59C263.165 461.676 262.923 461.719 262.694 461.719C262.352 461.719 262.074 461.641 261.86 461.483C261.646 461.326 261.475 461.14 261.346 460.925C261.232 460.71 261.154 460.489 261.111 460.26C261.068 460.03 261.047 459.837 261.047 459.68C261.047 459.508 261.068 459.229 261.111 458.843C261.168 458.442 261.239 457.977 261.325 457.447C261.41 456.918 261.51 456.345 261.624 455.73C261.739 455.114 261.853 454.492 261.967 453.862C262.238 452.402 262.552 450.806 262.909 449.075H262.759C262.388 449.075 261.988 449.118 261.56 449.204C261.132 449.275 260.619 449.382 260.019 449.525C259.748 449.611 259.342 449.726 258.8 449.869C258.272 450.012 257.665 450.177 256.98 450.363C256.296 450.549 255.554 450.749 254.755 450.964C253.97 451.179 253.185 451.393 252.401 451.608L246.601 453.197C246.33 453.755 246.073 454.363 245.831 455.021C245.602 455.665 245.388 456.324 245.189 456.996C244.989 457.655 244.803 458.306 244.632 458.95C244.475 459.594 244.325 460.202 244.183 460.775C244.14 460.932 244.047 461.104 243.905 461.29C243.776 461.476 243.619 461.648 243.434 461.805C243.263 461.963 243.077 462.091 242.877 462.192C242.692 462.292 242.514 462.342 242.342 462.342C242.028 462.342 241.765 462.27 241.551 462.127C241.351 461.998 241.187 461.82 241.058 461.591C240.93 461.376 240.837 461.125 240.78 460.839C240.737 460.567 240.716 460.295 240.716 460.023Z" fill="white"/>
<path d="M276.434 448.345C276.562 447.787 276.712 447.171 276.883 446.499C277.069 445.812 277.262 445.103 277.461 444.373C277.675 443.643 277.889 442.906 278.103 442.162C278.317 441.418 278.524 440.702 278.724 440.015C278.938 439.328 279.131 438.691 279.302 438.105C279.473 437.503 279.623 436.995 279.751 436.58C280.022 435.65 280.279 434.72 280.522 433.79C280.764 432.845 281 431.857 281.228 430.827C281.513 430.269 281.898 429.875 282.383 429.646C282.869 429.403 283.396 429.281 283.967 429.281C284.424 429.525 284.78 429.861 285.037 430.29C285.308 430.705 285.444 431.178 285.444 431.707C285.444 432.079 285.38 432.509 285.251 432.995C285.137 433.468 284.987 433.983 284.802 434.541C284.616 435.085 284.409 435.664 284.181 436.28C283.953 436.881 283.732 437.504 283.518 438.148C283.118 439.321 282.719 440.495 282.319 441.668C281.92 442.842 281.527 444.08 281.142 445.382C281.042 445.726 280.935 446.069 280.821 446.413C280.707 446.756 280.586 447.128 280.457 447.529C280.343 447.93 280.215 448.381 280.072 448.881C279.93 449.368 279.787 449.933 279.644 450.577C279.473 451.336 279.323 452.102 279.195 452.875C279.066 453.633 278.945 454.399 278.831 455.172C278.717 455.944 278.588 456.724 278.446 457.512C278.303 458.299 278.132 459.093 277.932 459.895C277.861 460.181 277.732 460.438 277.547 460.667C277.376 460.882 277.176 461.068 276.948 461.226C276.719 461.383 276.477 461.504 276.22 461.59C275.963 461.676 275.721 461.719 275.492 461.719C275.264 461.719 275.043 461.698 274.829 461.655C274.629 461.626 274.472 461.548 274.358 461.419C274.187 461.233 274.051 461.025 273.952 460.796C273.852 460.567 273.802 460.324 273.802 460.066C273.802 459.995 273.802 459.931 273.802 459.873C273.816 459.802 273.83 459.73 273.845 459.658L276.434 448.345Z" fill="white"/>
<path d="M305.303 460.904C305.004 460.904 304.74 460.846 304.512 460.732C304.283 460.618 304.091 460.467 303.934 460.281C303.791 460.095 303.677 459.88 303.591 459.637C303.52 459.394 303.484 459.151 303.484 458.907C303.484 458.693 303.541 458.399 303.655 458.027C303.769 457.641 303.912 457.211 304.083 456.739C304.269 456.267 304.469 455.773 304.683 455.258C304.897 454.743 305.103 454.249 305.303 453.776C305.503 453.304 305.674 452.868 305.817 452.467C305.96 452.066 306.059 451.751 306.116 451.522C306.173 451.265 306.245 450.957 306.33 450.599C306.416 450.241 306.509 449.855 306.609 449.44C306.723 449.011 306.83 448.567 306.93 448.109C307.044 447.637 307.158 447.164 307.272 446.692C307.073 446.735 306.823 446.778 306.523 446.821C306.238 446.849 305.931 446.878 305.603 446.907C305.132 446.95 304.668 447.014 304.212 447.1C303.755 447.186 303.284 447.286 302.799 447.401C302.329 447.501 301.836 447.616 301.323 447.744C300.809 447.859 300.26 447.98 299.675 448.109C298.819 448.295 297.963 448.503 297.107 448.732C296.251 448.961 295.359 449.075 294.432 449.075C294.146 449.075 293.882 449.004 293.64 448.861C293.397 448.703 293.126 448.589 292.827 448.517C292.541 448.975 292.27 449.469 292.013 449.998C291.757 450.514 291.521 451.05 291.307 451.608C291.093 452.152 290.901 452.696 290.729 453.24C290.558 453.77 290.408 454.27 290.28 454.743C290.209 455 290.144 455.337 290.087 455.752C290.045 456.152 290.002 456.568 289.959 456.997C289.916 457.412 289.873 457.813 289.831 458.199C289.788 458.586 289.745 458.893 289.702 459.122C289.659 459.337 289.574 459.552 289.445 459.766C289.317 459.966 289.16 460.153 288.975 460.324C288.789 460.496 288.582 460.632 288.354 460.732C288.126 460.847 287.897 460.904 287.669 460.904C287.27 460.904 286.941 460.789 286.685 460.56C286.442 460.317 286.242 460.024 286.085 459.68C285.943 459.322 285.843 458.936 285.786 458.521C285.729 458.106 285.7 457.727 285.7 457.383C285.7 456.51 285.807 455.608 286.021 454.678C286.235 453.734 286.521 452.782 286.877 451.823C287.248 450.85 287.676 449.876 288.161 448.903C288.661 447.916 289.196 446.935 289.766 445.962C290.237 445.089 290.822 444.08 291.521 442.935C292.22 441.79 292.998 440.617 293.854 439.414C294.724 438.198 295.659 437.01 296.657 435.851C297.67 434.692 298.719 433.661 299.803 432.759C300.888 431.843 302 431.106 303.142 430.548C304.283 429.99 305.417 429.711 306.545 429.711C307.729 429.711 308.713 429.926 309.498 430.355C310.297 430.784 310.932 431.364 311.403 432.094C311.873 432.824 312.201 433.675 312.387 434.649C312.587 435.622 312.686 436.652 312.686 437.74C312.686 438.699 312.622 439.686 312.494 440.703C312.38 441.719 312.23 442.713 312.044 443.687C311.873 444.66 311.681 445.597 311.467 446.499C311.267 447.4 311.081 448.216 310.91 448.946L310.161 451.866C310.133 451.952 310.076 452.123 309.99 452.381C309.919 452.639 309.819 452.954 309.691 453.326C309.577 453.683 309.441 454.077 309.284 454.506C309.141 454.921 308.991 455.336 308.835 455.752C308.692 456.152 308.549 456.524 308.407 456.868C308.278 457.211 308.164 457.49 308.064 457.705L308.086 457.684C307.986 458.056 307.879 458.435 307.765 458.821C307.651 459.208 307.494 459.558 307.294 459.873C307.094 460.174 306.837 460.424 306.523 460.625C306.21 460.811 305.803 460.904 305.303 460.904ZM306.395 434.026C305.753 434.026 305.111 434.162 304.469 434.434C303.841 434.691 303.22 435.035 302.607 435.464C301.993 435.894 301.394 436.394 300.809 436.967C300.239 437.539 299.689 438.126 299.161 438.727C298.648 439.328 298.163 439.937 297.706 440.552C297.25 441.153 296.836 441.711 296.465 442.227C296.408 442.312 296.329 442.427 296.229 442.57C296.144 442.699 296.051 442.849 295.951 443.021C295.866 443.178 295.78 443.35 295.694 443.536C295.609 443.708 295.537 443.865 295.48 444.009H297.685C298.484 444.009 299.397 443.951 300.424 443.837C301.451 443.723 302.464 443.587 303.463 443.429C304.476 443.272 305.403 443.114 306.245 442.957C307.087 442.785 307.722 442.656 308.15 442.57C308.207 442.384 308.257 442.134 308.3 441.819C308.357 441.504 308.407 441.153 308.449 440.767C308.492 440.381 308.521 439.973 308.535 439.543C308.564 439.1 308.578 438.649 308.578 438.191C308.578 437.819 308.564 437.397 308.535 436.924C308.507 436.438 308.421 435.98 308.278 435.55C308.136 435.121 307.915 434.763 307.615 434.477C307.33 434.176 306.923 434.026 306.395 434.026Z" fill="white"/>
<path d="M340.251 445.446C340.08 445.489 339.774 445.582 339.331 445.726C338.889 445.869 338.39 446.04 337.833 446.241C337.277 446.427 336.685 446.634 336.057 446.863C335.443 447.078 334.858 447.285 334.302 447.486C333.746 447.672 333.261 447.837 332.847 447.98C332.433 448.123 332.155 448.216 332.012 448.259C331.912 448.273 331.784 448.316 331.627 448.388C331.47 448.459 331.306 448.531 331.135 448.602C330.978 448.674 330.821 448.745 330.664 448.817C330.521 448.874 330.407 448.903 330.321 448.903C330.022 448.903 329.751 448.846 329.508 448.732C329.28 448.603 329.08 448.438 328.909 448.238C328.738 448.037 328.609 447.801 328.524 447.529C328.438 447.257 328.395 446.978 328.395 446.692C328.395 446.105 328.559 445.64 328.888 445.297C329.216 444.953 329.601 444.696 330.043 444.524C330.5 444.338 330.971 444.216 331.456 444.159C331.941 444.102 332.34 444.051 332.654 444.009C332.697 444.009 332.782 443.987 332.911 443.944C333.039 443.901 333.182 443.851 333.339 443.794C333.496 443.736 333.653 443.686 333.81 443.643C333.967 443.6 334.095 443.579 334.195 443.579C334.452 443.465 334.851 443.293 335.393 443.064C335.936 442.835 336.528 442.606 337.17 442.377C337.812 442.133 338.447 441.926 339.074 441.754C339.716 441.568 340.266 441.475 340.722 441.475C341.236 441.475 341.692 441.561 342.092 441.733C342.491 441.89 342.834 442.119 343.119 442.42C343.404 442.706 343.618 443.049 343.761 443.45C343.918 443.836 343.996 444.266 343.996 444.738C343.996 444.938 343.982 445.146 343.954 445.361C343.925 445.561 343.875 445.811 343.804 446.112C343.376 447.715 342.719 449.211 341.835 450.599C340.965 451.973 339.937 453.225 338.753 454.356C337.569 455.472 336.264 456.46 334.837 457.318C333.41 458.177 331.941 458.885 330.428 459.444L330.45 459.422C330.207 459.522 329.908 459.63 329.551 459.744C329.209 459.844 328.845 459.944 328.46 460.044C328.089 460.13 327.718 460.202 327.347 460.259C326.99 460.316 326.676 460.345 326.405 460.345C325.849 460.345 325.378 460.331 324.993 460.302C324.607 460.259 324.279 460.216 324.008 460.174C323.751 460.116 323.53 460.052 323.345 459.98C323.174 459.909 323.017 459.837 322.874 459.766C322.061 459.393 321.312 458.95 320.627 458.435C319.956 457.905 319.378 457.297 318.893 456.61C318.408 455.923 318.03 455.164 317.759 454.334C317.488 453.49 317.353 452.574 317.353 451.586C317.353 450.527 317.524 449.425 317.866 448.28C318.209 447.121 318.679 445.955 319.279 444.781C319.878 443.607 320.577 442.448 321.376 441.303C322.189 440.158 323.067 439.063 324.008 438.019C324.95 436.96 325.927 435.979 326.94 435.077C327.967 434.176 328.987 433.382 330 432.695C330.614 432.28 331.27 431.857 331.969 431.428C332.683 430.999 333.41 430.612 334.152 430.269C334.894 429.925 335.643 429.646 336.399 429.431C337.17 429.202 337.919 429.088 338.646 429.088C339.231 429.088 339.809 429.174 340.38 429.345C340.95 429.517 341.464 429.76 341.921 430.075C342.377 430.376 342.748 430.748 343.033 431.192C343.319 431.635 343.462 432.129 343.462 432.673C343.462 432.916 343.426 433.181 343.355 433.467C343.326 433.582 343.269 433.782 343.184 434.068C343.098 434.355 342.991 434.576 342.863 434.734L342.905 434.691C342.848 434.877 342.748 434.984 342.605 435.013C342.477 435.042 342.342 435.056 342.199 435.056C341.771 435.056 341.407 434.949 341.107 434.734C340.808 434.519 340.53 434.29 340.273 434.047C340.016 433.789 339.759 433.553 339.502 433.338C339.26 433.124 338.967 433.017 338.625 433.017H338.047C336.934 433.26 335.75 433.718 334.495 434.39C333.239 435.049 331.984 435.857 330.728 436.816C329.487 437.761 328.295 438.82 327.154 439.994C326.013 441.167 325.007 442.384 324.137 443.643C323.266 444.903 322.567 446.183 322.039 447.486C321.526 448.774 321.269 450.012 321.269 451.2C321.269 452.173 321.49 453.01 321.932 453.712C322.375 454.399 323.017 455.078 323.858 455.751H323.837C324.279 456.037 324.757 456.281 325.271 456.481C325.799 456.681 326.312 456.782 326.812 456.782C327.325 456.782 327.882 456.681 328.481 456.481C329.094 456.281 329.701 456.03 330.3 455.73C330.913 455.429 331.505 455.1 332.076 454.742C332.661 454.384 333.189 454.055 333.66 453.754C335.172 452.767 336.449 451.593 337.491 450.234C338.532 448.874 339.388 447.464 340.059 446.005C340.087 445.933 340.116 445.862 340.144 445.79C340.173 445.732 340.194 445.675 340.209 445.618C340.223 445.547 340.237 445.489 340.251 445.446Z" fill="white"/>
<path d="M346.95 449.74C347.207 448.667 347.578 447.572 348.063 446.456C348.548 445.325 349.118 444.194 349.775 443.064C350.431 441.933 351.159 440.824 351.958 439.736C352.771 438.634 353.627 437.575 354.526 436.559C355.439 435.528 356.373 434.562 357.329 433.661C358.299 432.745 359.27 431.907 360.24 431.149C360.696 430.834 361.117 430.627 361.502 430.526C361.888 430.426 362.294 430.376 362.722 430.376C363.179 430.376 363.585 430.448 363.942 430.591C364.299 430.72 364.655 430.963 365.012 431.321C365.126 431.449 365.247 431.564 365.376 431.664C365.504 431.764 365.626 431.815 365.74 431.815C365.768 431.815 365.804 431.786 365.847 431.729C365.889 431.657 365.932 431.578 365.975 431.492C366.032 431.406 366.096 431.321 366.168 431.235C366.239 431.134 366.324 431.063 366.424 431.02C366.667 430.906 366.952 430.834 367.28 430.805C367.623 430.762 367.965 430.741 368.308 430.741C368.95 430.741 369.57 430.862 370.169 431.106C370.769 431.335 371.297 431.664 371.753 432.093C372.837 433.109 373.658 434.326 374.214 435.743C374.785 437.16 375.07 438.684 375.07 440.315C375.07 441.775 374.856 443.35 374.428 445.038C374.057 446.527 373.522 447.972 372.823 449.375C372.138 450.777 371.325 452.094 370.383 453.325C369.456 454.556 368.415 455.679 367.259 456.695C366.118 457.712 364.898 458.585 363.599 459.315C362.301 460.044 360.946 460.61 359.533 461.01C358.121 461.426 356.687 461.633 355.232 461.633C353.876 461.633 352.656 461.426 351.572 461.01C350.502 460.595 349.589 460.009 348.833 459.25C348.091 458.492 347.52 457.59 347.121 456.545C346.736 455.5 346.543 454.341 346.543 453.067C346.543 452.524 346.572 451.98 346.629 451.436C346.7 450.878 346.807 450.313 346.95 449.74ZM350.567 451.178C350.41 451.894 350.331 452.538 350.331 453.111C350.331 453.912 350.467 454.621 350.738 455.236C351.023 455.837 351.416 456.345 351.915 456.76C352.429 457.161 353.035 457.469 353.734 457.683C354.447 457.884 355.225 457.984 356.067 457.984C357.065 457.984 358.078 457.827 359.106 457.512C360.147 457.197 361.16 456.739 362.144 456.138C363.129 455.537 364.078 454.814 364.991 453.969C365.904 453.125 366.746 452.166 367.516 451.093C368.301 450.019 368.993 448.853 369.592 447.594C370.205 446.334 370.698 444.996 371.069 443.579C371.211 443.064 371.311 442.527 371.368 441.969C371.44 441.411 371.475 440.874 371.475 440.359C371.475 439.529 371.383 438.734 371.197 437.976C371.012 437.217 370.705 436.545 370.277 435.958C369.849 435.371 369.285 434.906 368.586 434.562C367.887 434.205 367.031 434.026 366.018 434.026C365.875 434.026 365.761 434.09 365.676 434.219C365.604 434.333 365.526 434.484 365.44 434.67C365.369 434.827 365.283 434.992 365.184 435.164C365.098 435.335 364.977 435.493 364.82 435.636C364.677 435.765 364.492 435.872 364.263 435.958C364.049 436.044 363.778 436.087 363.45 436.087C363.208 436.087 362.993 436.037 362.808 435.936C362.622 435.822 362.437 435.672 362.252 435.485C362.166 435.4 362.095 435.335 362.038 435.292C361.98 435.235 361.916 435.206 361.845 435.206C361.717 435.206 361.545 435.264 361.331 435.378C361.131 435.492 360.917 435.628 360.689 435.786C360.475 435.943 360.261 436.108 360.047 436.28C359.847 436.451 359.69 436.602 359.576 436.73C358.606 437.732 357.636 438.827 356.666 440.015C355.71 441.189 354.825 442.405 354.012 443.665C353.199 444.924 352.486 446.198 351.872 447.486C351.273 448.76 350.838 449.991 350.567 451.178Z" fill="white"/>
<path d="M383.561 456.922C384.046 457.094 384.539 457.294 385.038 457.524C385.552 457.753 386.079 457.974 386.622 458.189C387.164 458.389 387.727 458.561 388.312 458.704C388.911 458.847 389.546 458.919 390.217 458.919C391.002 458.919 391.793 458.826 392.592 458.64C393.391 458.454 394.169 458.182 394.925 457.824C395.696 457.452 396.43 457.008 397.129 456.493C397.829 455.964 398.471 455.355 399.055 454.668C399.697 453.938 400.232 453.28 400.661 452.693C401.089 452.092 401.431 451.563 401.688 451.105C401.959 450.632 402.151 450.232 402.266 449.902C402.38 449.559 402.437 449.266 402.437 449.022C402.437 448.664 402.315 448.357 402.073 448.099C401.83 447.827 401.502 447.605 401.088 447.434C400.689 447.262 400.232 447.14 399.719 447.069C399.205 446.983 398.67 446.94 398.114 446.94C397.786 446.94 397.4 446.954 396.958 446.983C396.516 446.997 396.066 447.019 395.61 447.047C395.153 447.061 394.711 447.076 394.283 447.09C393.855 447.104 393.484 447.111 393.17 447.111C392.699 447.111 392.207 447.061 391.693 446.961C391.194 446.847 390.702 446.668 390.217 446.424C389.732 446.181 389.282 445.852 388.869 445.437C388.455 445.022 388.112 444.507 387.841 443.891C387.756 443.691 387.677 443.455 387.606 443.183C387.535 442.911 387.499 442.617 387.499 442.303C387.499 441.959 387.521 441.637 387.563 441.336C387.621 441.022 387.685 440.721 387.756 440.435C387.956 439.719 388.284 438.996 388.74 438.267C389.211 437.522 389.768 436.8 390.41 436.098C391.066 435.397 391.772 434.717 392.528 434.059C393.299 433.401 394.083 432.785 394.882 432.213C395.696 431.626 396.487 431.103 397.258 430.645C398.043 430.173 398.77 429.772 399.441 429.443C400.382 428.985 401.338 428.656 402.309 428.456C403.293 428.241 404.263 428.134 405.219 428.134C405.79 428.134 406.332 428.213 406.846 428.37C407.359 428.513 407.809 428.728 408.194 429.014C408.593 429.3 408.907 429.658 409.135 430.088C409.364 430.503 409.478 430.982 409.478 431.526C409.478 431.841 409.442 432.106 409.371 432.32C409.3 432.535 409.207 432.714 409.093 432.857C408.979 432.986 408.85 433.079 408.708 433.136C408.579 433.193 408.444 433.222 408.301 433.222C407.916 433.222 407.559 433.179 407.231 433.093C406.917 433.007 406.61 432.914 406.311 432.814C406.011 432.7 405.711 432.599 405.412 432.513C405.112 432.413 404.784 432.363 404.427 432.363C403.372 432.363 402.294 432.578 401.196 433.007C400.112 433.422 399.049 433.959 398.007 434.617C396.98 435.261 396.003 435.984 395.075 436.785C394.162 437.587 393.342 438.367 392.614 439.125C392.229 439.526 391.944 439.927 391.758 440.328C391.587 440.728 391.501 441.108 391.501 441.465C391.501 441.995 391.73 442.41 392.186 442.71C392.643 443.011 393.199 443.161 393.855 443.161C394.241 443.161 394.676 443.154 395.161 443.14C395.646 443.125 396.138 443.111 396.638 443.097C397.151 443.068 397.643 443.047 398.114 443.033C398.599 443.004 399.027 442.99 399.398 442.99C400.283 442.99 401.132 443.119 401.945 443.376C402.758 443.619 403.479 443.984 404.106 444.471C404.734 444.958 405.234 445.566 405.604 446.296C405.99 447.011 406.182 447.834 406.182 448.765C406.182 449.337 406.097 449.917 405.925 450.503C405.754 451.09 405.519 451.684 405.219 452.285C404.92 452.872 404.577 453.459 404.192 454.046C403.807 454.618 403.4 455.183 402.972 455.742C402.202 456.743 401.339 457.688 400.383 458.575C399.441 459.463 398.435 460.236 397.365 460.894C396.295 461.552 395.161 462.075 393.962 462.461C392.778 462.848 391.558 463.041 390.303 463.041C389.761 463.041 389.204 462.991 388.634 462.89C388.063 462.79 387.499 462.64 386.943 462.44C386.387 462.253 385.859 462.017 385.359 461.731C384.874 461.431 384.446 461.094 384.075 460.722C383.704 460.35 383.405 459.942 383.176 459.498C382.962 459.04 382.855 458.547 382.855 458.017C382.855 457.76 382.891 457.516 382.962 457.287C383.048 457.044 383.247 456.922 383.561 456.922Z" fill="white"/>
<path d="M413.33 449.559C413.458 449 413.608 448.385 413.779 447.712C413.965 447.025 414.157 446.317 414.357 445.587C414.571 444.857 414.785 444.12 414.999 443.376C415.213 442.632 415.42 441.916 415.619 441.229C415.833 440.542 416.026 439.905 416.197 439.318C416.368 438.717 416.518 438.209 416.647 437.794C416.918 436.864 417.175 435.934 417.417 435.003C417.66 434.059 417.895 433.071 418.123 432.041C418.409 431.483 418.794 431.089 419.279 430.86C419.764 430.617 420.292 430.495 420.863 430.495C421.319 430.738 421.676 431.075 421.933 431.504C422.204 431.919 422.339 432.391 422.339 432.921C422.339 433.293 422.275 433.722 422.147 434.209C422.033 434.681 421.883 435.197 421.697 435.755C421.512 436.299 421.305 436.878 421.077 437.494C420.848 438.095 420.627 438.717 420.413 439.361C420.014 440.535 419.614 441.709 419.215 442.882C418.815 444.056 418.423 445.294 418.038 446.596C417.938 446.94 417.831 447.283 417.717 447.627C417.603 447.97 417.482 448.342 417.353 448.743C417.239 449.144 417.111 449.594 416.968 450.095C416.825 450.582 416.682 451.147 416.54 451.791C416.369 452.55 416.219 453.315 416.09 454.088C415.962 454.847 415.841 455.613 415.727 456.385C415.613 457.158 415.484 457.938 415.341 458.725C415.199 459.513 415.027 460.307 414.828 461.108C414.756 461.395 414.628 461.652 414.442 461.881C414.271 462.096 414.072 462.282 413.843 462.439C413.615 462.597 413.372 462.718 413.116 462.804C412.859 462.89 412.616 462.933 412.388 462.933C412.16 462.933 411.939 462.912 411.725 462.869C411.525 462.84 411.368 462.762 411.254 462.633C411.083 462.447 410.947 462.239 410.847 462.01C410.747 461.781 410.697 461.538 410.697 461.28C410.697 461.209 410.697 461.144 410.697 461.087C410.712 461.016 410.726 460.944 410.74 460.872L413.33 449.559Z" fill="white"/>
<path d="M425.764 450.804C426.406 448.829 427.019 446.933 427.604 445.115C428.189 443.297 428.703 441.616 429.145 440.07C429.601 438.524 429.958 437.158 430.215 435.97C430.486 434.782 430.636 433.837 430.664 433.136C430.836 432.463 431.135 431.927 431.563 431.526C432.006 431.125 432.512 430.925 433.083 430.925C433.425 430.925 433.718 431.003 433.96 431.161C434.203 431.318 434.395 431.526 434.538 431.783C434.695 432.041 434.809 432.334 434.88 432.664C434.952 432.978 434.987 433.3 434.987 433.63C434.987 433.873 434.973 434.095 434.945 434.295C434.916 434.496 434.881 434.689 434.838 434.875C434.51 436.191 434.117 437.551 433.661 438.954C433.204 440.356 432.733 441.78 432.248 443.226C431.777 444.657 431.307 446.095 430.836 447.541C430.365 448.986 429.944 450.403 429.573 451.791L429.188 453.251C428.988 453.995 428.817 454.704 428.674 455.377C428.532 456.049 428.46 456.593 428.46 457.008C428.46 457.237 428.503 457.423 428.589 457.566C428.674 457.695 428.838 457.76 429.081 457.76C429.666 457.76 430.351 457.666 431.135 457.48C431.92 457.28 432.733 457.044 433.575 456.772C434.417 456.486 435.251 456.178 436.079 455.849C436.921 455.505 437.691 455.183 438.39 454.883C438.761 454.725 439.075 454.589 439.332 454.475C439.603 454.36 439.931 454.224 440.316 454.067C440.716 453.895 441.244 453.673 441.9 453.401C442.556 453.13 443.462 452.75 444.618 452.264C444.817 452.192 444.989 452.135 445.131 452.092C445.288 452.035 445.431 452.006 445.559 452.006C445.788 452.006 445.98 452.049 446.137 452.135C446.308 452.221 446.437 452.335 446.522 452.478C446.622 452.622 446.694 452.786 446.737 452.972C446.779 453.158 446.801 453.344 446.801 453.53C446.801 453.845 446.772 454.124 446.715 454.368C446.672 454.597 446.622 454.79 446.565 454.947C446.394 455.219 446.173 455.47 445.902 455.699C445.631 455.913 445.345 456.106 445.046 456.278C444.746 456.436 444.454 456.571 444.168 456.686C443.883 456.8 443.648 456.886 443.462 456.944C443.234 457.03 442.927 457.144 442.542 457.287C442.171 457.43 441.764 457.588 441.322 457.76C440.88 457.931 440.423 458.11 439.952 458.296C439.482 458.468 439.039 458.633 438.625 458.79C438.212 458.947 437.841 459.09 437.513 459.219C437.199 459.334 436.978 459.412 436.849 459.455C436.236 459.684 435.551 459.942 434.795 460.228C434.053 460.514 433.311 460.786 432.569 461.044C431.827 461.302 431.121 461.523 430.45 461.709C429.794 461.881 429.245 461.967 428.802 461.967C428.26 461.967 427.832 461.924 427.518 461.838C427.219 461.752 426.948 461.638 426.705 461.495C426.463 461.337 426.213 461.151 425.956 460.937C425.714 460.722 425.385 460.486 424.972 460.228C424.601 459.999 424.337 459.684 424.18 459.284C424.023 458.883 423.944 458.453 423.944 457.995C423.944 457.766 423.959 457.502 423.987 457.201C424.03 456.901 424.08 456.586 424.137 456.256C424.194 455.927 424.258 455.605 424.329 455.29C424.401 454.976 424.479 454.697 424.565 454.453L425.764 450.804Z" fill="white"/>
<path d="M453.713 437.58C453.713 437.236 453.692 436.936 453.649 436.678C453.621 436.406 453.585 436.156 453.542 435.927C453.499 435.683 453.457 435.447 453.414 435.218C453.385 434.989 453.371 434.739 453.371 434.467C453.371 434.109 453.4 433.765 453.457 433.436C453.528 433.093 453.635 432.792 453.778 432.535C453.935 432.263 454.141 432.048 454.398 431.891C454.655 431.719 454.983 431.633 455.383 431.633C455.954 431.633 456.41 431.755 456.752 431.998C457.095 432.241 457.359 432.556 457.544 432.943C457.73 433.315 457.851 433.744 457.908 434.231C457.979 434.703 458.015 435.175 458.015 435.647C458.015 436.063 457.972 436.707 457.887 437.58C457.815 438.453 457.737 439.54 457.651 440.843C457.566 442.145 457.48 443.655 457.395 445.372C457.323 447.09 457.288 448.986 457.288 451.061C457.288 451.72 457.316 452.457 457.373 453.273C457.431 454.074 457.545 454.84 457.716 455.57C457.887 456.3 458.13 456.944 458.444 457.502C458.757 458.046 459.178 458.396 459.706 458.554C461.019 457.323 462.217 455.992 463.302 454.561C464.4 453.13 465.392 451.684 466.276 450.224C467.161 448.764 467.96 447.333 468.673 445.931C469.386 444.528 470.029 443.247 470.599 442.088C471.141 440.957 471.626 439.934 472.054 439.018C472.497 438.088 472.889 437.229 473.231 436.442C473.588 435.655 473.895 434.925 474.152 434.252C474.423 433.565 474.665 432.907 474.879 432.277C474.937 432.134 475.029 431.926 475.158 431.654C475.286 431.383 475.493 431.146 475.778 430.946C476.149 430.674 476.741 430.538 477.555 430.538C478.054 430.538 478.418 430.653 478.646 430.882C478.874 431.096 478.988 431.404 478.988 431.805C478.988 431.948 478.981 432.12 478.967 432.32C478.967 432.506 478.931 432.678 478.86 432.835C478.532 433.708 478.097 434.71 477.555 435.841C477.012 436.957 476.449 438.145 475.864 439.404C475.308 440.592 474.73 441.809 474.131 443.054C473.531 444.285 472.918 445.501 472.29 446.704C471.662 447.891 471.027 449.036 470.385 450.138C469.758 451.226 469.137 452.228 468.524 453.144C467.981 453.96 467.239 455.012 466.298 456.3C465.356 457.573 464.108 459.105 462.553 460.894C462.31 461.166 462.068 461.43 461.825 461.688C461.583 461.931 461.326 462.153 461.055 462.354C460.784 462.554 460.491 462.711 460.177 462.826C459.863 462.955 459.521 463.019 459.15 463.019C458.579 463.019 458.08 462.897 457.652 462.654C457.224 462.411 456.839 462.11 456.496 461.752C456.168 461.38 455.883 460.972 455.64 460.529C455.398 460.085 455.177 459.656 454.977 459.241C454.72 458.726 454.499 458.16 454.313 457.545C454.142 456.929 454 456.292 453.885 455.634C453.771 454.961 453.686 454.282 453.629 453.595C453.571 452.893 453.543 452.206 453.543 451.534C453.543 451.448 453.543 451.197 453.543 450.782C453.557 450.353 453.571 449.809 453.586 449.151C453.6 448.478 453.614 447.72 453.628 446.875C453.643 446.031 453.657 445.151 453.671 444.235C453.685 443.304 453.692 442.36 453.692 441.401C453.707 440.428 453.714 439.497 453.714 438.61L453.713 437.58Z" fill="white"/>
<path d="M497.136 462.118C496.836 462.118 496.572 462.061 496.344 461.946C496.115 461.832 495.923 461.682 495.766 461.495C495.623 461.309 495.509 461.095 495.423 460.851C495.352 460.608 495.317 460.365 495.317 460.122C495.317 459.907 495.374 459.613 495.488 459.241C495.602 458.855 495.744 458.426 495.916 457.953C496.101 457.481 496.301 456.987 496.515 456.472C496.729 455.957 496.936 455.463 497.135 454.991C497.335 454.518 497.506 454.082 497.649 453.681C497.792 453.28 497.892 452.966 497.949 452.737C498.006 452.479 498.077 452.171 498.163 451.813C498.248 451.456 498.341 451.069 498.441 450.654C498.555 450.225 498.662 449.781 498.762 449.323C498.876 448.851 498.99 448.379 499.104 447.906C498.905 447.949 498.655 447.992 498.355 448.035C498.07 448.064 497.763 448.092 497.435 448.121C496.964 448.164 496.501 448.228 496.044 448.314C495.588 448.4 495.117 448.5 494.632 448.615C494.161 448.715 493.669 448.829 493.155 448.958C492.641 449.073 492.092 449.194 491.507 449.323C490.651 449.509 489.795 449.717 488.939 449.946C488.083 450.175 487.191 450.289 486.264 450.289C485.979 450.289 485.715 450.218 485.472 450.074C485.23 449.917 484.958 449.803 484.659 449.731C484.374 450.189 484.102 450.683 483.846 451.212C483.589 451.727 483.353 452.264 483.139 452.822C482.925 453.366 482.733 453.91 482.562 454.454C482.39 454.983 482.241 455.484 482.112 455.957C482.041 456.214 481.977 456.551 481.92 456.966C481.877 457.366 481.834 457.781 481.791 458.211C481.748 458.626 481.706 459.026 481.663 459.413C481.62 459.799 481.577 460.107 481.534 460.336C481.492 460.551 481.406 460.765 481.278 460.98C481.149 461.18 480.992 461.366 480.807 461.538C480.621 461.71 480.414 461.846 480.186 461.946C479.958 462.061 479.73 462.118 479.501 462.118C479.102 462.118 478.774 462.003 478.517 461.774C478.274 461.531 478.075 461.237 477.918 460.894C477.775 460.536 477.675 460.15 477.618 459.735C477.561 459.32 477.532 458.94 477.532 458.597C477.532 457.724 477.639 456.822 477.853 455.892C478.067 454.947 478.353 453.996 478.709 453.037C479.08 452.064 479.508 451.09 479.993 450.117C480.493 449.13 481.028 448.149 481.598 447.176C482.069 446.303 482.654 445.294 483.353 444.149C484.052 443.004 484.83 441.83 485.686 440.628C486.556 439.412 487.491 438.224 488.489 437.065C489.502 435.905 490.551 434.875 491.635 433.973C492.72 433.057 493.832 432.32 494.974 431.762C496.115 431.204 497.249 430.925 498.377 430.925C499.561 430.925 500.545 431.139 501.33 431.569C502.129 431.998 502.764 432.578 503.235 433.308C503.705 434.038 504.033 434.889 504.219 435.862C504.419 436.836 504.519 437.866 504.519 438.954C504.519 439.913 504.455 440.9 504.326 441.916C504.212 442.932 504.062 443.927 503.877 444.9C503.706 445.874 503.513 446.811 503.299 447.713C503.099 448.614 502.914 449.43 502.743 450.16L501.993 453.08C501.965 453.166 501.908 453.337 501.822 453.595C501.751 453.853 501.651 454.167 501.523 454.539C501.409 454.897 501.273 455.291 501.116 455.72C500.974 456.135 500.824 456.55 500.667 456.965C500.524 457.366 500.382 457.738 500.239 458.082C500.111 458.425 499.996 458.704 499.896 458.919L499.918 458.897C499.818 459.269 499.711 459.649 499.597 460.035C499.483 460.422 499.326 460.772 499.126 461.087C498.927 461.388 498.67 461.638 498.356 461.838C498.042 462.025 497.635 462.118 497.136 462.118ZM498.227 435.24C497.585 435.24 496.943 435.376 496.301 435.648C495.673 435.906 495.053 436.249 494.439 436.678C493.826 437.108 493.226 437.609 492.641 438.181C492.071 438.754 491.521 439.34 490.994 439.942C490.48 440.543 489.995 441.151 489.538 441.766C489.082 442.367 488.668 442.926 488.297 443.441C488.24 443.527 488.161 443.641 488.061 443.784C487.976 443.913 487.883 444.063 487.783 444.235C487.698 444.393 487.612 444.564 487.526 444.75C487.441 444.922 487.369 445.08 487.312 445.223H489.517C490.316 445.223 491.229 445.165 492.256 445.051C493.283 444.937 494.296 444.801 495.295 444.643C496.308 444.486 497.235 444.328 498.077 444.171C498.919 443.999 499.554 443.87 499.982 443.785C500.039 443.598 500.089 443.348 500.131 443.033C500.189 442.718 500.239 442.368 500.281 441.981C500.324 441.595 500.353 441.187 500.367 440.758C500.395 440.314 500.41 439.863 500.41 439.405C500.41 439.033 500.395 438.611 500.367 438.138C500.339 437.652 500.253 437.194 500.11 436.764C499.968 436.335 499.746 435.977 499.447 435.691C499.161 435.391 498.755 435.24 498.227 435.24Z" fill="white"/>
</g>
<defs>
<filter id="filter0_d_112_8" x="0.900002" y="11.276" width="598.384" height="601.036" filterUnits="userSpaceOnUse" color-interpolation-filters="sRGB">
<feFlood flood-opacity="0" result="BackgroundImageFix"/>
<feColorMatrix in="SourceAlpha" type="matrix" values="0 0 0 0 0 0 0 0 0 0 0 0 0 0 0 0 0 0 127 0" result="hardAlpha"/>
<feMorphology radius="13" operator="dilate" in="SourceAlpha" result="effect1_dropShadow_112_8"/>
<feOffset/>
<feGaussianBlur stdDeviation="19.05"/>
<feComposite in2="hardAlpha" operator="out"/>
<feColorMatrix type="matrix" values="0 0 0 0 0 0 0 0 0 0 0 0 0 0 0 0 0 0 0.25 0"/>
<feBlend mode="normal" in2="BackgroundImageFix" result="effect1_dropShadow_112_8"/>
<feBlend mode="normal" in="SourceGraphic" in2="effect1_dropShadow_112_8" result="shape"/>
</filter>
<filter id="filter1_d_112_8" x="24.7164" y="0.900002" width="598.384" height="601.036" filterUnits="userSpaceOnUse" color-interpolation-filters="sRGB">
<feFlood flood-opacity="0" result="BackgroundImageFix"/>
<feColorMatrix in="SourceAlpha" type="matrix" values="0 0 0 0 0 0 0 0 0 0 0 0 0 0 0 0 0 0 127 0" result="hardAlpha"/>
<feMorphology radius="13" operator="dilate" in="SourceAlpha" result="effect1_dropShadow_112_8"/>
<feOffset/>
<feGaussianBlur stdDeviation="19.05"/>
<feComposite in2="hardAlpha" operator="out"/>
<feColorMatrix type="matrix" values="0 0 0 0 0 0 0 0 0 0 0 0 0 0 0 0 0 0 0.25 0"/>
<feBlend mode="normal" in2="BackgroundImageFix" result="effect1_dropShadow_112_8"/>
<feBlend mode="normal" in="SourceGraphic" in2="effect1_dropShadow_112_8" result="shape"/>
</filter>
<linearGradient id="paint0_linear_112_8" x1="192.638" y1="394.827" x2="310.899" y2="579.995" gradientUnits="userSpaceOnUse">
<stop stop-color="#FFFFC0"/>
<stop offset="1" stop-color="#221737" stop-opacity="0.752941"/>
</linearGradient>
<clipPath id="clip0_112_8">
<rect width="368.366" height="336.016" fill="white" transform="translate(136.152 127.025)"/>
</clipPath>
</defs>
</svg>
