<svg width="135" height="135" viewBox="0 0 135 135" fill="none" xmlns="http://www.w3.org/2000/svg">
<path d="M43.2693 115.312V106.875H63.2812V87.5983C58.5072 86.6391 54.2885 84.6307 50.625 81.573C46.9615 78.5153 44.3581 74.704 42.8148 70.1391C36.3245 69.3675 30.8474 66.6127 26.3835 61.8747C21.9195 57.1368 19.6875 51.5118 19.6875 44.9999V39.3749C19.6875 37.0744 20.5186 35.0931 22.1809 33.4309C23.8431 31.7686 25.8244 30.9375 28.1249 30.9375H41.214V19.6875H93.7858V30.9375H106.875C109.175 30.9375 111.157 31.7686 112.819 33.4309C114.481 35.0931 115.312 37.0744 115.312 39.3749V44.9999C115.312 51.5118 113.08 57.1368 108.616 61.8747C104.152 66.6127 98.6752 69.3675 92.1849 70.1391C90.6416 74.704 88.0382 78.5153 84.3747 81.573C80.7113 84.6307 76.4925 86.6391 71.7185 87.5983V106.875H91.7304V115.312H43.2693ZM41.214 61.0744V39.3749H28.1249V44.9999C28.1249 48.9229 29.3544 52.3682 31.8136 55.3358C34.2727 58.3034 37.4062 60.2162 41.214 61.0744ZM93.7858 61.0744C97.5935 60.2162 100.727 58.3034 103.186 55.3358C105.645 52.3682 106.875 48.9229 106.875 44.9999V39.3749H93.7858V61.0744Z" fill="white"/>
</svg>
