<svg width="45" height="45" viewBox="0 0 45 45" fill="none" xmlns="http://www.w3.org/2000/svg">
<path d="M22.5 29.2067L15.8654 22.5721L17.1923 21.2235L21.5625 25.5938V9.375H23.4375V25.5938L27.8077 21.2235L29.1346 22.5721L22.5 29.2067ZM12.4038 35.625C11.5409 35.625 10.8203 35.3359 10.2422 34.7578C9.66406 34.1797 9.375 33.4591 9.375 32.5962V28.0529H11.25V32.5962C11.25 32.8846 11.3702 33.149 11.6106 33.3894C11.851 33.6298 12.1154 33.75 12.4038 33.75H32.5962C32.8846 33.75 33.149 33.6298 33.3894 33.3894C33.6298 33.149 33.75 32.8846 33.75 32.5962V28.0529H35.625V32.5962C35.625 33.4591 35.3359 34.1797 34.7578 34.7578C34.1797 35.3359 33.4591 35.625 32.5962 35.625H12.4038Z" fill="#FFFFC0"/>
</svg>
