<svg width="35" height="35" viewBox="0 0 35 35" fill="none" xmlns="http://www.w3.org/2000/svg">
<g clip-path="url(#clip0_176_236)">
<path d="M7.73975 29.8961C7.00309 29.8961 6.37956 29.6409 5.86914 29.1305C5.35872 28.62 5.10352 27.9965 5.10352 27.2599V7.74072C5.10352 7.00407 5.35872 6.38053 5.86914 5.87012C6.37956 5.3597 7.00309 5.10449 7.73975 5.10449H17.5134V7.29196H7.73975C7.62755 7.29196 7.5247 7.3387 7.4312 7.43218C7.33772 7.52568 7.29098 7.62853 7.29098 7.74072V27.2599C7.29098 27.3721 7.33772 27.4749 7.4312 27.5684C7.5247 27.6619 7.62755 27.7086 7.73975 27.7086H17.5134V29.8961H7.73975ZM23.6692 23.7262L22.1548 22.1445L25.7053 18.594H13.2645V16.4066H25.7053L22.1548 12.8561L23.6692 11.2744L29.8951 17.5003L23.6692 23.7262Z" fill="#FFFFC0"/>
<path d="M8.18974 29.1663C7.51854 29.1663 6.95812 28.9415 6.50846 28.4919C6.05881 28.0422 5.83398 27.4818 5.83398 26.8106V8.18876C5.83398 7.51756 6.05881 6.95714 6.50846 6.50749C6.95812 6.05783 7.51854 5.83301 8.18974 5.83301H17.5287V7.29134H8.18974C7.9654 7.29134 7.75974 7.38482 7.57276 7.57178C7.3858 7.75876 7.29232 7.96442 7.29232 8.18876V26.8106C7.29232 27.0349 7.3858 27.2406 7.57276 27.4276C7.75974 27.6145 7.9654 27.708 8.18974 27.708H17.5287V29.1663H8.18974ZM24.007 22.66L22.9834 21.611L26.3656 18.2288H13.4061V16.7705H26.3656L22.9834 13.3883L24.007 12.3394L29.1673 17.4997L24.007 22.66Z" fill="#FFFFC0"/>
</g>
<defs>
<clipPath id="clip0_176_236">
<rect width="35" height="35" fill="white"/>
</clipPath>
</defs>
</svg>
