<svg width="48" height="48" viewBox="0 0 48 48" fill="none" xmlns="http://www.w3.org/2000/svg">
<path d="M0 24C0 10.7452 10.7452 0 24 0C37.2548 0 48 10.7452 48 24C48 37.2548 37.2548 48 24 48C10.7452 48 0 37.2548 0 24Z" fill="white"/>
<mask id="mask0_480_268" style="mask-type:luminance" maskUnits="userSpaceOnUse" x="0" y="0" width="48" height="48">
<path fill-rule="evenodd" clip-rule="evenodd" d="M0 24C0 10.7452 10.7452 0 24 0C37.2548 0 48 10.7452 48 24C48 37.2548 37.2548 48 24 48C10.7452 48 0 37.2548 0 24Z" fill="white"/>
</mask>
<g mask="url(#mask0_480_268)">
<path fill-rule="evenodd" clip-rule="evenodd" d="M24.0014 11.2002C20.5251 11.2002 20.0888 11.2154 18.7235 11.2775C17.3608 11.3399 16.4306 11.5557 15.6168 11.8722C14.7749 12.1991 14.0608 12.6365 13.3493 13.3482C12.6373 14.0597 12.1999 14.7738 11.8719 15.6154C11.5546 16.4296 11.3386 17.36 11.2773 18.7221C11.2162 20.0875 11.2002 20.524 11.2002 24.0003C11.2002 27.4766 11.2157 27.9116 11.2775 29.2769C11.3402 30.6396 11.5559 31.5697 11.8722 32.3836C12.1994 33.2255 12.6367 33.9396 13.3485 34.6511C14.0597 35.3631 14.7738 35.8015 15.6152 36.1285C16.4296 36.445 17.36 36.6607 18.7224 36.7231C20.0878 36.7853 20.5238 36.8005 23.9998 36.8005C27.4764 36.8005 27.9113 36.7853 29.2766 36.7231C30.6393 36.6607 31.5705 36.445 32.3849 36.1285C33.2266 35.8015 33.9396 35.3631 34.6508 34.6511C35.3628 33.9396 35.8002 33.2255 36.1282 32.3839C36.4429 31.5697 36.6589 30.6393 36.7229 29.2772C36.7842 27.9118 36.8002 27.4766 36.8002 24.0003C36.8002 20.524 36.7842 20.0878 36.7229 18.7224C36.6589 17.3597 36.4429 16.4296 36.1282 15.6157C35.8002 14.7738 35.3628 14.0597 34.6508 13.3482C33.9388 12.6362 33.2268 12.1989 32.3841 11.8722C31.5681 11.5557 30.6375 11.3399 29.2748 11.2775C27.9094 11.2154 27.4748 11.2002 23.9974 11.2002H24.0014ZM23.5745 13.5068H23.5748L24.0014 13.5069C27.419 13.5069 27.8241 13.5192 29.1737 13.5805C30.4217 13.6376 31.0991 13.8461 31.5503 14.0213C32.1476 14.2533 32.5735 14.5306 33.0212 14.9786C33.4692 15.4266 33.7466 15.8533 33.9791 16.4507C34.1543 16.9013 34.3631 17.5787 34.4199 18.8267C34.4812 20.176 34.4946 20.5814 34.4946 23.9974C34.4946 27.4134 34.4812 27.8188 34.4199 29.1681C34.3628 30.4161 34.1543 31.0935 33.9791 31.5441C33.7471 32.1415 33.4692 32.5668 33.0212 33.0146C32.5732 33.4626 32.1479 33.7399 31.5503 33.9719C31.0996 34.1479 30.4217 34.3559 29.1737 34.413C27.8244 34.4743 27.419 34.4876 24.0014 34.4876C20.5835 34.4876 20.1784 34.4743 18.8291 34.413C17.5811 34.3554 16.9037 34.1468 16.4523 33.9716C15.8549 33.7396 15.4282 33.4623 14.9802 33.0143C14.5322 32.5663 14.2549 32.1407 14.0224 31.5431C13.8472 31.0924 13.6384 30.4151 13.5816 29.167C13.5202 27.8177 13.508 27.4124 13.508 23.9942C13.508 20.576 13.5202 20.1728 13.5816 18.8235C13.6386 17.5755 13.8472 16.8981 14.0224 16.4469C14.2544 15.8496 14.5322 15.4229 14.9802 14.9749C15.4282 14.5269 15.8549 14.2496 16.4523 14.017C16.9035 13.841 17.5811 13.633 18.8291 13.5757C20.0099 13.5224 20.4675 13.5064 22.8531 13.5037V13.5069C23.076 13.5065 23.3158 13.5066 23.5745 13.5068ZM29.298 17.1677C29.298 16.3194 29.986 15.6322 30.834 15.6322V15.6317C31.682 15.6317 32.37 16.3197 32.37 17.1677C32.37 18.0157 31.682 18.7037 30.834 18.7037C29.986 18.7037 29.298 18.0157 29.298 17.1677ZM24.0011 17.4269C20.3711 17.4271 17.428 20.3702 17.428 24.0003C17.428 27.6305 20.3712 30.5724 24.0014 30.5724C27.6316 30.5724 30.5737 27.6305 30.5737 24.0003C30.5737 20.3702 27.6313 17.4269 24.0011 17.4269ZM28.2681 24.0003C28.2681 21.6438 26.3577 19.7336 24.0014 19.7336C21.6448 19.7336 19.7347 21.6438 19.7347 24.0003C19.7347 26.3566 21.6448 28.267 24.0014 28.267C26.3577 28.267 28.2681 26.3566 28.2681 24.0003Z" fill="black"/>
</g>
</svg>
