<svg width="45" height="45" viewBox="0 0 45 45" fill="none" xmlns="http://www.w3.org/2000/svg">
<path d="M20.5312 33.0361L15.1731 27.678L16.5217 26.3294L20.5312 30.339L28.4783 22.3919L29.8269 23.7405L20.5312 33.0361ZM10.5288 39.3751C9.66586 39.3751 8.94531 39.086 8.36719 38.5079C7.78906 37.9298 7.5 37.2092 7.5 36.3463V12.4039C7.5 11.5409 7.78906 10.8204 8.36719 10.2423C8.94531 9.66415 9.66586 9.37509 10.5288 9.37509H13.8461V5.19238H15.8654V9.37509H29.2788V5.19238H31.1539V9.37509H34.4712C35.3341 9.37509 36.0547 9.66415 36.6328 10.2423C37.2109 10.8204 37.5 11.5409 37.5 12.4039V36.3463C37.5 37.2092 37.2109 37.9298 36.6328 38.5079C36.0547 39.086 35.3341 39.3751 34.4712 39.3751H10.5288ZM10.5288 37.5001H34.4712C34.7596 37.5001 35.024 37.3799 35.2644 37.1395C35.5048 36.8991 35.625 36.6347 35.625 36.3463V19.9039H9.375V36.3463C9.375 36.6347 9.49519 36.8991 9.73556 37.1395C9.97597 37.3799 10.2404 37.5001 10.5288 37.5001ZM9.375 18.0289H35.625V12.4039C35.625 12.1155 35.5048 11.8511 35.2644 11.6107C35.024 11.3703 34.7596 11.2501 34.4712 11.2501H10.5288C10.2404 11.2501 9.97597 11.3703 9.73556 11.6107C9.49519 11.8511 9.375 12.1155 9.375 12.4039V18.0289Z" fill="#FFFFC0"/>
</svg>
