<svg width="135" height="135" viewBox="0 0 135 135" fill="none" xmlns="http://www.w3.org/2000/svg">
<path d="M38.4015 96.5983L77.2353 77.2353L96.5983 38.4015L57.7644 57.7644L38.4015 96.5983ZM67.4999 73.1249C65.9061 73.1249 64.5702 72.5858 63.4921 71.5077C62.4139 70.4296 61.8749 69.0936 61.8749 67.4999C61.8749 65.9061 62.4139 64.5702 63.4921 63.4921C64.5702 62.4139 65.9061 61.8749 67.4999 61.8749C69.0936 61.8749 70.4296 62.4139 71.5077 63.4921C72.5858 64.5702 73.1249 65.9061 73.1249 67.4999C73.1249 69.0936 72.5858 70.4296 71.5077 71.5077C70.4296 72.5858 69.0936 73.1249 67.4999 73.1249ZM67.5093 120.937C60.1184 120.937 53.1713 119.535 46.6681 116.73C40.1648 113.925 34.5078 110.118 29.6972 105.31C24.8865 100.501 21.078 94.8466 18.2718 88.3461C15.4656 81.8458 14.0625 74.9002 14.0625 67.5093C14.0625 60.1184 15.465 53.1713 18.27 46.6681C21.075 40.1648 24.8817 34.5078 29.6902 29.6972C34.4987 24.8865 40.1532 21.0781 46.6536 18.2718C53.154 15.4656 60.0996 14.0625 67.4904 14.0625C74.8813 14.0625 81.8284 15.465 88.3316 18.27C94.835 21.075 100.492 24.8817 105.303 29.6902C110.113 34.4987 113.922 40.1532 116.728 46.6536C119.534 53.154 120.937 60.0996 120.937 67.4904C120.937 74.8813 119.535 81.8284 116.73 88.3316C113.925 94.835 110.118 100.492 105.31 105.303C100.501 110.113 94.8466 113.922 88.3461 116.728C81.8458 119.534 74.9002 120.937 67.5093 120.937Z" fill="white"/>
</svg>
