<svg width="45" height="45" viewBox="0 0 45 45" fill="none" xmlns="http://www.w3.org/2000/svg">
<path d="M22.5 21.3462C20.9531 21.3462 19.6289 20.7955 18.5273 19.6939C17.4258 18.5923 16.875 17.2681 16.875 15.7212C16.875 14.1743 17.4258 12.8501 18.5273 11.7485C19.6289 10.647 20.9531 10.0962 22.5 10.0962C24.0469 10.0962 25.3711 10.647 26.4727 11.7485C27.5742 12.8501 28.125 14.1743 28.125 15.7212C28.125 17.2681 27.5742 18.5923 26.4727 19.6939C25.3711 20.7955 24.0469 21.3462 22.5 21.3462ZM9.375 34.9039V31.8174C9.375 31.0433 9.60036 30.3192 10.0511 29.6449C10.5018 28.9706 11.1082 28.4472 11.8702 28.0746C13.6394 27.226 15.4098 26.5896 17.1815 26.1653C18.9531 25.741 20.726 25.5289 22.5 25.5289C24.274 25.5289 26.0469 25.741 27.8185 26.1653C29.5902 26.5896 31.3606 27.226 33.1298 28.0746C33.8918 28.4472 34.4982 28.9706 34.9489 29.6449C35.3996 30.3192 35.625 31.0433 35.625 31.8174V34.9039H9.375ZM11.25 33.0289H33.75V31.8174C33.75 31.4015 33.616 31.0109 33.348 30.6455C33.0799 30.2801 32.7091 29.9712 32.2356 29.7188C30.6923 28.9712 29.1011 28.3985 27.462 28.0007C25.8229 27.6028 24.1689 27.4039 22.5 27.4039C20.8311 27.4039 19.1771 27.6028 17.538 28.0007C15.8989 28.3985 14.3077 28.9712 12.7644 29.7188C12.2909 29.9712 11.9201 30.2801 11.652 30.6455C11.384 31.0109 11.25 31.4015 11.25 31.8174V33.0289ZM22.5 19.4712C23.5312 19.4712 24.4141 19.1041 25.1484 18.3697C25.8828 17.6353 26.25 16.7525 26.25 15.7212C26.25 14.69 25.8828 13.8072 25.1484 13.0728C24.4141 12.3384 23.5312 11.9712 22.5 11.9712C21.4688 11.9712 20.5859 12.3384 19.8516 13.0728C19.1172 13.8072 18.75 14.69 18.75 15.7212C18.75 16.7525 19.1172 17.6353 19.8516 18.3697C20.5859 19.1041 21.4688 19.4712 22.5 19.4712Z" fill="#FFFFC0"/>
</svg>
