<svg width="215" height="60" viewBox="0 0 215 60" fill="none" xmlns="http://www.w3.org/2000/svg">
<path d="M65.0088 18.488H64.9608C64.9288 18.648 64.7688 19.288 64.4808 20.408C64.2088 21.528 64.0328 22.264 63.9528 22.616C63.8728 22.952 63.8008 23.224 63.7368 23.432C63.6888 23.64 63.6328 23.88 63.5688 24.152C63.5048 24.408 63.4408 24.616 63.3768 24.776C63.3288 24.92 63.2808 25.064 63.2328 25.208C63.1368 25.48 63.0408 25.616 62.9448 25.616C62.7368 25.616 62.4648 25.392 62.1288 24.944C61.7928 24.48 61.6248 24.104 61.6248 23.816C61.6248 23.528 62.0808 21.528 62.9928 17.816C63.9208 14.104 64.4008 11.632 64.4328 10.4C64.4328 10.16 64.4888 9.968 64.6008 9.824C64.7608 9.488 65.2328 9.248 66.0168 9.104C66.8168 8.96 67.9768 8.888 69.4968 8.888C71.0328 8.888 72.2328 8.968 73.0968 9.128C73.9768 9.288 74.4168 9.512 74.4168 9.8C74.4168 9.992 74.2808 10.128 74.0088 10.208C73.7368 10.288 73.4968 10.352 73.2888 10.4C73.0808 10.432 72.8088 10.472 72.4728 10.52C72.1368 10.552 71.8248 10.584 71.5368 10.616C71.2488 10.632 70.8728 10.664 70.4088 10.712C69.9608 10.76 69.5448 10.808 69.1608 10.856C68.7768 10.888 68.2568 10.944 67.6008 11.024C66.9448 11.104 66.5208 11.152 66.3288 11.168C66.3448 11.216 66.3528 11.288 66.3528 11.384C66.3528 12.136 66.0408 13.864 65.4168 16.568C66.4088 16.616 67.4728 16.592 68.6088 16.496C69.7608 16.4 70.4648 16.352 70.7208 16.352C71.3288 16.352 71.6328 16.48 71.6328 16.736C71.6328 17.232 70.9368 17.648 69.5448 17.984C68.1688 18.32 66.6568 18.488 65.0088 18.488ZM79.2993 7.184C79.1393 7.184 78.9953 7.12 78.8673 6.992C78.7393 6.864 78.6753 6.696 78.6753 6.488C78.6753 6.264 78.7713 6.032 78.9633 5.792C79.1713 5.536 79.5713 5.104 80.1633 4.496C80.5473 4.144 80.8673 3.84 81.1233 3.584C81.3953 3.312 81.6033 3.12 81.7473 3.008C82.0193 2.768 82.2593 2.648 82.4673 2.648C82.6913 2.648 82.9073 2.8 83.1153 3.104C83.3393 3.408 83.4513 3.672 83.4513 3.896C83.4513 4.104 83.4273 4.264 83.3793 4.376C83.3473 4.472 83.2993 4.56 83.2353 4.64C83.1713 4.704 83.0593 4.8 82.8993 4.928C82.7553 5.04 82.6193 5.136 82.4913 5.216C82.3633 5.296 82.1633 5.424 81.8913 5.6C81.6193 5.76 81.3873 5.904 81.1953 6.032C81.0193 6.16 80.8273 6.304 80.6193 6.464C80.4113 6.624 80.2593 6.736 80.1633 6.8C80.0673 6.864 79.9633 6.928 79.8513 6.992C79.6433 7.12 79.4593 7.184 79.2993 7.184ZM75.6993 25.544C75.5073 25.544 75.2513 25.352 74.9313 24.968C74.6273 24.584 74.4753 24.232 74.4753 23.912C74.4753 23.592 74.9473 21.36 75.8913 17.216C76.8513 13.056 77.3393 10.48 77.3553 9.488C77.3553 9.216 77.3873 9.032 77.4513 8.936C77.5313 8.824 77.6833 8.768 77.9073 8.768C78.1473 8.768 78.4513 9.016 78.8193 9.512C79.2033 10.008 79.3953 10.544 79.3953 11.12C79.3953 11.68 78.8193 14.304 77.6673 18.992C77.5553 19.424 77.4033 20.048 77.2113 20.864C77.0193 21.664 76.8673 22.28 76.7553 22.712C76.6433 23.144 76.5233 23.616 76.3953 24.128C76.1233 25.072 75.8913 25.544 75.6993 25.544ZM91.5049 20.864C91.5049 22.176 90.9129 23.28 89.7289 24.176C88.5449 25.056 87.1849 25.496 85.6489 25.496C84.1289 25.496 82.8729 25.104 81.8809 24.32C80.8889 23.52 80.3929 22.768 80.3929 22.064C80.3929 21.584 80.5369 21.344 80.8249 21.344C81.0809 21.344 81.5849 21.728 82.3369 22.496C82.6249 22.768 83.0089 23.024 83.4889 23.264C83.9849 23.504 84.5049 23.624 85.0489 23.624C86.1689 23.624 87.1609 23.336 88.0249 22.76C88.9049 22.184 89.3449 21.56 89.3449 20.888C89.3449 20.456 89.0569 19.904 88.4809 19.232C87.9049 18.56 87.2649 17.928 86.5609 17.336C85.8729 16.728 85.2409 16.08 84.6649 15.392C84.0889 14.704 83.8009 14.16 83.8009 13.76C83.8009 13.36 83.8809 12.936 84.0409 12.488C84.2009 12.04 84.3769 11.712 84.5689 11.504C85.1929 10.816 86.1609 10.184 87.4729 9.608C88.8009 9.032 89.9129 8.744 90.8089 8.744C91.2729 8.744 91.6649 8.896 91.985 9.2C92.3049 9.504 92.4649 9.824 92.4649 10.16C92.4649 10.32 92.2969 10.448 91.9609 10.544C91.6249 10.64 91.1129 10.768 90.4249 10.928C89.7529 11.072 89.1529 11.248 88.6249 11.456C86.7849 12.16 85.8649 12.84 85.8649 13.496C85.8649 13.848 86.8009 14.832 88.6729 16.448C89.3929 17.072 90.0409 17.8 90.6169 18.632C91.2089 19.448 91.5049 20.192 91.5049 20.864ZM95.8789 25.544C95.6869 25.544 95.4309 25.352 95.1109 24.968C94.8069 24.584 94.6549 24.232 94.6549 23.912C94.6549 23.592 95.1269 21.36 96.0709 17.216C97.0309 13.056 97.5189 10.48 97.5349 9.488C97.5349 9.216 97.5669 9.032 97.6309 8.936C97.7109 8.824 97.8629 8.768 98.0869 8.768C98.3269 8.768 98.6309 9.016 98.9989 9.512C99.3829 10.008 99.5749 10.544 99.5749 11.12C99.5749 11.68 98.9989 14.304 97.8469 18.992C97.7349 19.424 97.5829 20.048 97.3909 20.864C97.1989 21.664 97.0469 22.28 96.9349 22.712C96.8229 23.144 96.7029 23.616 96.5749 24.128C96.3029 25.072 96.0709 25.544 95.8789 25.544ZM111.733 8.768C112.149 8.768 112.573 9.032 113.005 9.56C113.453 10.088 113.677 10.528 113.677 10.88C113.677 11.216 113.613 11.384 113.485 11.384C113.373 11.384 113.149 11.328 112.813 11.216C112.477 11.088 112.173 11.024 111.901 11.024C111.277 11.024 110.517 11.344 109.621 11.984C108.741 12.624 107.901 13.416 107.101 14.36C106.317 15.304 105.645 16.384 105.085 17.6C104.525 18.8 104.245 19.84 104.245 20.72C104.245 21.6 104.469 22.248 104.917 22.664C105.381 23.064 105.981 23.264 106.717 23.264C107.453 23.264 108.213 23.16 108.997 22.952C109.781 22.728 110.421 22.48 110.917 22.208C112.197 21.52 112.901 21.176 113.029 21.176C113.301 21.176 113.437 21.36 113.437 21.728C113.437 22.08 113.069 22.56 112.333 23.168C111.597 23.76 110.685 24.296 109.597 24.776C108.509 25.256 107.533 25.496 106.669 25.496C105.549 25.496 104.493 25.016 103.501 24.056C102.509 23.08 102.013 22.008 102.013 20.84C102.013 19.336 102.501 17.64 103.477 15.752C104.469 13.848 105.733 12.208 107.269 10.832C108.821 9.456 110.309 8.768 111.733 8.768ZM128.356 17.288C128.356 17.592 127.652 17.944 126.244 18.344C126.372 20.008 126.436 21.424 126.436 22.592C126.436 24.608 126.18 25.616 125.668 25.616C125.396 25.616 125.18 25.448 125.02 25.112C124.86 24.776 124.732 24.192 124.636 23.36C124.524 21.824 124.404 20.32 124.276 18.848C123.556 19.04 122.9 19.216 122.308 19.376C121.716 19.52 120.82 19.76 119.62 20.096C118.212 23.776 117.38 25.616 117.124 25.616C116.868 25.616 116.588 25.464 116.284 25.16C115.996 24.84 115.852 24.504 115.852 24.152C115.852 23.992 116.308 22.856 117.22 20.744H117.052C116.732 20.744 116.444 20.64 116.188 20.432C115.948 20.224 115.828 19.968 115.828 19.664C115.828 19.344 116.62 18.928 118.204 18.416C118.46 17.84 118.668 17.32 118.828 16.856C119.196 15.944 119.708 14.696 120.364 13.112C121.02 11.528 121.436 10.52 121.612 10.088C121.788 9.64 122.092 9.264 122.524 8.96C122.972 8.64 123.404 8.48 123.82 8.48C124.316 8.48 124.756 9.272 125.14 10.856C125.54 12.44 125.86 14.4 126.1 16.736C126.548 16.688 126.94 16.664 127.276 16.664C127.996 16.664 128.356 16.872 128.356 17.288ZM120.508 17.792C121.644 17.488 122.844 17.232 124.108 17.024C123.82 14.288 123.54 12.232 123.268 10.856C122.548 12.504 121.628 14.816 120.508 17.792ZM142.894 25.7C142.121 25.7 141.394 25.4 140.714 24.8C140.034 24.1867 139.694 23.4667 139.694 22.64C139.694 21.8 139.974 20.8333 140.534 19.74C141.094 18.6467 141.814 17.7133 142.694 16.94C143.588 16.1667 144.454 15.78 145.294 15.78C145.841 15.78 146.321 16.0267 146.734 16.52C147.148 17.0133 147.354 17.4467 147.354 17.82C147.354 17.9267 147.321 18.02 147.254 18.1C147.188 18.1667 147.088 18.2 146.954 18.2C146.834 18.2 146.614 18.08 146.294 17.84C145.974 17.6 145.688 17.48 145.434 17.48C144.714 17.48 143.874 18.1133 142.914 19.38C141.954 20.6467 141.474 21.7533 141.474 22.7C141.474 23.1133 141.601 23.44 141.854 23.68C142.121 23.92 142.541 24.04 143.114 24.04C143.701 24.04 144.234 23.9733 144.714 23.84C145.208 23.6933 145.588 23.5533 145.854 23.42C146.121 23.2733 146.328 23.2 146.474 23.2C146.728 23.2 146.854 23.3267 146.854 23.58C146.854 23.9667 146.388 24.42 145.454 24.94C144.534 25.4467 143.681 25.7 142.894 25.7ZM154.62 19.18C154.62 18.7267 154.547 18.3 154.4 17.9C154.254 17.4867 154.04 17.1867 153.76 17C152.84 17.2533 152.047 17.9667 151.38 19.14C150.727 20.3 150.4 21.3933 150.4 22.42C150.4 23.4467 150.654 24.0867 151.16 24.34C152.12 24.1533 152.934 23.5 153.6 22.38C154.28 21.2467 154.62 20.18 154.62 19.18ZM149.36 19.36C149.827 18.32 150.434 17.4667 151.18 16.8C151.94 16.12 152.714 15.78 153.5 15.78C154.3 15.78 154.967 16.12 155.5 16.8C156.034 17.4667 156.3 18.2867 156.3 19.26C156.3 20.22 156.067 21.2067 155.6 22.22C155.134 23.22 154.487 24.0533 153.66 24.72C152.847 25.3733 151.98 25.7 151.06 25.7C150.38 25.7 149.814 25.3867 149.36 24.76C148.907 24.1333 148.68 23.34 148.68 22.38C148.68 21.4067 148.907 20.4 149.36 19.36ZM170.583 15.78C170.983 15.78 171.336 16.06 171.643 16.62C171.963 17.1667 172.123 17.7933 172.123 18.5C172.123 19.1933 171.996 20.1 171.743 21.22C171.503 22.34 171.176 23.3667 170.763 24.3C170.35 25.2333 169.943 25.7 169.543 25.7C169.263 25.7 169.123 25.52 169.123 25.16C169.123 24.7867 169.35 23.8867 169.803 22.46C170.27 21.02 170.503 19.88 170.503 19.04C170.503 18.1867 170.37 17.76 170.103 17.76C169.77 17.76 169.383 18.0533 168.943 18.64C168.516 19.2267 168.056 19.9333 167.563 20.76C167.07 21.5867 166.803 22.0333 166.763 22.1C166.723 22.1533 166.67 22.2333 166.603 22.34C166.55 22.4467 166.483 22.56 166.403 22.68C166.336 22.8 166.15 23.16 165.843 23.76C165.55 24.36 165.29 24.8333 165.063 25.18C164.836 25.5133 164.636 25.68 164.463 25.68C164.303 25.68 164.123 25.5733 163.923 25.36C163.723 25.1467 163.623 24.9467 163.623 24.76C163.623 24.5733 163.743 24.1867 163.983 23.6C164.676 21.8667 165.023 20.2533 165.023 18.76C165.023 18.48 164.963 18.2467 164.843 18.06C164.723 17.86 164.59 17.76 164.443 17.76C164.296 17.76 164.143 17.8267 163.983 17.96C163.823 18.08 163.623 18.3067 163.383 18.64C163.143 18.96 162.93 19.2667 162.743 19.56C162.556 19.8533 162.27 20.3133 161.883 20.94C161.51 21.5533 161.223 22.0133 161.023 22.32C160.836 22.6133 160.616 22.96 160.363 23.36C160.11 23.7467 159.91 24.0467 159.763 24.26C159.63 24.4733 159.476 24.7067 159.303 24.96C158.943 25.4533 158.676 25.7 158.503 25.7C158.343 25.7 158.13 25.5533 157.863 25.26C157.596 24.9533 157.463 24.7267 157.463 24.58C157.463 24.42 157.49 24.2267 157.543 24C157.596 23.7733 157.65 23.5533 157.703 23.34C157.77 23.1267 157.863 22.8133 157.983 22.4C158.116 21.9733 158.263 21.48 158.423 20.92C158.596 20.3467 158.723 19.5667 158.803 18.58C158.896 17.58 158.963 16.8533 159.003 16.4C159.043 15.9333 159.156 15.7 159.343 15.7C159.636 15.7 159.923 15.8533 160.203 16.16C160.496 16.4667 160.643 16.7733 160.643 17.08C160.643 18.2533 160.203 20.1867 159.323 22.88C160.816 20.08 161.756 18.42 162.143 17.9C162.53 17.38 162.863 16.96 163.143 16.64C163.663 16.0667 164.19 15.78 164.723 15.78C165.043 15.78 165.423 16.06 165.863 16.62C166.316 17.1667 166.543 17.72 166.543 18.28C166.543 18.84 166.463 19.5333 166.303 20.36C167.876 17.3067 169.303 15.78 170.583 15.78Z" fill="#FFFFC0"/>
<path d="M67.0968 37.832L62.9928 38.024C62.7368 38.024 62.4728 37.856 62.2008 37.52C61.9288 37.184 61.7928 36.856 61.7928 36.536C61.7928 36.248 62.2488 36.064 63.1608 35.984C64.0888 35.904 66.1128 35.864 69.2328 35.864C70.8488 35.864 72.1768 36.04 73.2168 36.392C74.2728 36.744 74.8008 37.136 74.8008 37.568C74.8008 37.872 74.5368 38.024 74.0088 38.024C73.4808 38.024 72.7448 37.992 71.8008 37.928C70.8568 37.864 69.9528 37.824 69.0888 37.808C69.1368 37.968 69.1608 38.144 69.1608 38.336C69.1608 38.928 68.5368 41.68 67.2888 46.592C67.1608 47.104 66.9688 47.904 66.7128 48.992C66.4568 50.08 66.2648 50.84 66.1368 51.272C65.9128 52.12 65.7128 52.544 65.5368 52.544C65.2968 52.544 65.0248 52.368 64.7208 52.016C64.4328 51.648 64.2888 51.28 64.2888 50.912C64.2888 50.544 64.7208 48.656 65.5848 45.248C66.4488 41.824 66.9528 39.352 67.0968 37.832ZM76.0045 52.592C75.8125 52.592 75.5485 52.384 75.2125 51.968C74.8765 51.536 74.7085 51.128 74.7085 50.744C74.7085 50.36 75.0605 48.792 75.7645 46.04C75.5565 45.96 75.3725 45.824 75.2125 45.632C75.0685 45.424 74.9965 45.192 74.9965 44.936C74.9965 44.728 75.4125 44.496 76.2445 44.24C77.3165 40.048 77.8525 37.448 77.8525 36.44C77.8525 36.168 77.8845 35.984 77.9485 35.888C78.0285 35.776 78.1725 35.72 78.3805 35.72C78.6045 35.72 78.8925 35.968 79.2445 36.464C79.6125 36.96 79.7965 37.52 79.7965 38.144C79.7965 38.752 79.4045 40.6 78.6205 43.688C80.7325 43.256 82.8045 42.976 84.8365 42.848C85.6525 39.52 86.0605 37.384 86.0605 36.44C86.0605 35.96 86.2205 35.72 86.5405 35.72C86.8125 35.72 87.1325 35.968 87.5005 36.464C87.8685 36.96 88.0525 37.48 88.0525 38.024C88.0525 38.552 87.6925 40.176 86.9725 42.896C87.7085 43.008 88.0765 43.232 88.0765 43.568C88.0765 43.888 87.5805 44.152 86.5885 44.36C86.0765 46.248 85.7245 47.56 85.5325 48.296C85.3565 49.016 85.2125 49.592 85.1005 50.024C84.9885 50.456 84.8685 50.888 84.7405 51.32C84.5165 52.168 84.3165 52.592 84.1405 52.592C83.9165 52.592 83.6525 52.408 83.3485 52.04C83.0605 51.656 82.9165 51.264 82.9165 50.864C82.9165 50.464 83.3965 48.408 84.3565 44.696C82.0205 45.016 79.9165 45.384 78.0445 45.8C77.8205 46.632 77.6045 47.44 77.3965 48.224C77.2045 48.992 77.0525 49.592 76.9405 50.024C76.8285 50.456 76.7085 50.888 76.5805 51.32C76.3565 52.168 76.1645 52.592 76.0045 52.592ZM92.0586 52.544C91.8666 52.544 91.6106 52.352 91.2906 51.968C90.9866 51.584 90.8346 51.232 90.8346 50.912C90.8346 50.592 91.3066 48.36 92.2506 44.216C93.2106 40.056 93.6986 37.48 93.7146 36.488C93.7146 36.216 93.7466 36.032 93.8106 35.936C93.8906 35.824 94.0426 35.768 94.2666 35.768C94.5066 35.768 94.8106 36.016 95.1786 36.512C95.5626 37.008 95.7546 37.544 95.7546 38.12C95.7546 38.68 95.1786 41.304 94.0266 45.992C93.9146 46.424 93.7626 47.048 93.5706 47.864C93.3786 48.664 93.2266 49.28 93.1146 49.712C93.0026 50.144 92.8826 50.616 92.7546 51.128C92.4826 52.072 92.2506 52.544 92.0586 52.544ZM110.168 44.288C110.168 44.592 109.464 44.944 108.056 45.344C108.184 47.008 108.248 48.424 108.248 49.592C108.248 51.608 107.992 52.616 107.48 52.616C107.208 52.616 106.992 52.448 106.832 52.112C106.672 51.776 106.544 51.192 106.448 50.36C106.336 48.824 106.216 47.32 106.088 45.848C105.368 46.04 104.712 46.216 104.12 46.376C103.528 46.52 102.632 46.76 101.432 47.096C100.024 50.776 99.1923 52.616 98.9363 52.616C98.6803 52.616 98.4003 52.464 98.0963 52.16C97.8083 51.84 97.6643 51.504 97.6643 51.152C97.6643 50.992 98.1203 49.856 99.0323 47.744H98.8643C98.5443 47.744 98.2563 47.64 98.0003 47.432C97.7603 47.224 97.6403 46.968 97.6403 46.664C97.6403 46.344 98.4323 45.928 100.016 45.416C100.272 44.84 100.48 44.32 100.64 43.856C101.008 42.944 101.52 41.696 102.176 40.112C102.832 38.528 103.248 37.52 103.424 37.088C103.6 36.64 103.904 36.264 104.336 35.96C104.784 35.64 105.216 35.48 105.632 35.48C106.128 35.48 106.568 36.272 106.952 37.856C107.352 39.44 107.672 41.4 107.912 43.736C108.36 43.688 108.752 43.664 109.088 43.664C109.808 43.664 110.168 43.872 110.168 44.288ZM102.32 44.792C103.456 44.488 104.656 44.232 105.92 44.024C105.632 41.288 105.352 39.232 105.08 37.856C104.36 39.504 103.44 41.816 102.32 44.792ZM122.298 38.024C121.29 38.024 120.17 38.576 118.938 39.68C117.722 40.784 116.682 42.168 115.818 43.832C114.954 45.48 114.522 47.016 114.522 48.44C114.522 49.016 114.706 49.512 115.074 49.928C115.442 50.328 115.874 50.528 116.37 50.528C117.138 50.528 118.034 50.112 119.058 49.28C120.098 48.432 121.058 47.344 121.938 46.016C121.042 46.256 120.378 46.376 119.946 46.376C119.514 46.376 119.146 46.264 118.842 46.04C118.538 45.8 118.386 45.576 118.386 45.368C118.386 45.112 118.73 44.912 119.418 44.768C120.106 44.608 120.97 44.528 122.01 44.528C122.586 44.528 123.05 44.776 123.402 45.272C123.77 45.752 123.954 46.32 123.954 46.976C123.954 47.616 123.554 49.136 122.754 51.536C121.954 53.936 121.346 55.136 120.93 55.136C120.53 55.136 120.33 54.904 120.33 54.44C120.33 53.992 120.442 53.384 120.666 52.616C120.906 51.848 121.154 51.064 121.41 50.264C121.666 49.448 121.874 48.784 122.034 48.272C121.25 49.6 120.362 50.656 119.37 51.44C118.378 52.208 117.41 52.592 116.466 52.592C115.538 52.592 114.618 52.16 113.706 51.296C112.794 50.416 112.338 49.456 112.338 48.416C112.338 46.8 112.85 45 113.874 43.016C114.898 41.032 116.186 39.336 117.738 37.928C119.29 36.504 120.746 35.792 122.106 35.792C122.554 35.792 122.994 36.064 123.426 36.608C123.858 37.136 124.074 37.568 124.074 37.904C124.074 38.224 123.986 38.384 123.81 38.384C123.762 38.384 123.586 38.328 123.282 38.216C122.978 38.088 122.65 38.024 122.298 38.024ZM134.066 49.28C135.122 48.336 136.026 47.176 136.778 45.8C137.53 44.408 137.906 43.096 137.906 41.864C137.906 40.632 137.666 39.632 137.186 38.864C136.722 38.096 136.17 37.712 135.53 37.712C134.89 37.712 134.09 38.208 133.13 39.2C132.17 40.192 131.306 41.496 130.538 43.112C129.77 44.712 129.386 46.248 129.386 47.72C129.386 48.6 129.578 49.32 129.962 49.88C130.346 50.424 130.794 50.696 131.306 50.696C132.106 50.696 133.026 50.224 134.066 49.28ZM131.162 52.592C130.106 52.592 129.178 52.072 128.378 51.032C127.594 49.992 127.202 48.936 127.202 47.864C127.202 46.408 127.466 44.928 127.994 43.424C128.538 41.92 129.21 40.608 130.01 39.488C130.826 38.368 131.722 37.456 132.698 36.752C133.674 36.032 134.578 35.672 135.41 35.672C136.754 35.672 137.874 36.288 138.77 37.52C139.666 38.736 140.114 40.112 140.114 41.648C140.114 43.184 139.69 44.8 138.842 46.496C137.994 48.176 136.858 49.616 135.434 50.816C134.026 52 132.602 52.592 131.162 52.592ZM161.489 47.864C161.489 49.176 160.897 50.28 159.713 51.176C158.529 52.056 157.169 52.496 155.633 52.496C154.113 52.496 152.857 52.104 151.865 51.32C150.873 50.52 150.377 49.768 150.377 49.064C150.377 48.584 150.521 48.344 150.809 48.344C151.065 48.344 151.569 48.728 152.321 49.496C152.609 49.768 152.993 50.024 153.473 50.264C153.969 50.504 154.489 50.624 155.033 50.624C156.153 50.624 157.145 50.336 158.009 49.76C158.889 49.184 159.329 48.56 159.329 47.888C159.329 47.456 159.041 46.904 158.465 46.232C157.889 45.56 157.249 44.928 156.545 44.336C155.857 43.728 155.225 43.08 154.649 42.392C154.073 41.704 153.785 41.16 153.785 40.76C153.785 40.36 153.865 39.936 154.025 39.488C154.185 39.04 154.361 38.712 154.553 38.504C155.177 37.816 156.145 37.184 157.457 36.608C158.785 36.032 159.897 35.744 160.793 35.744C161.257 35.744 161.649 35.896 161.969 36.2C162.289 36.504 162.449 36.824 162.449 37.16C162.449 37.32 162.281 37.448 161.945 37.544C161.609 37.64 161.097 37.768 160.409 37.928C159.737 38.072 159.137 38.248 158.609 38.456C156.769 39.16 155.849 39.84 155.849 40.496C155.849 40.848 156.785 41.832 158.657 43.448C159.377 44.072 160.025 44.8 160.601 45.632C161.193 46.448 161.489 47.192 161.489 47.864ZM165.863 52.544C165.671 52.544 165.415 52.352 165.095 51.968C164.791 51.584 164.639 51.232 164.639 50.912C164.639 50.592 165.111 48.36 166.055 44.216C167.015 40.056 167.503 37.48 167.519 36.488C167.519 36.216 167.551 36.032 167.615 35.936C167.695 35.824 167.847 35.768 168.071 35.768C168.311 35.768 168.615 36.016 168.983 36.512C169.367 37.008 169.559 37.544 169.559 38.12C169.559 38.68 168.983 41.304 167.831 45.992C167.719 46.424 167.567 47.048 167.375 47.864C167.183 48.664 167.031 49.28 166.919 49.712C166.807 50.144 166.687 50.616 166.559 51.128C166.287 52.072 166.055 52.544 165.863 52.544ZM175.213 36.32C175.213 36.064 175.245 35.88 175.309 35.768C175.389 35.656 175.541 35.6 175.765 35.6C176.005 35.6 176.301 35.8 176.653 36.2C177.005 36.6 177.181 37.024 177.181 37.472C177.181 38.592 176.493 41.424 175.117 45.968C174.429 48.176 174.085 49.496 174.085 49.928C174.085 50.36 174.293 50.576 174.709 50.576C176.517 50.576 178.501 50.28 180.661 49.688C181.349 49.496 181.757 49.4 181.885 49.4C182.029 49.4 182.125 49.432 182.173 49.496C182.221 49.544 182.245 49.648 182.245 49.808C182.245 50.48 181.421 51.112 179.773 51.704C178.141 52.296 176.477 52.592 174.781 52.592C174.013 52.592 173.341 52.368 172.765 51.92C172.205 51.472 171.925 50.944 171.925 50.336C171.925 49.712 172.469 47.496 173.557 43.688C174.661 39.88 175.213 37.424 175.213 36.32ZM196.619 35.768C196.875 35.768 197.131 35.864 197.387 36.056C197.643 36.232 197.771 36.456 197.771 36.728C197.771 36.984 197.619 37.4 197.315 37.976C197.027 38.552 196.523 39.48 195.803 40.76C195.083 42.024 194.467 43.168 193.955 44.192C193.443 45.216 192.955 46.224 192.491 47.216C192.043 48.192 191.683 48.976 191.411 49.568C191.155 50.144 190.899 50.696 190.643 51.224C190.131 52.2 189.707 52.688 189.371 52.688C189.179 52.688 188.947 52.536 188.675 52.232C188.403 51.912 188.187 51.552 188.027 51.152C187.595 50.08 187.011 47.6 186.275 43.712C185.555 39.824 185.195 37.424 185.195 36.512C185.195 36.016 185.331 35.768 185.603 35.768C185.939 35.768 186.283 35.944 186.635 36.296C186.987 36.632 187.267 37.064 187.475 37.592C187.571 37.88 187.803 39.48 188.171 42.392C188.555 45.288 188.987 47.648 189.467 49.472C190.491 46.576 191.811 43.568 193.427 40.448C195.043 37.328 196.107 35.768 196.619 35.768ZM209.848 44.288C209.848 44.592 209.144 44.944 207.736 45.344C207.864 47.008 207.928 48.424 207.928 49.592C207.928 51.608 207.672 52.616 207.16 52.616C206.888 52.616 206.672 52.448 206.512 52.112C206.352 51.776 206.224 51.192 206.128 50.36C206.016 48.824 205.896 47.32 205.768 45.848C205.048 46.04 204.392 46.216 203.8 46.376C203.208 46.52 202.312 46.76 201.112 47.096C199.704 50.776 198.872 52.616 198.616 52.616C198.36 52.616 198.08 52.464 197.776 52.16C197.488 51.84 197.344 51.504 197.344 51.152C197.344 50.992 197.8 49.856 198.712 47.744H198.544C198.224 47.744 197.936 47.64 197.68 47.432C197.44 47.224 197.32 46.968 197.32 46.664C197.32 46.344 198.112 45.928 199.696 45.416C199.952 44.84 200.16 44.32 200.32 43.856C200.688 42.944 201.2 41.696 201.856 40.112C202.512 38.528 202.928 37.52 203.104 37.088C203.28 36.64 203.584 36.264 204.016 35.96C204.464 35.64 204.896 35.48 205.312 35.48C205.808 35.48 206.248 36.272 206.632 37.856C207.032 39.44 207.352 41.4 207.592 43.736C208.04 43.688 208.432 43.664 208.768 43.664C209.488 43.664 209.848 43.872 209.848 44.288ZM202 44.792C203.136 44.488 204.336 44.232 205.6 44.024C205.312 41.288 205.032 39.232 204.76 37.856C204.04 39.504 203.12 41.816 202 44.792Z" fill="white"/>
<g clip-path="url(#clip0_122_303)">
<mask id="mask0_122_303" style="mask-type:luminance" maskUnits="userSpaceOnUse" x="-4" y="-3" width="68" height="63">
<path d="M-3.70312 3.58156L2.86824 59.2733L63.5129 52.7584L59.5361 19.0559C59.4626 19.1092 59.3888 19.1622 59.3159 19.2164C59.2274 19.2748 59.139 19.3337 59.0506 19.3923C58.9721 19.459 59.0958 19.3539 58.891 19.5275C58.8861 19.5308 58.8811 19.534 58.8762 19.5373C58.9027 19.5977 58.9326 19.6804 58.9645 19.7751C59.7358 20.112 59.4297 20.1505 59.1527 20.3493C59.155 20.3562 59.1557 20.3588 59.1581 20.3658C59.1704 20.4028 59.1514 20.4339 59.1213 20.4629C59.3327 20.4856 59.5412 20.5438 59.6027 20.7061C59.9112 21.5205 59.4277 21.5826 58.9813 21.7724C58.9155 21.7893 58.8565 21.8047 58.7935 21.8211C58.8709 22.0781 58.8857 22.3576 58.9489 22.6197C58.8474 22.6696 58.7534 22.7373 58.6447 22.7692C58.4306 22.8321 58.2008 22.8456 57.9756 22.8341C57.7873 23.1039 57.6003 23.3745 57.415 23.6463C57.4083 23.6838 57.3992 23.7231 57.3851 23.766C57.3453 23.8873 57.309 24.0771 57.1803 24.0902C56.3941 24.1706 56.2074 24.1219 56.1918 23.8969C56.1491 23.9015 56.1038 23.9045 56.0735 23.9154C56.0823 24.0622 56.0374 24.1909 55.9921 24.3198C56.0132 24.3675 56.032 24.4158 56.0479 24.4644C56.071 24.535 56.0824 24.6139 56.0667 24.6863C56.0331 24.8415 55.9574 24.9844 55.9028 25.1335C55.8731 25.1419 55.8436 25.1528 55.814 25.1646C55.8276 25.2535 55.8371 25.3422 55.8257 25.4304C55.8235 25.4471 55.8178 25.4662 55.8101 25.4864C55.8477 25.7497 55.8914 26.0118 55.9482 26.2739C56.0226 26.3075 56.1026 26.3381 56.1304 26.4084C56.3598 26.9891 56.3279 27.0396 56.0663 27.3526C55.9286 27.3456 55.7879 27.355 55.6481 27.3587C55.6443 27.3717 55.6398 27.3846 55.6364 27.3976C55.4551 27.4582 55.2815 27.5743 55.0978 27.6178C55.1099 27.7549 55.0652 27.8998 54.9085 28.0584C54.7395 28.2296 54.4355 28.1665 54.199 28.2205C54.0134 28.1139 53.1453 27.6365 52.9292 27.443C52.5095 27.0673 52.2024 26.6822 51.9182 26.2128C51.8732 26.1384 51.7643 26.0483 51.7757 25.9741C51.7167 25.941 51.6615 25.9086 51.617 25.8789C51.3623 25.7094 51.1176 25.5256 50.8731 25.3419C50.6989 25.211 50.5216 25.0827 50.3611 24.9357C50.2877 24.8684 50.2181 24.7971 50.1494 24.7251C50.0967 24.7246 50.0459 24.7006 49.7903 24.6562C49.4638 24.4124 49.6578 24.5981 49.498 24.221C49.4795 24.2079 49.4614 24.1945 49.4437 24.1807C49.4573 24.2118 49.4907 24.263 49.4842 24.2549C49.4661 24.2327 49.445 24.2107 49.4364 24.1836C49.4354 24.1807 49.4345 24.1753 49.4334 24.1718C49.2059 23.9896 49.0487 23.7477 48.903 23.4926C48.7919 23.2693 48.6845 23.0408 48.6763 22.7896C48.6695 22.7363 48.663 22.683 48.6564 22.6297C48.6512 22.6139 48.6454 22.5983 48.6384 22.584C48.5701 22.3999 48.574 22.2086 48.5732 22.0178C48.5486 21.8783 48.5385 21.8095 48.5621 21.7599C48.5585 21.7279 48.5538 21.6963 48.5475 21.6646C48.6157 21.6694 48.4974 21.5757 48.5295 21.5613C48.6081 21.5259 48.6863 21.4887 48.7645 21.4514C48.721 21.4352 48.676 21.4175 48.6286 21.3989C48.582 21.3805 48.5172 21.3526 48.5132 21.3033C48.5098 21.2627 48.6456 21.2625 48.6151 21.235C48.5761 21.1997 48.5107 21.2474 48.4584 21.2536C48.2242 21.0573 47.9493 20.9002 47.7558 20.6646C47.7109 20.6099 47.7723 20.5215 47.8074 20.4609C48.0009 20.1263 48.0061 20.2763 48.2977 19.9591C48.6441 19.6912 48.9829 19.4542 49.3632 19.2527C49.3886 19.1936 49.4111 19.1315 49.4419 19.0627C49.5016 18.9832 49.5607 18.9032 49.6199 18.8233C49.6431 18.7512 49.6699 18.6637 49.7007 18.5419C49.7426 18.3761 49.7735 18.2054 49.8433 18.0492C49.9499 17.8106 50.0355 17.6485 50.1231 17.5063C50.1481 17.369 50.1759 17.2322 50.1993 17.0946C50.2017 17.0837 50.2072 17.0588 50.2107 17.0427C50.1892 16.951 50.168 16.8593 50.1466 16.7677L50.146 16.7677C50.0767 16.471 50.2169 16.3104 50.4305 16.2359C50.5618 15.8616 50.7432 15.5172 50.965 15.5458C51.2886 15.5875 51.4884 15.7544 51.6018 15.8819C51.6845 15.6296 51.7809 15.3826 51.9436 15.0222C52.0016 14.8937 52.013 14.6198 52.1522 14.6539C52.4288 14.7217 52.643 14.9274 52.864 15.1179C52.9506 15.1395 53.0351 15.1676 53.1162 15.2058C53.156 15.2245 53.1327 15.2598 53.0942 15.3004C53.0969 15.3022 53.0993 15.3044 53.102 15.3062C53.0548 15.4633 53.0105 15.6209 52.9669 15.7789C53.0609 15.6772 53.1545 15.5751 53.2483 15.4732C53.2823 15.4197 53.3755 15.2732 53.3826 15.2621C53.736 14.6474 53.971 14.3584 54.7309 15.0639C54.7978 15.0049 54.8664 14.948 54.9388 14.8959C55.0138 14.8419 55.1154 14.7104 55.1867 14.77C55.3371 14.8956 55.4502 14.99 55.5473 15.073C56.3 14.3537 56.7409 13.981 57.8504 13.2298C58.1074 13.0557 58.3927 12.9262 58.6639 12.7743C58.7077 12.8264 58.759 12.8755 58.8125 12.9237L56.9415 -2.93334L39.2213 -1.0297C39.2205 -0.859744 39.2167 -0.68974 39.2074 -0.519346C39.1735 -0.283503 39.2373 0.518285 38.8443 0.586257C38.7378 0.60467 38.6339 0.582951 38.5309 0.545579C38.5264 0.709772 38.5065 0.872869 38.4991 1.03692C38.5864 0.981904 38.6532 0.943277 38.6735 0.933832C38.9519 1.20037 39.3593 1.38075 39.5086 1.73351C39.5458 1.82137 39.4662 1.89012 39.3675 1.95227C39.3733 2.02347 39.3641 2.09195 39.3362 2.15347C39.2348 2.37751 39.0958 2.58452 38.9478 2.78145C38.8073 2.96837 38.6613 3.07425 38.4916 3.187C38.5379 3.37652 38.5911 3.56498 38.6231 3.75699C38.6782 4.08767 38.6885 4.23926 38.7187 4.55175C38.7409 4.74906 38.753 4.94742 38.7727 5.14494C38.7815 5.23042 38.8099 5.31521 38.8035 5.40076C38.7805 5.70116 38.7803 5.69616 38.7229 5.8658C38.724 5.83094 38.7225 5.79864 38.7168 5.81427C38.6629 5.96246 38.6394 6.12042 38.5863 6.26888C38.5644 6.33016 38.5219 6.38223 38.4925 6.44038C38.445 6.5346 38.4285 6.58013 38.3935 6.66859C37.8369 7.07337 37.9977 7.03864 37.8555 7.00616C37.8623 7.06308 37.8684 7.11859 37.8767 7.17775C37.8735 7.17629 37.8696 7.17639 37.8647 7.1781C37.5183 7.30912 37.2215 7.54925 36.8737 7.67661C36.8321 7.69183 36.8242 7.60348 36.7956 7.5697C36.7818 7.55332 36.7636 7.54087 36.7472 7.52695C36.6872 7.47593 36.6619 7.46808 36.652 7.47072C36.6527 7.46158 36.6424 7.41897 36.6353 7.38604C36.4867 7.36465 36.3395 7.33402 36.1913 7.30932C36.1002 7.27486 36.0035 7.25261 35.9179 7.20609C35.7454 7.23648 35.5704 7.2608 35.4025 7.30242C35.3582 7.2218 35.3031 7.14607 35.2695 7.06061C35.2537 7.02063 35.2526 6.99972 35.2404 6.96512C35.1931 7.03115 35.1268 7.08091 35.0543 7.1253C34.9153 7.28329 34.7639 7.43127 34.6226 7.58739C34.5819 7.5956 34.5422 7.60037 34.5033 7.60293C34.4584 7.65678 34.4123 7.70976 34.3633 7.75999C34.3389 7.78499 34.2948 7.77583 34.2602 7.78259C34.1209 7.80994 34.0093 7.81492 33.891 7.79707C33.8112 7.84125 33.7304 7.88452 33.5953 7.9584C33.5683 7.93867 33.5418 7.91851 33.5151 7.89845C33.5047 7.91291 33.4946 7.92737 33.4839 7.94155C33.4539 7.98124 33.404 8.09802 33.3836 8.05246C33.3321 7.93773 33.2912 7.81921 33.2546 7.69915C33.1905 7.64952 33.1263 7.59999 33.0616 7.55117C32.9517 7.65212 32.8437 7.75539 32.7369 7.85975C32.6924 7.91987 32.6367 7.98302 32.5686 8.0511C32.5686 8.05126 32.5688 8.05155 32.5687 8.05171C32.6094 8.11557 32.6108 8.16945 32.5511 8.19683C32.5565 8.21106 32.5618 8.22562 32.5642 8.23517C32.6528 8.58045 32.6253 8.47027 32.5234 8.86039C32.219 9.27715 31.6382 9.53049 31.2997 8.88018C31.2756 8.79922 31.2381 8.72092 31.225 8.63787C31.1598 8.63104 31.101 8.62251 31.0478 8.61261C30.8034 8.60882 31.0629 8.61814 30.7014 8.53178C30.6806 8.52683 30.7346 8.55813 30.7512 8.57133C30.66 8.54105 30.5677 8.51424 30.4759 8.48561C30.4501 8.49495 30.4229 8.50135 30.3944 8.50407C30.1911 8.52345 29.9956 8.39405 29.8277 8.26727C29.7591 8.28637 29.6984 8.23981 29.5403 8.10516C29.5089 8.07838 29.4804 8.04847 29.4504 8.02015C29.4295 8.0005 29.415 7.97055 29.3878 7.96133C29.3711 7.95568 29.416 7.9906 29.4126 8.00752C29.4102 8.01838 29.39 8.00421 29.3788 8.00265C29.327 7.96337 29.2983 7.94315 29.2603 7.91524C29.0452 8.00848 28.7973 8.03207 28.4448 7.91638C28.3144 7.8736 28.2984 7.68674 28.2253 7.57189C28.2153 7.52754 28.2088 7.49988 28.2004 7.46319C28.1834 7.44252 28.1667 7.42152 28.1506 7.40027C28.1455 7.40253 28.1383 7.40605 28.1334 7.40819C27.6276 7.50215 27.6541 7.56305 27.0695 7.26821C26.9881 7.22719 26.9447 7.13539 26.8952 7.05965C26.7065 6.7713 26.6472 6.6285 26.6119 6.37518C26.6057 6.36573 26.5999 6.35597 26.5943 6.34612C26.4605 6.35987 26.2598 6.37714 25.9086 6.43465C25.8821 6.43905 25.8742 6.39343 25.8585 6.37176C25.7901 6.27777 25.7104 6.19047 25.6563 6.08792C25.5827 5.94864 25.5332 5.84218 25.4946 5.74662C25.4041 5.76275 25.3042 5.77053 25.1854 5.78077C25.0703 5.77382 25.028 5.77637 24.9062 5.74067C24.8808 5.73319 24.9596 5.75361 24.9855 5.74853C25.0549 5.73496 25.2581 5.69362 25.1877 5.68555C24.3309 5.58737 24.8394 5.98959 24.2683 5.23843C24.2422 4.96115 24.2333 4.68253 24.1659 4.41011C24.1626 4.39971 24.1608 4.3941 24.1576 4.3843C24.1464 4.36928 24.1399 4.35599 24.1455 4.34676C24.0443 4.03494 24.0487 4.05297 24.4577 3.97913C24.4377 3.93045 24.4342 3.88557 24.4695 3.84981C24.7929 3.52221 24.9863 3.37931 25.1374 3.35264C25.1437 3.25831 25.1501 3.16389 25.1529 3.06939C25.1595 2.84303 25.1349 2.65228 25.1828 2.37767C25.2763 2.24827 25.3259 2.07276 25.4631 1.9895C25.8465 1.75679 26.0561 1.91588 26.341 2.14674C26.3913 2.18754 26.4357 2.24127 26.4576 2.30171C26.5539 2.56685 26.5805 2.6986 26.5952 2.86316C26.7729 2.83776 26.5897 2.90312 26.6139 3.11847C26.6609 3.19728 26.6956 3.2847 26.7237 3.37644C26.7704 3.4438 26.8348 3.51846 26.9226 3.60146C27.0658 3.50958 27.2057 3.4361 27.3515 3.39182C27.3236 3.21479 27.1143 3.1081 27.0489 2.93974C27.0253 2.87886 27.1601 3.01035 27.2157 3.04562C27.2651 3.09215 27.3945 3.22292 27.5123 3.35574C27.6325 3.33801 27.7585 3.34009 27.8955 3.36768C27.9333 3.37531 27.9692 3.38996 28.005 3.40507C28.002 3.40149 27.9987 3.39812 27.9957 3.39454C28.0361 3.40468 28.1503 3.45481 28.1101 3.44415C28.074 3.43459 28.0395 3.41965 28.005 3.40507C28.2086 3.64777 28.4385 3.87221 28.6312 4.1225C28.7526 4.08515 28.8565 4.0121 28.9868 3.9614C29.1199 3.90963 29.2569 3.86766 29.3933 3.82458C29.4559 3.76542 29.5277 3.71515 29.6271 3.66534C29.6647 3.64651 29.7436 3.57605 29.7502 3.60387C29.7724 3.47483 29.7743 3.42265 29.7746 3.27171C29.6838 3.07283 29.6708 2.91577 29.6435 2.68408C29.6289 2.69282 29.6142 2.70144 29.5999 2.71061C29.3942 2.64878 29.1546 2.65306 28.9827 2.52506C28.7778 2.3725 28.8112 1.90412 28.8286 1.7117C28.8781 1.1647 28.9888 0.604749 29.0945 0.0582127L-3.70312 3.58156ZM32.5687 8.05171L32.5683 8.05145C32.5601 8.0597 32.5525 8.06783 32.5439 8.07622C32.5433 8.09309 32.5279 8.16891 32.5325 8.15178C32.5415 8.11833 32.5579 8.08527 32.5687 8.05171ZM32.5683 8.05145L32.5686 8.0511C32.5722 8.03996 32.5754 8.0289 32.5773 8.0177C32.571 8.02398 32.5646 8.03016 32.5583 8.03644C32.5619 8.04149 32.5652 8.0465 32.5683 8.05145ZM49.4334 24.1718C49.437 24.1746 49.4401 24.1778 49.4437 24.1807C49.4326 24.1551 49.4348 24.1433 49.4845 24.1899C49.4661 24.148 49.4451 24.1018 49.4177 24.0463C49.3986 24.0074 49.4192 24.1206 49.4334 24.1718ZM31.3352 -0.182529C31.3462 -0.0262302 31.3589 0.130123 31.3678 0.286424C31.4792 0.126374 31.5826 -0.0390477 31.6677 -0.216432C31.6681 -0.217096 31.6684 -0.21759 31.6688 -0.218361L31.3352 -0.182529ZM32.7607 -0.335669C32.809 -0.153515 32.7823 0.0802904 32.6271 0.342007C32.521 0.520804 32.456 0.633377 32.3994 0.727865C32.4511 0.703404 32.482 0.719611 32.5252 0.781104C32.5255 0.780955 32.5258 0.780937 32.5261 0.780697C32.5625 0.763027 32.5732 0.828605 32.5873 0.879421C32.6004 0.901436 32.6108 0.918596 32.627 0.945547C32.6456 0.988114 32.698 1.09742 32.7323 1.19216C32.9457 1.6435 33.1444 2.1015 33.3233 2.56698C33.3409 2.58029 33.3584 2.59405 33.3752 2.60783C33.5333 2.73756 33.706 3.24857 33.7564 3.41681C33.7946 3.41178 33.8454 3.40802 33.8951 3.40404C33.9016 3.36135 33.9089 3.3131 33.9101 3.30715C33.9135 3.28968 33.9176 3.27231 33.9214 3.25495C33.9214 3.2548 33.9214 3.25449 33.9214 3.25434C33.8687 2.59194 33.827 1.92527 33.762 1.26299C33.7618 1.26045 33.7612 1.25757 33.7607 1.25494C33.494 1.23982 33.3832 1.19887 33.7165 1.1198C33.6903 1.04962 33.6723 0.986147 33.7281 0.978369C33.8695 0.958687 34.0113 0.967436 34.1534 0.98821C34.2097 0.969753 34.2659 0.952269 34.3224 0.935766C34.3227 0.919724 34.3179 0.892499 34.3186 0.877909C34.3241 0.75882 34.3325 0.640284 34.3421 0.521882C34.3099 0.476719 34.2798 0.430269 34.2527 0.381886C34.2455 0.368988 34.247 0.325467 34.252 0.271812C34.2303 0.245504 34.2081 0.218063 34.188 0.195244C34.0984 0.093498 34.1703 -0.0758467 34.1955 -0.207615C34.2157 -0.313619 34.2377 -0.407452 34.2603 -0.49678L32.7607 -0.335669ZM31.7234 1.67773C31.7228 1.67764 31.722 1.67772 31.7207 1.67833C31.7203 1.6785 31.72 1.67851 31.7195 1.67877C31.7148 1.68612 31.7125 1.69004 31.7066 1.69927C31.7068 1.70219 31.707 1.70511 31.707 1.70803C31.7179 1.69352 31.7276 1.67855 31.7234 1.67773ZM31.707 1.70803C31.7026 1.71392 31.699 1.71812 31.695 1.72296C31.6992 1.72827 31.7034 1.73398 31.7077 1.7395C31.7075 1.72898 31.7074 1.71852 31.707 1.70803ZM31.695 1.72296C31.6942 1.72211 31.6935 1.72129 31.6928 1.72046C31.6882 1.72773 31.6898 1.72531 31.6845 1.73348C31.6805 1.73987 31.6869 1.73278 31.695 1.72296ZM31.6928 1.72046C31.7004 1.70856 31.7004 1.70891 31.7066 1.69927C31.7064 1.69455 31.7058 1.68983 31.7056 1.6851C31.6953 1.68954 31.6852 1.69452 31.675 1.69902C31.681 1.70592 31.6869 1.71312 31.6928 1.72046ZM26.2334 2.66501C26.2328 2.66539 26.2324 2.6662 26.2324 2.66725C26.2323 2.66957 26.2328 2.67186 26.2329 2.67417C26.2342 2.67132 26.236 2.66782 26.2373 2.6649C26.2359 2.66459 26.2342 2.66446 26.2334 2.66501ZM29.7428 3.6456C29.7399 3.65495 29.7366 3.6644 29.7341 3.67384C29.7299 3.70354 29.716 3.79236 29.7216 3.76288C29.7316 3.70946 29.7362 3.68218 29.7428 3.6456ZM30.8557 3.7348C30.8465 3.80227 30.8348 3.8694 30.8186 3.93573C30.7965 4.02604 30.7492 4.10796 30.7145 4.19421C30.6832 4.24774 30.6474 4.29316 30.6088 4.33301C30.8436 4.67976 30.9257 5.19072 30.9235 5.60066C31.0501 5.55044 31.1758 5.49583 31.3105 5.4817C31.7361 5.43707 31.956 5.56976 32.0501 5.92325C32.1228 5.93376 32.1892 5.9538 32.2509 5.98149C32.12 5.71727 31.983 5.45579 31.8595 5.18847C31.8563 5.18835 31.8529 5.1881 31.8497 5.18798C31.787 5.14423 31.3921 4.90111 31.319 4.76434C31.2418 4.61996 31.1788 4.47209 31.1257 4.32145C31.059 4.20721 31.0046 4.08568 30.9526 3.96438C30.9164 3.88005 30.8852 3.80585 30.8557 3.7348ZM33.809 3.66454C33.8201 3.73206 33.8319 3.79944 33.8433 3.86689C33.8471 3.80785 33.8522 3.74838 33.8584 3.68958C33.8405 3.68115 33.8273 3.67297 33.809 3.66454ZM30.1405 4.63062C30.1084 4.64826 30.0762 4.66683 30.0445 4.68676C30.0241 4.69957 30.0925 4.67358 30.1116 4.65891C30.1223 4.65066 30.1316 4.64082 30.1405 4.63062ZM29.662 4.84467C29.6529 4.84643 29.6429 4.84849 29.6318 4.85126C29.6406 4.85139 29.6524 4.85291 29.6677 4.8559C29.6658 4.85232 29.6638 4.84785 29.662 4.84467ZM29.6894 4.90424C29.4923 5.0402 29.615 4.9746 29.6916 4.90976C29.6909 4.90828 29.69 4.90569 29.6894 4.90424ZM29.7817 5.1213C29.7605 5.18631 29.7805 5.1237 29.7475 5.2254C29.7246 5.27524 29.6876 5.32084 29.675 5.37369C29.738 5.38189 29.7972 5.41663 29.8514 5.46003C29.8543 5.44052 29.8561 5.42076 29.8568 5.40089C29.8602 5.30447 29.8223 5.21199 29.7817 5.1213ZM33.9292 7.52231C33.9267 7.52288 33.9691 7.53508 34.006 7.54561C34.0087 7.54408 34.0112 7.54217 34.0137 7.54054C33.988 7.53477 33.9627 7.52925 33.9364 7.52366C33.9319 7.52275 33.9297 7.52221 33.9292 7.52231ZM32.0781 8.403C32.0691 8.40785 32.0603 8.41349 32.0514 8.41891C32.0496 8.42168 32.0474 8.42434 32.0456 8.42712C32.0384 8.43803 32.0759 8.41168 32.0842 8.40234C32.0822 8.40254 32.0801 8.4028 32.0781 8.403ZM32.3252 8.60645C32.2832 8.62396 32.2329 8.64014 32.2484 8.66599C32.2607 8.68666 32.2862 8.62747 32.3104 8.62869C32.3154 8.62892 32.3143 8.63654 32.3119 8.6449C32.3176 8.63022 32.3223 8.61743 32.3252 8.60645ZM31.86 8.73715C31.8659 8.74409 31.8719 8.75105 31.8778 8.75799C31.9352 8.75623 32.1069 8.76191 32.0502 8.75252C31.9875 8.74213 31.9237 8.73957 31.86 8.73715ZM53.8485 14.8006C53.8445 14.8001 53.767 14.8656 53.7389 14.9189C53.7721 14.8813 53.8059 14.8443 53.8415 14.8089C53.8472 14.8033 53.8493 14.8007 53.8485 14.8006ZM51.6795 15.8832C51.6892 15.9079 51.6997 15.9323 51.7103 15.9567C51.7074 15.9444 51.7067 15.9402 51.7031 15.9241C51.6951 15.9105 51.6736 15.8686 51.6795 15.8832ZM49.2977 20.4552C49.2852 20.4698 49.269 20.4882 49.2507 20.5082C49.2547 20.5104 49.2586 20.5124 49.2626 20.5145C49.2802 20.4936 49.298 20.473 49.3168 20.4532C49.3103 20.4542 49.3039 20.455 49.2977 20.4552ZM58.9639 20.6215C58.957 20.7343 58.911 20.8404 58.8592 20.9459C58.9658 20.9563 59.0721 20.9652 59.1777 20.9675C59.1034 20.8543 59.0378 20.7349 58.9639 20.6215ZM56.3582 21.0956C56.3537 21.0982 56.3492 21.1008 56.3447 21.1034C56.3457 21.1134 56.3473 21.1214 56.3498 21.1256C56.3522 21.1247 56.3552 21.1235 56.3577 21.1227C56.359 21.1177 56.3593 21.1086 56.3582 21.0956ZM52.5983 22.1024C52.579 22.2139 52.5477 22.322 52.4995 22.4238C52.4991 22.4246 52.4984 22.4252 52.4979 22.4261C52.5863 22.6001 52.6695 22.7768 52.7699 22.9443C52.7778 22.9385 52.7861 22.9336 52.7941 22.928C52.7807 22.9191 52.7693 22.9077 52.7613 22.8918C52.6388 22.651 52.6276 22.3737 52.5983 22.1024ZM54.8226 22.6831C54.799 22.6884 54.792 22.6902 54.7675 22.6957C54.457 22.7651 54.1445 22.8287 53.8293 22.8736C53.5897 22.9077 53.3476 22.9284 53.1054 22.9325C53.1044 22.9325 53.1035 22.9328 53.1026 22.9328C53.1384 22.9818 53.1713 23.0384 53.2015 23.0779C53.2416 23.1303 53.278 23.1855 53.313 23.2416C53.357 23.2564 53.394 23.2993 53.4382 23.3179C53.5844 23.3797 53.7333 23.4348 53.8823 23.4896C54.0076 23.5357 54.155 23.54 54.2608 23.621C54.48 23.7889 54.6292 23.9179 54.7452 24.0384C54.8 23.9752 54.8562 23.913 54.9135 23.8519C54.9351 23.8473 54.9566 23.8412 54.9781 23.8349C55.0289 23.722 55.0905 23.6163 55.1608 23.5131C54.9183 23.4846 54.6798 23.4478 54.4905 23.3074C54.3635 23.2132 54.5674 22.9983 54.6558 22.8694C54.7031 22.8006 54.7607 22.74 54.8226 22.6831ZM56.6702 22.7711C56.6328 22.7969 56.5952 22.8223 56.5576 22.8478C56.5713 22.852 56.592 22.858 56.6067 22.8625C56.6277 22.8319 56.6491 22.8016 56.6702 22.7711ZM55.9279 23.3794C55.9153 23.3811 55.9312 23.4842 55.9578 23.5106C55.9799 23.5325 56.0052 23.5525 56.0314 23.5719C56.0029 23.5074 55.9742 23.4429 55.935 23.3853C55.932 23.3809 55.9297 23.3792 55.9279 23.3794ZM55.9112 24.6292C55.9084 24.6574 55.907 24.686 55.9079 24.7155C55.9084 24.7336 55.9425 24.6828 55.9329 24.6673C55.9254 24.6551 55.9184 24.6422 55.9112 24.6292ZM56.0549 26.7145C56.0567 26.72 56.0581 26.7255 56.0599 26.731C56.0632 26.7406 56.099 26.7229 56.0889 26.7209C56.0776 26.7186 56.0662 26.7167 56.0549 26.7145ZM55.2217 27.3265C55.2209 27.3267 55.2204 27.327 55.2196 27.3271C55.2258 27.3441 55.2322 27.3611 55.2383 27.3782C55.2442 27.3953 55.2395 27.3229 55.2217 27.3265Z" fill="white"/>
</mask>
<g mask="url(#mask0_122_303)">
<path d="M30.4096 -0.0395667C30.1274 -0.00888672 29.8508 0.0873776 29.6927 0.236814C29.5584 0.363726 29.4376 0.663007 29.4243 0.901913C29.4031 1.28043 29.6327 1.69815 31.2111 4.14992C32.2074 5.69739 33.121 7.04472 33.2414 7.14395C33.3976 7.27272 33.6494 7.30378 34.1214 7.25248C34.8912 7.16878 35.1434 6.89464 35.0654 6.22611C35.0087 5.73975 31.5783 0.339133 31.1598 0.0773205C30.9797 -0.0353425 30.6918 -0.0702471 30.4096 -0.0395667ZM25.5312 3.63553C24.785 3.71666 24.5502 3.9987 24.6335 4.71352C24.6883 5.18364 24.7697 5.36574 24.989 5.51074C25.1454 5.61412 26.5569 6.35892 28.1257 7.16567C30.9713 8.62904 30.9794 8.63208 31.6724 8.56272C32.0544 8.52448 32.4274 8.42375 32.501 8.33873C32.5747 8.25371 32.6002 7.88492 32.5575 7.51914L32.48 6.85408L29.7548 5.47131C25.9192 3.52496 26.0451 3.57967 25.5312 3.63553ZM19.2222 5.60507L11.5748 14.4586C7.36875 19.328 3.70882 23.651 3.44186 24.0651C1.17511 27.581 0.108403 31.0817 0.0635746 35.1521C0.0471888 36.6399 0.604217 40.4902 1.01885 41.7558C2.37889 45.9072 4.81871 49.3531 8.29387 52.0306C10.5435 53.764 12.6021 54.8588 15.3338 55.7752C17.5999 56.5354 20.268 56.9705 23.0744 57.0375C23.2839 57.0425 24.8043 56.8872 26.4528 56.6923C28.9806 56.3935 29.6607 56.2741 30.7952 55.9306C32.7749 55.3313 34.826 54.4035 36.6283 53.2918C39.5701 51.477 39.645 51.401 48.2011 41.5578C53.752 35.1718 55.9946 32.5095 56.0228 32.2721C56.1064 31.5672 55.8052 31.2869 51.8567 28.3956L48.0102 25.5791L47.3951 25.6459L46.7799 25.7128L39.2963 34.3262C33.0547 41.5101 31.6657 43.0458 30.9258 43.5801C26.9161 46.4756 21.9319 46.7974 17.6477 44.4373C15.444 43.2233 13.6206 41.2149 12.651 38.9331C12.1505 37.7551 11.8239 35.3051 12.0196 34.1958C12.4855 31.5546 13.2751 30.0821 15.8631 27.0274C17.7118 24.8452 17.7344 24.8115 17.6743 24.3129C17.6006 23.7011 17.5061 23.5811 17.0064 23.4651C16.1977 23.2773 15.9857 23.4464 13.7475 26.0676C11.4396 28.7704 10.8998 29.6304 10.2838 31.5867C8.93178 35.8805 10.2392 41.0538 13.4613 44.1608L13.9568 44.6386L11.632 47.3196L9.30744 50.0009L8.27819 49.0215C3.6144 44.584 1.53122 38.6811 2.53276 32.7402C2.76754 31.3475 3.41063 29.2526 3.97288 28.0492L4.39558 27.1446L4.49414 27.6626C4.54834 27.9474 4.67621 28.2306 4.77838 28.2921C4.88425 28.3559 5.27465 28.3552 5.68616 28.2904C6.38478 28.1803 6.41569 28.1607 6.63712 27.685C6.91462 27.0889 6.85754 26.2602 6.51993 25.9857C6.35553 25.852 6.11054 25.8169 5.67444 25.8643L5.06019 25.9311L5.57495 25.1456C5.85805 24.7137 8.19751 21.912 10.7736 18.9196L15.4575 13.4787L18.2632 15.5362L21.0688 17.594L20.3452 18.4359C19.6627 19.2299 19.6248 19.3085 19.6838 19.8141C19.7741 20.5888 20.3358 20.9036 21.14 20.6302C21.3606 20.5551 22.6843 19.1229 25.0188 16.4333L28.5628 12.3506L28.4958 11.7759L28.4288 11.2015L24.5145 8.32838L20.6002 5.45525L19.9112 5.53016L19.2222 5.60507ZM48.1692 2.70657C47.6864 2.74779 47.1812 2.9055 46.9711 3.12281C46.8381 3.26043 45.5944 5.12425 44.2072 7.26455C42.8199 9.40486 41.6452 11.2065 41.5967 11.2681C41.5483 11.3298 40.5461 10.8563 39.3697 10.216C38.1933 9.57569 37.1008 9.00491 36.942 8.94781C36.7833 8.89071 36.3265 8.87998 35.9266 8.92369C35.0721 9.01705 34.5317 9.34515 34.3765 9.86537C34.0967 10.8031 31.6821 24.9867 31.7312 25.4041C31.806 26.0404 32.2457 26.5531 32.7874 26.6356C33.3596 26.7228 33.6334 26.6953 34.1567 26.4986C34.5526 26.3498 34.8837 25.8954 37.2545 22.2469C38.7144 20.0002 39.9745 18.178 40.0547 18.1976C40.1349 18.2172 41.2288 18.7894 42.4855 19.4691L44.7703 20.7046L45.6222 20.5668C47.0863 20.33 46.9168 20.8282 48.4775 12.1858C50.0607 3.41909 50.0733 3.16354 48.9451 2.77037C48.7404 2.69902 48.4588 2.68184 48.1692 2.70657ZM20.2079 8.00856L23.0104 10.0655L25.8132 12.1227L24.1948 13.991L22.5763 15.8593L19.7729 13.7997L16.9695 11.7399L18.5885 9.87423L20.2079 8.00856ZM47.0454 7.29684C47.0506 7.2944 47.0523 7.29717 47.0507 7.30535C47.0248 7.43652 46.5706 9.94879 46.0411 12.8881C45.5116 15.8275 45.0647 18.2481 45.0481 18.2673C45.0315 18.2865 44.1356 17.8173 43.0573 17.2246C41.979 16.632 40.9167 16.0691 40.6966 15.9737C40.2084 15.7621 39.1146 15.8544 38.6418 16.1474C38.4531 16.2644 37.5424 17.5478 36.5105 19.1506C35.5195 20.69 34.6485 22.0256 34.575 22.1186C34.5014 22.2117 34.8811 19.8162 35.4187 16.7953C35.9564 13.7745 36.4147 11.2812 36.4376 11.2549C36.4604 11.2285 37.4836 11.7516 38.7113 12.4171C41.2203 13.7771 41.6489 13.8839 42.644 13.3995C43.0963 13.1794 43.3734 12.812 45.1255 10.1092C46.1425 8.54046 46.9676 7.33351 47.0454 7.29684ZM57.8628 14.8401C57.1161 14.9224 55.9379 15.1568 54.07 15.5324C51.6172 16.0255 50.8098 16.228 50.6564 16.3882C50.5119 16.5391 50.4752 16.7693 50.5263 17.2073C50.5845 17.7064 50.6517 17.8439 50.8964 17.966C51.0607 18.0481 51.3092 18.1029 51.4486 18.0881C52.2836 17.9995 58.6844 16.6663 58.9303 16.5297C59.1852 16.3881 59.223 16.2764 59.1941 15.7439C59.1532 14.9877 59.1073 14.7029 57.8628 14.8401ZM50.3358 18.5568C50.0897 18.5815 49.9391 18.6694 49.8051 18.8093C49.5308 19.0958 49.6369 20.1652 49.9594 20.3646C50.0805 20.4396 51.6049 20.9322 53.3471 21.4594C55.9291 22.2406 56.6264 22.4075 57.1181 22.3621C58.0605 22.2752 58.1913 22.137 58.0973 21.3304C58.0292 20.7463 57.9735 20.6262 57.717 20.5111C57.5517 20.4368 55.9675 19.9512 54.1966 19.4323C51.8826 18.7542 50.8774 18.5025 50.3358 18.5568ZM49.7158 20.9925C49.3529 21.0415 48.98 21.2009 48.8339 21.411C48.7264 21.5655 48.6654 21.8772 48.6942 22.124C48.7388 22.5062 49.0512 22.8775 51.1374 25.0252C52.4532 26.3797 53.5975 27.5191 53.6801 27.5572C53.7628 27.5954 54.0936 27.5989 54.4154 27.5649C55.192 27.4828 55.3707 27.2634 55.2819 26.5012C55.2135 25.915 55.1711 25.862 52.9086 23.5296C51.6415 22.2235 50.4707 21.1016 50.307 21.0367C50.1476 20.9734 49.9336 20.9631 49.7158 20.9925ZM4.54739 29.2649C4.46121 29.2746 4.36049 29.2935 4.2359 29.3203C3.53844 29.4704 3.43667 29.6187 3.17979 30.8611C2.66759 33.3383 2.62174 35.8861 3.04309 38.4607C3.48062 41.134 4.53691 44.192 5.18815 44.67C5.56634 44.9476 6.3277 44.9071 6.71794 44.5888C7.06725 44.3039 6.96961 43.5288 6.43259 42.3237C4.94653 38.9886 4.58418 35.4788 5.3416 31.7525C5.65608 30.2054 5.62679 29.8004 5.17571 29.4693C4.93295 29.2911 4.80594 29.236 4.54739 29.2649ZM47.6927 28.1803L50.4601 30.2135L53.2279 32.2469L51.6097 34.1149L49.9918 35.9828L47.2241 33.9494L44.4564 31.9159L46.0745 30.048L47.6927 28.1803ZM42.9528 33.6608L45.7201 35.6901L48.4873 37.7193L43.885 43.0444C41.3538 45.9732 38.8199 48.7882 38.2539 49.2998C35.6263 51.6751 32.2723 53.4486 28.7412 54.3298C27.158 54.7248 24.4021 55.0207 22.799 54.9679C19.2579 54.8512 15.5737 53.8236 12.4456 52.0804L11.1792 51.3746L13.4973 48.6965L15.8154 46.0183L16.5431 46.404C18.1863 47.275 20.4206 47.9 22.3337 48.024C23.71 48.1131 26.632 47.7989 27.9358 47.4216C29.7927 46.8841 31.6251 45.9285 33.0977 44.7291C33.5111 44.3924 35.8976 41.7643 38.4011 38.8889L42.9528 33.6608Z" fill="url(#paint0_linear_122_303)"/>
</g>
</g>
<defs>
<linearGradient id="paint0_linear_122_303" x1="11.1792" y1="51.3746" x2="33.7432" y2="87.4592" gradientUnits="userSpaceOnUse">
<stop stop-color="#FFFFC0"/>
<stop offset="1" stop-color="#221737" stop-opacity="0.752941"/>
</linearGradient>
<clipPath id="clip0_122_303">
<rect width="59.2759" height="57" fill="white"/>
</clipPath>
</defs>
</svg>
