<svg width="149" height="54" viewBox="0 0 149 54" fill="none" xmlns="http://www.w3.org/2000/svg">
<path d="M3.728 16.488H3.68C3.648 16.648 3.488 17.288 3.2 18.408C2.928 19.528 2.752 20.264 2.672 20.616C2.592 20.952 2.52 21.224 2.456 21.432C2.408 21.64 2.352 21.88 2.288 22.152C2.224 22.408 2.16 22.616 2.096 22.776C2.048 22.92 2 23.064 1.952 23.208C1.856 23.48 1.76 23.616 1.664 23.616C1.456 23.616 1.184 23.392 0.848 22.944C0.512 22.48 0.344 22.104 0.344 21.816C0.344 21.528 0.8 19.528 1.712 15.816C2.64 12.104 3.12 9.632 3.152 8.4C3.152 8.16 3.208 7.968 3.32 7.824C3.48 7.488 3.952 7.248 4.736 7.104C5.536 6.96 6.696 6.888 8.216 6.888C9.752 6.888 10.952 6.968 11.816 7.128C12.696 7.288 13.136 7.512 13.136 7.8C13.136 7.992 13 8.128 12.728 8.208C12.456 8.288 12.216 8.352 12.008 8.4C11.8 8.432 11.528 8.472 11.192 8.52C10.856 8.552 10.544 8.584 10.256 8.616C9.968 8.632 9.592 8.664 9.128 8.712C8.68 8.76 8.264 8.808 7.88 8.856C7.496 8.888 6.976 8.944 6.32 9.024C5.664 9.104 5.24 9.152 5.048 9.168C5.064 9.216 5.072 9.288 5.072 9.384C5.072 10.136 4.76 11.864 4.136 14.568C5.128 14.616 6.192 14.592 7.328 14.496C8.48 14.4 9.184 14.352 9.44 14.352C10.048 14.352 10.352 14.48 10.352 14.736C10.352 15.232 9.656 15.648 8.264 15.984C6.888 16.32 5.376 16.488 3.728 16.488ZM18.0185 5.184C17.8585 5.184 17.7145 5.12 17.5865 4.992C17.4585 4.864 17.3945 4.696 17.3945 4.488C17.3945 4.264 17.4905 4.032 17.6825 3.792C17.8905 3.536 18.2905 3.104 18.8825 2.496C19.2665 2.144 19.5865 1.84 19.8425 1.584C20.1145 1.312 20.3225 1.12 20.4665 1.008C20.7385 0.767999 20.9785 0.647999 21.1865 0.647999C21.4105 0.647999 21.6265 0.799999 21.8345 1.104C22.0585 1.408 22.1705 1.672 22.1705 1.896C22.1705 2.104 22.1465 2.264 22.0985 2.376C22.0665 2.472 22.0185 2.56 21.9545 2.64C21.8905 2.704 21.7785 2.8 21.6185 2.928C21.4745 3.04 21.3385 3.136 21.2105 3.216C21.0825 3.296 20.8825 3.424 20.6105 3.6C20.3385 3.76 20.1065 3.904 19.9145 4.032C19.7385 4.16 19.5465 4.304 19.3385 4.464C19.1305 4.624 18.9785 4.736 18.8825 4.8C18.7865 4.864 18.6825 4.928 18.5705 4.992C18.3625 5.12 18.1785 5.184 18.0185 5.184ZM14.4185 23.544C14.2265 23.544 13.9705 23.352 13.6505 22.968C13.3465 22.584 13.1945 22.232 13.1945 21.912C13.1945 21.592 13.6665 19.36 14.6105 15.216C15.5705 11.056 16.0585 8.48 16.0745 7.488C16.0745 7.216 16.1065 7.032 16.1705 6.936C16.2505 6.824 16.4025 6.768 16.6265 6.768C16.8665 6.768 17.1705 7.016 17.5385 7.512C17.9225 8.008 18.1145 8.544 18.1145 9.12C18.1145 9.68 17.5385 12.304 16.3865 16.992C16.2745 17.424 16.1225 18.048 15.9305 18.864C15.7385 19.664 15.5865 20.28 15.4745 20.712C15.3625 21.144 15.2425 21.616 15.1145 22.128C14.8425 23.072 14.6105 23.544 14.4185 23.544ZM30.2242 18.864C30.2242 20.176 29.6322 21.28 28.4482 22.176C27.2642 23.056 25.9042 23.496 24.3682 23.496C22.8482 23.496 21.5922 23.104 20.6002 22.32C19.6082 21.52 19.1122 20.768 19.1122 20.064C19.1122 19.584 19.2562 19.344 19.5442 19.344C19.8002 19.344 20.3042 19.728 21.0562 20.496C21.3442 20.768 21.7282 21.024 22.2082 21.264C22.7042 21.504 23.2242 21.624 23.7682 21.624C24.8882 21.624 25.8802 21.336 26.7442 20.76C27.6242 20.184 28.0642 19.56 28.0642 18.888C28.0642 18.456 27.7762 17.904 27.2002 17.232C26.6242 16.56 25.9842 15.928 25.2802 15.336C24.5922 14.728 23.9602 14.08 23.3842 13.392C22.8082 12.704 22.5202 12.16 22.5202 11.76C22.5202 11.36 22.6002 10.936 22.7602 10.488C22.9202 10.04 23.0962 9.712 23.2882 9.504C23.9122 8.816 24.8802 8.184 26.1922 7.608C27.5202 7.032 28.6322 6.744 29.5282 6.744C29.9922 6.744 30.3842 6.896 30.7042 7.2C31.0242 7.504 31.1842 7.824 31.1842 8.16C31.1842 8.32 31.0162 8.448 30.6802 8.544C30.3442 8.64 29.8322 8.768 29.1442 8.928C28.4722 9.072 27.8722 9.248 27.3442 9.456C25.5042 10.16 24.5842 10.84 24.5842 11.496C24.5842 11.848 25.5202 12.832 27.3922 14.448C28.1122 15.072 28.7602 15.8 29.3362 16.632C29.9282 17.448 30.2242 18.192 30.2242 18.864ZM34.5982 23.544C34.4062 23.544 34.1502 23.352 33.8302 22.968C33.5262 22.584 33.3742 22.232 33.3742 21.912C33.3742 21.592 33.8462 19.36 34.7902 15.216C35.7502 11.056 36.2382 8.48 36.2542 7.488C36.2542 7.216 36.2862 7.032 36.3502 6.936C36.4302 6.824 36.5822 6.768 36.8062 6.768C37.0462 6.768 37.3502 7.016 37.7182 7.512C38.1022 8.008 38.2942 8.544 38.2942 9.12C38.2942 9.68 37.7182 12.304 36.5662 16.992C36.4542 17.424 36.3022 18.048 36.1102 18.864C35.9182 19.664 35.7662 20.28 35.6542 20.712C35.5422 21.144 35.4222 21.616 35.2942 22.128C35.0222 23.072 34.7902 23.544 34.5982 23.544ZM50.4519 6.768C50.8679 6.768 51.2919 7.032 51.7239 7.56C52.1719 8.088 52.3959 8.528 52.3959 8.88C52.3959 9.216 52.3319 9.384 52.2039 9.384C52.0919 9.384 51.8679 9.328 51.5319 9.216C51.1959 9.088 50.8919 9.024 50.6199 9.024C49.9959 9.024 49.2359 9.344 48.3399 9.984C47.4599 10.624 46.6199 11.416 45.8199 12.36C45.0359 13.304 44.3639 14.384 43.8039 15.6C43.2439 16.8 42.9639 17.84 42.9639 18.72C42.9639 19.6 43.1879 20.248 43.6359 20.664C44.0999 21.064 44.6999 21.264 45.4359 21.264C46.1719 21.264 46.9319 21.16 47.7159 20.952C48.4999 20.728 49.1399 20.48 49.6359 20.208C50.9159 19.52 51.6199 19.176 51.7479 19.176C52.0199 19.176 52.1559 19.36 52.1559 19.728C52.1559 20.08 51.7879 20.56 51.0519 21.168C50.3159 21.76 49.4039 22.296 48.3159 22.776C47.2279 23.256 46.2519 23.496 45.3879 23.496C44.2679 23.496 43.2119 23.016 42.2199 22.056C41.2279 21.08 40.7319 20.008 40.7319 18.84C40.7319 17.336 41.2199 15.64 42.1959 13.752C43.1879 11.848 44.4519 10.208 45.9879 8.832C47.5399 7.456 49.0279 6.768 50.4519 6.768ZM67.0751 15.288C67.0751 15.592 66.3711 15.944 64.9631 16.344C65.0911 18.008 65.1551 19.424 65.1551 20.592C65.1551 22.608 64.8991 23.616 64.3871 23.616C64.1151 23.616 63.8991 23.448 63.7391 23.112C63.5791 22.776 63.4511 22.192 63.3551 21.36C63.2431 19.824 63.1231 18.32 62.9951 16.848C62.2751 17.04 61.6191 17.216 61.0271 17.376C60.4351 17.52 59.5391 17.76 58.3391 18.096C56.9311 21.776 56.0991 23.616 55.8431 23.616C55.5871 23.616 55.3071 23.464 55.0031 23.16C54.7151 22.84 54.5711 22.504 54.5711 22.152C54.5711 21.992 55.0271 20.856 55.9391 18.744H55.7711C55.4511 18.744 55.1631 18.64 54.9071 18.432C54.6671 18.224 54.5471 17.968 54.5471 17.664C54.5471 17.344 55.3391 16.928 56.9231 16.416C57.1791 15.84 57.3871 15.32 57.5471 14.856C57.9151 13.944 58.4271 12.696 59.0831 11.112C59.7391 9.528 60.1551 8.52 60.3311 8.088C60.5071 7.64 60.8111 7.264 61.2431 6.96C61.6911 6.64 62.1231 6.48 62.5391 6.48C63.0351 6.48 63.4751 7.272 63.8591 8.856C64.2591 10.44 64.5791 12.4 64.8191 14.736C65.2671 14.688 65.6591 14.664 65.9951 14.664C66.7151 14.664 67.0751 14.872 67.0751 15.288ZM59.2271 15.792C60.3631 15.488 61.5631 15.232 62.8271 15.024C62.5391 12.288 62.2591 10.232 61.9871 8.856C61.2671 10.504 60.3471 12.816 59.2271 15.792ZM81.6134 23.7C80.8401 23.7 80.1134 23.4 79.4334 22.8C78.7534 22.1867 78.4134 21.4667 78.4134 20.64C78.4134 19.8 78.6934 18.8333 79.2534 17.74C79.8134 16.6467 80.5334 15.7133 81.4134 14.94C82.3068 14.1667 83.1734 13.78 84.0134 13.78C84.5601 13.78 85.0401 14.0267 85.4534 14.52C85.8668 15.0133 86.0734 15.4467 86.0734 15.82C86.0734 15.9267 86.0401 16.02 85.9734 16.1C85.9068 16.1667 85.8068 16.2 85.6734 16.2C85.5534 16.2 85.3334 16.08 85.0134 15.84C84.6934 15.6 84.4068 15.48 84.1534 15.48C83.4334 15.48 82.5934 16.1133 81.6334 17.38C80.6734 18.6467 80.1934 19.7533 80.1934 20.7C80.1934 21.1133 80.3201 21.44 80.5734 21.68C80.8401 21.92 81.2601 22.04 81.8334 22.04C82.4201 22.04 82.9534 21.9733 83.4334 21.84C83.9268 21.6933 84.3068 21.5533 84.5734 21.42C84.8401 21.2733 85.0468 21.2 85.1934 21.2C85.4468 21.2 85.5734 21.3267 85.5734 21.58C85.5734 21.9667 85.1068 22.42 84.1734 22.94C83.2534 23.4467 82.4001 23.7 81.6134 23.7ZM93.3397 17.18C93.3397 16.7267 93.2664 16.3 93.1197 15.9C92.973 15.4867 92.7597 15.1867 92.4797 15C91.5597 15.2533 90.7664 15.9667 90.0997 17.14C89.4464 18.3 89.1197 19.3933 89.1197 20.42C89.1197 21.4467 89.373 22.0867 89.8797 22.34C90.8397 22.1533 91.653 21.5 92.3197 20.38C92.9997 19.2467 93.3397 18.18 93.3397 17.18ZM88.0797 17.36C88.5464 16.32 89.153 15.4667 89.8997 14.8C90.6597 14.12 91.433 13.78 92.2197 13.78C93.0197 13.78 93.6864 14.12 94.2197 14.8C94.753 15.4667 95.0197 16.2867 95.0197 17.26C95.0197 18.22 94.7864 19.2067 94.3197 20.22C93.853 21.22 93.2064 22.0533 92.3797 22.72C91.5664 23.3733 90.6997 23.7 89.7797 23.7C89.0997 23.7 88.533 23.3867 88.0797 22.76C87.6264 22.1333 87.3997 21.34 87.3997 20.38C87.3997 19.4067 87.6264 18.4 88.0797 17.36ZM109.302 13.78C109.702 13.78 110.056 14.06 110.362 14.62C110.682 15.1667 110.842 15.7933 110.842 16.5C110.842 17.1933 110.716 18.1 110.462 19.22C110.222 20.34 109.896 21.3667 109.482 22.3C109.069 23.2333 108.662 23.7 108.262 23.7C107.982 23.7 107.842 23.52 107.842 23.16C107.842 22.7867 108.069 21.8867 108.522 20.46C108.989 19.02 109.222 17.88 109.222 17.04C109.222 16.1867 109.089 15.76 108.822 15.76C108.489 15.76 108.102 16.0533 107.662 16.64C107.236 17.2267 106.776 17.9333 106.282 18.76C105.789 19.5867 105.522 20.0333 105.482 20.1C105.442 20.1533 105.389 20.2333 105.322 20.34C105.269 20.4467 105.202 20.56 105.122 20.68C105.056 20.8 104.869 21.16 104.562 21.76C104.269 22.36 104.009 22.8333 103.782 23.18C103.556 23.5133 103.356 23.68 103.182 23.68C103.022 23.68 102.842 23.5733 102.642 23.36C102.442 23.1467 102.342 22.9467 102.342 22.76C102.342 22.5733 102.462 22.1867 102.702 21.6C103.396 19.8667 103.742 18.2533 103.742 16.76C103.742 16.48 103.682 16.2467 103.562 16.06C103.442 15.86 103.309 15.76 103.162 15.76C103.016 15.76 102.862 15.8267 102.702 15.96C102.542 16.08 102.342 16.3067 102.102 16.64C101.862 16.96 101.649 17.2667 101.462 17.56C101.276 17.8533 100.989 18.3133 100.602 18.94C100.229 19.5533 99.9422 20.0133 99.7422 20.32C99.5555 20.6133 99.3355 20.96 99.0822 21.36C98.8289 21.7467 98.6289 22.0467 98.4822 22.26C98.3489 22.4733 98.1955 22.7067 98.0222 22.96C97.6622 23.4533 97.3955 23.7 97.2222 23.7C97.0622 23.7 96.8489 23.5533 96.5822 23.26C96.3155 22.9533 96.1822 22.7267 96.1822 22.58C96.1822 22.42 96.2089 22.2267 96.2622 22C96.3155 21.7733 96.3689 21.5533 96.4222 21.34C96.4889 21.1267 96.5822 20.8133 96.7022 20.4C96.8355 19.9733 96.9822 19.48 97.1422 18.92C97.3155 18.3467 97.4422 17.5667 97.5222 16.58C97.6155 15.58 97.6822 14.8533 97.7222 14.4C97.7622 13.9333 97.8755 13.7 98.0622 13.7C98.3555 13.7 98.6422 13.8533 98.9222 14.16C99.2155 14.4667 99.3622 14.7733 99.3622 15.08C99.3622 16.2533 98.9222 18.1867 98.0422 20.88C99.5355 18.08 100.476 16.42 100.862 15.9C101.249 15.38 101.582 14.96 101.862 14.64C102.382 14.0667 102.909 13.78 103.442 13.78C103.762 13.78 104.142 14.06 104.582 14.62C105.036 15.1667 105.262 15.72 105.262 16.28C105.262 16.84 105.182 17.5333 105.022 18.36C106.596 15.3067 108.022 13.78 109.302 13.78Z" fill="#FFFFC0"/>
<path d="M5.816 35.832L1.712 36.024C1.456 36.024 1.192 35.856 0.92 35.52C0.648 35.184 0.512 34.856 0.512 34.536C0.512 34.248 0.968 34.064 1.88 33.984C2.808 33.904 4.832 33.864 7.952 33.864C9.568 33.864 10.896 34.04 11.936 34.392C12.992 34.744 13.52 35.136 13.52 35.568C13.52 35.872 13.256 36.024 12.728 36.024C12.2 36.024 11.464 35.992 10.52 35.928C9.576 35.864 8.672 35.824 7.808 35.808C7.856 35.968 7.88 36.144 7.88 36.336C7.88 36.928 7.256 39.68 6.008 44.592C5.88 45.104 5.688 45.904 5.432 46.992C5.176 48.08 4.984 48.84 4.856 49.272C4.632 50.12 4.432 50.544 4.256 50.544C4.016 50.544 3.744 50.368 3.44 50.016C3.152 49.648 3.008 49.28 3.008 48.912C3.008 48.544 3.44 46.656 4.304 43.248C5.168 39.824 5.672 37.352 5.816 35.832ZM14.7238 50.592C14.5318 50.592 14.2678 50.384 13.9318 49.968C13.5958 49.536 13.4277 49.128 13.4277 48.744C13.4277 48.36 13.7798 46.792 14.4838 44.04C14.2758 43.96 14.0918 43.824 13.9318 43.632C13.7878 43.424 13.7158 43.192 13.7158 42.936C13.7158 42.728 14.1318 42.496 14.9638 42.24C16.0358 38.048 16.5718 35.448 16.5718 34.44C16.5718 34.168 16.6038 33.984 16.6678 33.888C16.7478 33.776 16.8918 33.72 17.0998 33.72C17.3238 33.72 17.6118 33.968 17.9638 34.464C18.3318 34.96 18.5158 35.52 18.5158 36.144C18.5158 36.752 18.1238 38.6 17.3398 41.688C19.4518 41.256 21.5238 40.976 23.5558 40.848C24.3718 37.52 24.7798 35.384 24.7798 34.44C24.7798 33.96 24.9398 33.72 25.2598 33.72C25.5318 33.72 25.8518 33.968 26.2198 34.464C26.5878 34.96 26.7718 35.48 26.7718 36.024C26.7718 36.552 26.4118 38.176 25.6918 40.896C26.4278 41.008 26.7958 41.232 26.7958 41.568C26.7958 41.888 26.2998 42.152 25.3078 42.36C24.7958 44.248 24.4438 45.56 24.2518 46.296C24.0758 47.016 23.9318 47.592 23.8198 48.024C23.7078 48.456 23.5878 48.888 23.4598 49.32C23.2358 50.168 23.0358 50.592 22.8598 50.592C22.6358 50.592 22.3718 50.408 22.0678 50.04C21.7798 49.656 21.6358 49.264 21.6358 48.864C21.6358 48.464 22.1158 46.408 23.0758 42.696C20.7398 43.016 18.6358 43.384 16.7638 43.8C16.5398 44.632 16.3238 45.44 16.1158 46.224C15.9238 46.992 15.7718 47.592 15.6598 48.024C15.5478 48.456 15.4278 48.888 15.2998 49.32C15.0758 50.168 14.8838 50.592 14.7238 50.592ZM30.7779 50.544C30.5859 50.544 30.3299 50.352 30.0099 49.968C29.7059 49.584 29.5539 49.232 29.5539 48.912C29.5539 48.592 30.0259 46.36 30.9699 42.216C31.9299 38.056 32.4179 35.48 32.4339 34.488C32.4339 34.216 32.4659 34.032 32.5299 33.936C32.6099 33.824 32.7619 33.768 32.9859 33.768C33.2259 33.768 33.5299 34.016 33.8979 34.512C34.2819 35.008 34.4739 35.544 34.4739 36.12C34.4739 36.68 33.8979 39.304 32.7459 43.992C32.6339 44.424 32.4819 45.048 32.2899 45.864C32.0979 46.664 31.9459 47.28 31.8339 47.712C31.7219 48.144 31.6019 48.616 31.4739 49.128C31.2019 50.072 30.9699 50.544 30.7779 50.544ZM48.8876 42.288C48.8876 42.592 48.1836 42.944 46.7756 43.344C46.9036 45.008 46.9676 46.424 46.9676 47.592C46.9676 49.608 46.7116 50.616 46.1996 50.616C45.9276 50.616 45.7116 50.448 45.5516 50.112C45.3916 49.776 45.2636 49.192 45.1676 48.36C45.0556 46.824 44.9356 45.32 44.8076 43.848C44.0876 44.04 43.4316 44.216 42.8396 44.376C42.2476 44.52 41.3516 44.76 40.1516 45.096C38.7436 48.776 37.9116 50.616 37.6556 50.616C37.3996 50.616 37.1196 50.464 36.8156 50.16C36.5276 49.84 36.3836 49.504 36.3836 49.152C36.3836 48.992 36.8396 47.856 37.7516 45.744H37.5836C37.2636 45.744 36.9756 45.64 36.7196 45.432C36.4796 45.224 36.3596 44.968 36.3596 44.664C36.3596 44.344 37.1516 43.928 38.7356 43.416C38.9916 42.84 39.1996 42.32 39.3596 41.856C39.7276 40.944 40.2396 39.696 40.8956 38.112C41.5516 36.528 41.9676 35.52 42.1436 35.088C42.3196 34.64 42.6236 34.264 43.0556 33.96C43.5036 33.64 43.9356 33.48 44.3516 33.48C44.8476 33.48 45.2876 34.272 45.6716 35.856C46.0716 37.44 46.3916 39.4 46.6316 41.736C47.0796 41.688 47.4716 41.664 47.8076 41.664C48.5276 41.664 48.8876 41.872 48.8876 42.288ZM41.0396 42.792C42.1756 42.488 43.3756 42.232 44.6396 42.024C44.3516 39.288 44.0716 37.232 43.7996 35.856C43.0796 37.504 42.1596 39.816 41.0396 42.792ZM61.0171 36.024C60.0091 36.024 58.8891 36.576 57.6571 37.68C56.4411 38.784 55.4011 40.168 54.5371 41.832C53.6731 43.48 53.2411 45.016 53.2411 46.44C53.2411 47.016 53.4251 47.512 53.7931 47.928C54.1611 48.328 54.5931 48.528 55.0891 48.528C55.8571 48.528 56.7531 48.112 57.7771 47.28C58.8171 46.432 59.7771 45.344 60.6571 44.016C59.7611 44.256 59.0971 44.376 58.6651 44.376C58.2331 44.376 57.8651 44.264 57.5611 44.04C57.2571 43.8 57.1051 43.576 57.1051 43.368C57.1051 43.112 57.4491 42.912 58.1371 42.768C58.8251 42.608 59.6891 42.528 60.7291 42.528C61.3051 42.528 61.7691 42.776 62.1211 43.272C62.4891 43.752 62.6731 44.32 62.6731 44.976C62.6731 45.616 62.2731 47.136 61.4731 49.536C60.6731 51.936 60.0651 53.136 59.6491 53.136C59.2491 53.136 59.0491 52.904 59.0491 52.44C59.0491 51.992 59.1611 51.384 59.3851 50.616C59.6251 49.848 59.8731 49.064 60.1291 48.264C60.3851 47.448 60.5931 46.784 60.7531 46.272C59.9691 47.6 59.0811 48.656 58.0891 49.44C57.0971 50.208 56.1291 50.592 55.1851 50.592C54.2571 50.592 53.3371 50.16 52.4251 49.296C51.5131 48.416 51.0571 47.456 51.0571 46.416C51.0571 44.8 51.5691 43 52.5931 41.016C53.6171 39.032 54.9051 37.336 56.4571 35.928C58.0091 34.504 59.4651 33.792 60.8251 33.792C61.2731 33.792 61.7131 34.064 62.1451 34.608C62.5771 35.136 62.7931 35.568 62.7931 35.904C62.7931 36.224 62.7051 36.384 62.5291 36.384C62.4811 36.384 62.3051 36.328 62.0011 36.216C61.6971 36.088 61.3691 36.024 61.0171 36.024ZM72.785 47.28C73.841 46.336 74.745 45.176 75.497 43.8C76.249 42.408 76.625 41.096 76.625 39.864C76.625 38.632 76.385 37.632 75.905 36.864C75.441 36.096 74.889 35.712 74.249 35.712C73.609 35.712 72.809 36.208 71.849 37.2C70.889 38.192 70.025 39.496 69.257 41.112C68.489 42.712 68.105 44.248 68.105 45.72C68.105 46.6 68.297 47.32 68.681 47.88C69.065 48.424 69.513 48.696 70.025 48.696C70.825 48.696 71.745 48.224 72.785 47.28ZM69.881 50.592C68.825 50.592 67.897 50.072 67.097 49.032C66.313 47.992 65.921 46.936 65.921 45.864C65.921 44.408 66.185 42.928 66.713 41.424C67.257 39.92 67.929 38.608 68.729 37.488C69.545 36.368 70.441 35.456 71.417 34.752C72.393 34.032 73.297 33.672 74.129 33.672C75.473 33.672 76.593 34.288 77.489 35.52C78.385 36.736 78.833 38.112 78.833 39.648C78.833 41.184 78.409 42.8 77.561 44.496C76.713 46.176 75.577 47.616 74.153 48.816C72.745 50 71.321 50.592 69.881 50.592ZM100.209 45.864C100.209 47.176 99.6166 48.28 98.4326 49.176C97.2486 50.056 95.8886 50.496 94.3526 50.496C92.8326 50.496 91.5766 50.104 90.5846 49.32C89.5926 48.52 89.0966 47.768 89.0966 47.064C89.0966 46.584 89.2406 46.344 89.5286 46.344C89.7846 46.344 90.2886 46.728 91.0406 47.496C91.3286 47.768 91.7126 48.024 92.1926 48.264C92.6886 48.504 93.2086 48.624 93.7526 48.624C94.8726 48.624 95.8646 48.336 96.7286 47.76C97.6086 47.184 98.0486 46.56 98.0486 45.888C98.0486 45.456 97.7606 44.904 97.1846 44.232C96.6086 43.56 95.9686 42.928 95.2646 42.336C94.5766 41.728 93.9446 41.08 93.3686 40.392C92.7926 39.704 92.5046 39.16 92.5046 38.76C92.5046 38.36 92.5846 37.936 92.7446 37.488C92.9046 37.04 93.0806 36.712 93.2726 36.504C93.8966 35.816 94.8646 35.184 96.1766 34.608C97.5046 34.032 98.6166 33.744 99.5126 33.744C99.9766 33.744 100.369 33.896 100.689 34.2C101.009 34.504 101.169 34.824 101.169 35.16C101.169 35.32 101.001 35.448 100.665 35.544C100.329 35.64 99.8166 35.768 99.1286 35.928C98.4566 36.072 97.8566 36.248 97.3286 36.456C95.4886 37.16 94.5686 37.84 94.5686 38.496C94.5686 38.848 95.5046 39.832 97.3766 41.448C98.0966 42.072 98.7446 42.8 99.3206 43.632C99.9126 44.448 100.209 45.192 100.209 45.864ZM104.583 50.544C104.391 50.544 104.135 50.352 103.815 49.968C103.511 49.584 103.359 49.232 103.359 48.912C103.359 48.592 103.831 46.36 104.775 42.216C105.735 38.056 106.223 35.48 106.239 34.488C106.239 34.216 106.271 34.032 106.335 33.936C106.415 33.824 106.567 33.768 106.791 33.768C107.031 33.768 107.335 34.016 107.703 34.512C108.087 35.008 108.279 35.544 108.279 36.12C108.279 36.68 107.703 39.304 106.551 43.992C106.439 44.424 106.287 45.048 106.095 45.864C105.903 46.664 105.751 47.28 105.639 47.712C105.527 48.144 105.407 48.616 105.279 49.128C105.007 50.072 104.775 50.544 104.583 50.544ZM113.932 34.32C113.932 34.064 113.964 33.88 114.028 33.768C114.108 33.656 114.26 33.6 114.484 33.6C114.724 33.6 115.02 33.8 115.372 34.2C115.724 34.6 115.9 35.024 115.9 35.472C115.9 36.592 115.212 39.424 113.836 43.968C113.148 46.176 112.804 47.496 112.804 47.928C112.804 48.36 113.012 48.576 113.428 48.576C115.236 48.576 117.22 48.28 119.38 47.688C120.068 47.496 120.476 47.4 120.604 47.4C120.748 47.4 120.844 47.432 120.892 47.496C120.94 47.544 120.964 47.648 120.964 47.808C120.964 48.48 120.14 49.112 118.492 49.704C116.86 50.296 115.196 50.592 113.5 50.592C112.732 50.592 112.06 50.368 111.484 49.92C110.924 49.472 110.644 48.944 110.644 48.336C110.644 47.712 111.188 45.496 112.276 41.688C113.38 37.88 113.932 35.424 113.932 34.32ZM135.338 33.768C135.594 33.768 135.85 33.864 136.106 34.056C136.362 34.232 136.49 34.456 136.49 34.728C136.49 34.984 136.338 35.4 136.034 35.976C135.746 36.552 135.242 37.48 134.522 38.76C133.802 40.024 133.186 41.168 132.674 42.192C132.162 43.216 131.674 44.224 131.21 45.216C130.762 46.192 130.402 46.976 130.13 47.568C129.874 48.144 129.618 48.696 129.362 49.224C128.85 50.2 128.426 50.688 128.09 50.688C127.898 50.688 127.666 50.536 127.394 50.232C127.122 49.912 126.906 49.552 126.746 49.152C126.314 48.08 125.73 45.6 124.994 41.712C124.274 37.824 123.914 35.424 123.914 34.512C123.914 34.016 124.05 33.768 124.322 33.768C124.658 33.768 125.002 33.944 125.354 34.296C125.706 34.632 125.986 35.064 126.194 35.592C126.29 35.88 126.522 37.48 126.89 40.392C127.274 43.288 127.706 45.648 128.186 47.472C129.21 44.576 130.53 41.568 132.146 38.448C133.762 35.328 134.826 33.768 135.338 33.768ZM148.567 42.288C148.567 42.592 147.863 42.944 146.455 43.344C146.583 45.008 146.647 46.424 146.647 47.592C146.647 49.608 146.391 50.616 145.879 50.616C145.607 50.616 145.391 50.448 145.231 50.112C145.071 49.776 144.943 49.192 144.847 48.36C144.735 46.824 144.615 45.32 144.487 43.848C143.767 44.04 143.111 44.216 142.519 44.376C141.927 44.52 141.031 44.76 139.831 45.096C138.423 48.776 137.591 50.616 137.335 50.616C137.079 50.616 136.799 50.464 136.495 50.16C136.207 49.84 136.063 49.504 136.063 49.152C136.063 48.992 136.519 47.856 137.431 45.744H137.263C136.943 45.744 136.655 45.64 136.399 45.432C136.159 45.224 136.039 44.968 136.039 44.664C136.039 44.344 136.831 43.928 138.415 43.416C138.671 42.84 138.879 42.32 139.039 41.856C139.407 40.944 139.919 39.696 140.575 38.112C141.231 36.528 141.647 35.52 141.823 35.088C141.999 34.64 142.303 34.264 142.735 33.96C143.183 33.64 143.615 33.48 144.031 33.48C144.527 33.48 144.967 34.272 145.351 35.856C145.751 37.44 146.071 39.4 146.311 41.736C146.759 41.688 147.151 41.664 147.487 41.664C148.207 41.664 148.567 41.872 148.567 42.288ZM140.719 42.792C141.855 42.488 143.055 42.232 144.319 42.024C144.031 39.288 143.751 37.232 143.479 35.856C142.759 37.504 141.839 39.816 140.719 42.792Z" fill="white"/>
</svg>
